<?xml version="1.0" encoding="UTF-8"?>
<svg version="1.1" xmlns="http://www.w3.org/2000/svg" width="512" height="512">
<path d="M0 0 C168.96 0 337.92 0 512 0 C512 168.96 512 337.92 512 512 C343.04 512 174.08 512 0 512 C0 343.04 0 174.08 0 0 Z " fill="#92FDE5" transform="translate(0,0)"/>
<path d="M0 0 C0.97453125 0.01933594 1.9490625 0.03867188 2.953125 0.05859375 C22.59139431 1.02874777 41.49479183 11.13644468 55 25 C60.02680146 31.12000877 63.69006032 37.83100621 67 45 C69.12398808 42.87601192 69.84788642 41.28340856 71.0625 38.5625 C78.49376331 23.4602552 92.41290967 11.06493848 108.1953125 5.18164062 C131.40232193 -2.57396648 157.12899995 -2.75287577 179.39453125 8.13671875 C180.5988724 8.75291528 181.80088792 9.37368858 183 10 C183.97324219 10.50144531 184.94648438 11.00289062 185.94921875 11.51953125 C203.05124602 21.3812842 213.97975706 37.37310322 220.875 55.4375 C221.14948975 56.15123779 221.42397949 56.86497559 221.70678711 57.6003418 C227.48650216 73.85073739 227.40660165 90.03791361 227.29296875 107.0625 C227.2873621 109.55069725 227.28309707 112.03889784 227.28010559 114.52709961 C227.26874098 121.02402148 227.23934726 127.5207369 227.20599365 134.01757812 C227.17511055 140.66794413 227.16156155 147.31833101 227.14648438 153.96875 C227.11446843 166.97927121 227.06177032 179.989586 227 193 C214.46 193 201.92 193 189 193 C188.97812622 188.4375647 188.97812622 188.4375647 188.95581055 183.78295898 C188.90526339 173.68473462 188.83863377 163.58666121 188.76428509 153.48858547 C188.71973482 147.37171711 188.68044548 141.25491301 188.65356445 135.13793945 C188.62737769 129.22445977 188.58686842 123.31122944 188.53681374 117.39790535 C188.52024836 115.15234565 188.50867028 112.90674292 188.50238609 110.66113091 C188.43659768 89.29490906 187.13508396 67.33140202 171.8984375 50.70703125 C162.12011406 41.49882207 150.96706762 37.59340447 137.6875 37.6875 C136.4346521 37.69595947 136.4346521 37.69595947 135.15649414 37.70458984 C122.47156915 37.95324145 112.43206446 41.93572085 102.875 50.375 C99.42577228 54.04765947 97.05682129 58.0579927 94.75 62.5 C94.43272949 63.09731934 94.11545898 63.69463867 93.78857422 64.31005859 C86.39868683 79.48981152 86.39668207 95.25803142 86.390625 111.75 C86.37561501 114.10368979 86.35888204 116.45736916 86.34051514 118.81103516 C86.29714607 124.95276419 86.27691047 131.09435122 86.26177979 137.23620605 C86.24209815 143.52474255 86.20014112 149.81312812 86.16015625 156.1015625 C86.08518425 168.40102033 86.03675694 180.70036855 86 193 C73.46 193 60.92 193 48 193 C47.9906543 189.97408691 47.98130859 186.94817383 47.97167969 183.83056641 C47.9377243 173.76826402 47.88207371 163.70616273 47.81609726 153.64402199 C47.77679658 147.55075723 47.74452332 141.45763323 47.72900391 135.36425781 C47.71372192 129.47016381 47.67907464 123.57645727 47.63169098 117.68253708 C47.61699524 115.44783291 47.60896587 113.2130734 47.60811615 110.97832108 C47.5919915 89.81067009 46.08444366 67.3667901 31 51 C20.97667934 41.41247589 8.88023735 37.40466852 -4.8125 37.5 C-5.77373779 37.50572021 -6.73497559 37.51144043 -7.7253418 37.51733398 C-19.4705036 37.8110372 -29.65143691 41.42123756 -38 50 C-45.50824471 58.78020064 -49.50313766 67.75658478 -52 79 C-52.1709166 79.72962448 -52.34183319 80.45924896 -52.51792908 81.21098328 C-54.71239289 92.182266 -54.35576205 103.34565369 -54.4140625 114.484375 C-54.43279851 116.75409632 -54.45237369 119.02381086 -54.4727478 121.29351807 C-54.52381803 127.23140439 -54.56357737 133.16931323 -54.60089111 139.1072998 C-54.64108912 145.1809637 -54.69210899 151.25453595 -54.7421875 157.328125 C-54.83864913 169.21869165 -54.92214647 181.10929694 -55 193 C-67.54 193 -80.08 193 -93 193 C-93.0908303 178.74243755 -93.16401953 164.48507129 -93.20724869 150.22728348 C-93.2280098 143.60487059 -93.25611513 136.98265291 -93.30175781 130.36035156 C-93.34562805 123.95419026 -93.36922306 117.54822971 -93.37950897 111.14192963 C-93.38682712 108.71343583 -93.40111453 106.28495142 -93.42292023 103.85654449 C-93.66604222 75.62540489 -89.74062004 46.57729184 -69.33984375 25.3046875 C-68.18162109 24.16386719 -68.18162109 24.16386719 -67 23 C-66.21753906 22.21882813 -65.43507813 21.43765625 -64.62890625 20.6328125 C-46.75209112 3.6426874 -23.85684426 -0.93415354 0 0 Z " fill="#010E0E" transform="translate(189,147)"/>
<path d="M0 0 C0.33 0 0.66 0 1 0 C1 18.48 1 36.96 1 56 C-17.48 56 -35.96 56 -55 56 C-51.19652542 54.09826271 -48.24721182 53.37150356 -44.125 52.5 C-36.38628292 50.68272618 -30.91176563 46.90477528 -24.73046875 42.046875 C-22 40 -22 40 -20 40 C-20 39.34 -20 38.68 -20 38 C-19.34 38 -18.68 38 -18 38 C-17.67 37.01 -17.34 36.02 -17 35 C-16.34 35 -15.68 35 -15 35 C-14.773125 34.29875 -14.54625 33.5975 -14.3125 32.875 C-12.99725182 29.99398019 -11.33505058 28.01832165 -9.29296875 25.62890625 C-3.46845272 18.29107185 -2.03222183 8.90718505 0 0 Z " fill="#FCFEFE" transform="translate(511,456)"/>
<path d="M0 0 C18.48 0 36.96 0 56 0 C56 18.48 56 36.96 56 56 C54.39287631 52.78575262 53.33153737 49.89300359 52.35107422 46.46557617 C50.06797512 38.52480542 47.52767372 30.24337793 41.3203125 24.42578125 C40 23 40 23 40 20 C39.12794922 19.59394531 39.12794922 19.59394531 38.23828125 19.1796875 C36.00483153 18.00254646 34.16951599 16.68316328 32.1875 15.125 C22.61531416 7.88450045 11.71698199 3.52719219 0 1 C0 0.67 0 0.34 0 0 Z " fill="#FCFEFE" transform="translate(456,0)"/>
<path d="M0 0 C2.60771851 3.47695801 3.46635175 4.92498705 4.5 8.875 C5.61141417 12.86197783 7.0710296 16.32577066 9 20 C9 20.66 9 21.32 9 22 C9.66 22 10.32 22 11 22 C13.17204 24.96187272 14.83561997 27.50685991 16 31 C16.5775 31.28875 17.155 31.5775 17.75 31.875 C20 33 20 33 22.1875 35.25 C31.46504044 44.32137287 43.41386938 48.65343328 56 51 C56 51.33 56 51.66 56 52 C37.52 52 19.04 52 0 52 C0 34.84 0 17.68 0 0 Z " fill="#FBFEFE" transform="translate(0,460)"/>
<path d="M0 0 C18.15 0 36.3 0 55 0 C52.06181716 1.95878856 49.84701656 2.51828112 46.46484375 3.29296875 C42.33886601 4.4764901 38.46550695 6.25687923 34.5390625 7.9765625 C32 9 32 9 30 9 C30 9.66 30 10.32 30 11 C28.59138963 11.97261192 27.17620755 12.93733412 25.7265625 13.84765625 C23.94366112 15.03760174 22.36665529 16.34438592 20.75 17.75 C18 20 18 20 16 20 C15.67 21.32 15.34 22.64 15 24 C14.34 24 13.68 24 13 24 C12.773125 24.639375 12.54625 25.27875 12.3125 25.9375 C11.21267006 28.50376986 10.01428539 30.77655551 8.625 33.1875 C4.48317269 40.56436402 1.62780695 47.52460621 1 56 C0.67 56 0.34 56 0 56 C0 37.52 0 19.04 0 0 Z " fill="#FBFEFE" transform="translate(0,0)"/>
<path d="M0 0 C0.66 0 1.32 0 2 0 C1.56231549 2.62610706 1.12693161 4.7602403 -0.125 7.125 C-1.33193231 9.15044414 -1.33193231 9.15044414 0 12 C-1.29327628 14.02613283 -2.6296945 16.02514795 -4 18 C-4.76939681 20.22602615 -4.76939681 20.22602615 -5 22 C-5.66 22 -6.32 22 -7 22 C-6.98839844 22.74765625 -6.97679687 23.4953125 -6.96484375 24.265625 C-6.95582031 25.25046875 -6.94679687 26.2353125 -6.9375 27.25 C-6.92589844 28.22453125 -6.91429687 29.1990625 -6.90234375 30.203125 C-7 33 -7 33 -7.49942875 34.91906071 C-8.01520744 37.06321929 -8.11790031 38.89043631 -8.10679626 41.09190369 C-8.10528061 41.89793533 -8.10376495 42.70396698 -8.10220337 43.53442383 C-8.095466 44.4098584 -8.08872864 45.28529297 -8.08178711 46.18725586 C-8.07872055 47.11615128 -8.07565399 48.04504669 -8.07249451 49.00209045 C-8.06534481 51.01770324 -8.05595759 53.03330905 -8.04459953 55.04890251 C-8.0272128 58.2388696 -8.01691121 61.42878661 -8.00868225 64.61878967 C-7.98422435 73.68820942 -7.94863891 82.75756165 -7.90405273 91.8269043 C-7.87727243 97.37523008 -7.86022791 102.92351689 -7.84918404 108.47189522 C-7.84297475 110.58621219 -7.83297007 112.70052154 -7.81910515 114.81480217 C-7.7998913 117.77103497 -7.79299316 120.72706278 -7.78881836 123.68334961 C-7.78005676 124.55675995 -7.77129517 125.43017029 -7.76226807 126.33004761 C-7.76917624 130.61452611 -7.80592392 134.18338129 -10 138 C-13.58058405 140.38705603 -14.94507717 140.18645822 -19.171875 140.01171875 C-20.39390625 139.96466797 -21.6159375 139.91761719 -22.875 139.86914062 C-24.793125 139.77922852 -24.793125 139.77922852 -26.75 139.6875 C-28.01328125 139.63916016 -29.2765625 139.59082031 -30.578125 139.54101562 C-36.45754891 139.29706894 -42.17904361 138.89897338 -48 138 C-48 137.67 -48 137.34 -48 137 C-35.79 137 -23.58 137 -11 137 C-11.01571045 132.41399902 -11.01571045 132.41399902 -11.03173828 127.73535156 C-11.06497009 117.60129825 -11.08700637 107.46724244 -11.10362434 97.33314896 C-11.11403389 91.1926102 -11.12814122 85.05212756 -11.15087891 78.91162109 C-11.1727084 72.97883304 -11.18458988 67.04609876 -11.18975449 61.11327362 C-11.19343215 58.85682072 -11.20061345 56.60037056 -11.21146011 54.34394073 C-11.2763485 40.27789837 -10.95366278 27.13152374 -6.625 13.625 C-6.4290625 12.96628906 -6.233125 12.30757812 -6.03125 11.62890625 C-4.61916254 7.13346326 -2.86552904 3.68751346 0 0 Z " fill="#A5F4E1" transform="translate(145,204)"/>
<path d="M0 0 C0.99 0 1.98 0 3 0 C3.48066535 1.89545392 3.95946743 3.79138039 4.4375 5.6875 C4.83775391 7.27111328 4.83775391 7.27111328 5.24609375 8.88671875 C5.49488281 9.91410156 5.74367187 10.94148437 6 12 C6.17820786 12.68059982 6.35641571 13.36119965 6.5400238 14.06242371 C7.22120911 18.41272233 7.13008562 22.7179689 7.11352539 27.11450195 C7.11367142 28.12960342 7.11381744 29.1447049 7.1139679 30.19056702 C7.11327223 33.53982697 7.10549597 36.88903104 7.09765625 40.23828125 C7.09579084 42.56284047 7.09436752 44.88740008 7.09336853 47.21195984 C7.08955302 53.32590829 7.07973095 59.43983292 7.06866455 65.55377197 C7.05842968 71.79430825 7.05386646 78.03484837 7.04882812 84.27539062 C7.03810784 96.51693754 7.02104299 108.75846679 7 121 C6.01 120.67 5.02 120.34 4 120 C3.99191315 118.78050156 3.98382629 117.56100311 3.97549438 116.30455017 C3.89768053 104.75695979 3.80985528 93.20948215 3.71247292 81.66203976 C3.66273461 75.72678355 3.61640429 69.79154323 3.578125 63.85620117 C3.54098631 58.11783305 3.4945526 52.37960566 3.44193649 46.64135933 C3.42354321 44.46277929 3.40838104 42.28416927 3.39665604 40.10554314 C3.32068205 26.46468867 2.77193888 13.39368758 0 0 Z " fill="#A1EAD9" transform="translate(230,220)"/>
<path d="M0 0 C2.52803404 2.93159012 3.37273068 4.6757694 3.32279968 8.54315186 C3.31850952 9.448965 3.31421936 10.35477814 3.30979919 11.28804016 C3.28966263 12.27418808 3.26952606 13.260336 3.2487793 14.27636719 C3.23946381 15.32058334 3.23014832 16.3647995 3.22055054 17.44065857 C3.18616858 20.89306001 3.13027496 24.34476304 3.07421875 27.796875 C3.04618734 30.19010938 3.01949675 32.5833598 2.99409485 34.97662354 C2.92361797 41.27657103 2.83490222 47.57613551 2.74243164 53.87579346 C2.6512904 60.3037825 2.57733746 66.73196652 2.50195312 73.16015625 C2.35149083 85.77370346 2.18017895 98.38684224 2 111 C13.22 111 24.44 111 36 111 C36.02505615 108.26952393 36.0501123 105.53904785 36.07592773 102.72583008 C36.1593968 93.70526958 36.2480834 84.68476581 36.33933926 75.66428089 C36.39450821 70.19507147 36.44791859 64.72585665 36.49731445 59.2565918 C36.54504688 53.97866389 36.59739291 48.70080007 36.65294075 43.42294884 C36.67332408 41.40914188 36.69204373 39.39531737 36.70907402 37.38147926 C36.73320711 34.56130254 36.76324947 31.74124613 36.79467773 28.92114258 C36.8004332 28.08820175 36.80618866 27.25526093 36.81211853 26.39707947 C36.86185781 22.4715143 37.03863331 18.83315118 38 15 C38.33 15 38.66 15 39 15 C39 47.01 39 79.02 39 112 C26.46 112 13.92 112 1 112 C0.97494385 108.92171875 0.9498877 105.8434375 0.92407227 102.671875 C0.84051518 92.48984518 0.75184011 82.30786454 0.66066074 72.12590027 C0.60554727 65.95390558 0.55214609 59.78190606 0.50268555 53.60986328 C0.45487087 47.65112314 0.40252249 41.69243834 0.34705925 35.73376465 C0.326713 33.462864 0.30798752 31.19194821 0.29092598 28.92102051 C0.26671015 25.73505196 0.23668001 22.54918642 0.20532227 19.36328125 C0.19668907 17.96173546 0.19668907 17.96173546 0.18788147 16.53187561 C0.1422555 12.44109929 -0.01476395 8.47006148 -0.57533264 4.41479492 C-0.71547287 3.2879126 -0.8556131 2.16103027 -1 1 C-0.67 0.67 -0.34 0.34 0 0 Z " fill="#082E26" transform="translate(236,228)"/>
<path d="M0 0 C4.59636782 8.1738056 4.29244559 18.51136179 4.22705078 27.64355469 C4.22734283 28.73770691 4.22763489 29.83185913 4.22793579 30.95916748 C4.22655655 34.53015428 4.21106219 38.10092523 4.1953125 41.671875 C4.19157737 44.16579067 4.18873276 46.65970782 4.18673706 49.15362549 C4.17914002 55.68343229 4.1595256 62.21314861 4.1373291 68.74291992 C4.11568781 75.41974123 4.10771723 82.09659088 4.09765625 88.7734375 C4.07627573 101.84900427 4.04112594 114.92448041 4 128 C-8.54 128 -21.08 128 -34 128 C-34.01981934 124.95837646 -34.03963867 121.91675293 -34.06005859 118.78295898 C-34.12724457 108.68476296 -34.20487849 98.58666618 -34.28752708 88.48858547 C-34.33727521 82.37172611 -34.38360563 76.25488225 -34.421875 70.13793945 C-34.45900105 64.22450965 -34.50543175 58.31121674 -34.55806351 52.39790535 C-34.57646338 50.15233853 -34.59162325 47.90674252 -34.60334396 45.66113091 C-34.66840736 33.61618588 -34.93703518 21.8899206 -37 10 C-36.01 10.99 -35.02 11.98 -34 13 C-33.34 12.67 -32.68 12.34 -32 12 C-30 14 -30 14 -29.875 17.125 C-29.91625 18.07375 -29.9575 19.0225 -30 20 C-30.66 20 -31.32 20 -32 20 C-32.33 55.31 -32.66 90.62 -33 127 C-31.02 126.505 -31.02 126.505 -29 126 C-26.52180955 125.98412331 -24.08277153 126.02265877 -21.609375 126.12109375 C-20.55245453 126.15651024 -20.55245453 126.15651024 -19.47418213 126.19264221 C-17.2325672 126.26896977 -14.99132504 126.35312579 -12.75 126.4375 C-11.2265805 126.4907517 -9.70314302 126.54349188 -8.1796875 126.59570312 C-4.45289845 126.72454248 -0.72640333 126.86040232 3 127 C2.89263459 113.34419023 2.78002917 99.68843482 2.66066074 86.03272438 C2.60540447 79.69240716 2.55198016 73.35208535 2.50268555 67.01171875 C2.45508188 60.89739226 2.40274056 54.78312329 2.34705925 48.6688652 C2.32661755 46.33160197 2.30790753 43.99432295 2.29092598 41.65703201 C2.26692213 38.39320395 2.23686209 35.12948535 2.20532227 31.86572266 C2.19668907 30.40376717 2.19668907 30.40376717 2.18788147 28.91227722 C2.17809265 28.02604172 2.16830383 27.13980621 2.15821838 26.22671509 C2.15176583 25.45425257 2.14531328 24.68179005 2.1386652 23.88591957 C2.11361963 21.91022052 2.11361963 21.91022052 1 20 C0.79396355 17.69067477 0.63376638 15.37713617 0.5 13.0625 C0.21849611 7.94190165 0.21849611 7.94190165 -1 3 C-0.67 2.01 -0.34 1.02 0 0 Z " fill="#032821" transform="translate(412,212)"/>
<path d="M0 0 C1.31971106 3.83718031 0.88134815 7.50640392 0.56420898 11.47216797 C-0.06191439 20.55565232 -0.10358216 29.59401653 -0.04459953 38.69549942 C-0.026865 41.52160408 -0.01680625 44.34764979 -0.00868225 47.17379761 C0.01549348 55.19437191 0.05156082 63.2148645 0.09594727 71.23535156 C0.12276672 76.17622239 0.13977784 81.11704956 0.15081596 86.05797958 C0.15699858 87.92782097 0.16696953 89.79765401 0.18089485 91.66745377 C0.20017514 94.2746158 0.20701453 96.88154566 0.21118164 99.48876953 C0.21994324 100.25040909 0.22870483 101.01204865 0.23773193 101.79676819 C0.22906222 106.56373874 -0.4943878 110.47149957 -2 115 C-5.00702845 115.87026229 -7.69022185 116.12856785 -10.81640625 116.1328125 C-11.74114746 116.13474609 -12.66588867 116.13667969 -13.61865234 116.13867188 C-14.59012207 116.13416016 -15.5615918 116.12964844 -16.5625 116.125 C-17.54943848 116.12306641 -18.53637695 116.12113281 -19.55322266 116.11914062 C-26.0748449 116.08039192 -32.52810034 115.86704876 -39 115 C-39 114.34 -39 113.68 -39 113 C-27.12 113 -15.24 113 -3 113 C-3.00523682 109.78483643 -3.01047363 106.56967285 -3.01586914 103.25708008 C-3.03243108 92.64000942 -3.04348169 82.02293819 -3.05181217 71.40585804 C-3.0570331 64.96807485 -3.06411648 58.53030488 -3.07543945 52.0925293 C-3.08629631 45.88097186 -3.0922828 39.66942714 -3.09487724 33.45786095 C-3.09672643 31.0867766 -3.10033736 28.71569296 -3.10573006 26.34461403 C-3.11297755 23.02635817 -3.11398936 19.70815507 -3.11352539 16.38989258 C-3.11712067 15.40733994 -3.12071594 14.42478729 -3.12442017 13.41246033 C-3.1230455 12.50527252 -3.12167084 11.59808472 -3.12025452 10.66340637 C-3.12117631 9.87896054 -3.1220981 9.09451471 -3.12304783 8.2862978 C-2.98668564 5.75261178 -2.66615484 3.45004264 -2 1 C-1.34 0.67 -0.68 0.34 0 0 Z " fill="#A5F2DE" transform="translate(278,228)"/>
<path d="M0 0 C-3.86287939 4.27675932 -5.97966686 4.82583335 -11.625 5.3125 C-23.0249801 6.74539953 -32.68029473 13.40683547 -40.5625 21.5 C-41.7690625 22.7375 -41.7690625 22.7375 -43 24 C-43.66 24 -44.32 24 -45 24 C-45.20625 24.969375 -45.4125 25.93875 -45.625 26.9375 C-46.51934173 30.15713021 -47.85838647 32.28942162 -49.875 34.9375 C-53.32924077 39.77511389 -54.43485097 44.75441672 -55.53076172 50.50366211 C-56.20169971 53.77260792 -56.637511 55.66158776 -59.1171875 57.9765625 C-59.73851562 58.31429687 -60.35984375 58.65203125 -61 59 C-61.18563052 46.48319931 -55.28741816 33.99417348 -48 24 C-47.34 24 -46.68 24 -46 24 C-45.95746094 23.43796875 -45.91492187 22.8759375 -45.87109375 22.296875 C-44.57740666 18.88571801 -41.9349055 17.29838209 -39.0625 15.25 C-38.51142578 14.83878906 -37.96035156 14.42757813 -37.39257812 14.00390625 C-33.28590895 11 -33.28590895 11 -31 11 C-31 10.34 -31 9.68 -31 9 C-29.27149655 8.20688633 -27.54216646 7.4155741 -25.8125 6.625 C-24.84957031 6.18414063 -23.88664062 5.74328125 -22.89453125 5.2890625 C-15.43252774 1.96590304 -8.27259334 -0.42423556 0 0 Z " fill="#A9F5E5" transform="translate(61,0)"/>
<path d="M0 0 C6.79189416 10.18784124 4.25197507 26.81461714 4.1953125 38.484375 C4.19157659 40.75408808 4.18873235 43.02380279 4.18673706 45.29351807 C4.17914609 51.23149159 4.15953708 57.16936536 4.1373291 63.1072998 C4.11677238 69.18089448 4.10771443 75.25450547 4.09765625 81.328125 C4.07628648 93.21879353 4.04220601 105.10938843 4 117 C3.01 117.495 3.01 117.495 2 118 C1.99191315 116.80777832 1.98382629 115.61555664 1.97549438 114.38720703 C1.89763275 103.09010129 1.80979648 91.79311009 1.71247292 80.49615479 C1.66276443 74.6898431 1.61643446 68.88354741 1.578125 63.07714844 C1.54094786 57.46196764 1.49450508 51.8469296 1.44193649 46.23187256 C1.42356321 44.10156792 1.40839408 41.97123288 1.39665604 39.84088135 C1.33361091 28.78298782 1.04430454 18.01903848 -0.67471313 7.08203125 C-0.96789866 4.30415406 -0.91969205 2.59938605 0 0 Z " fill="#A9F5E6" transform="translate(374,222)"/>
<path d="M0 0 C1.30156739 3.90470216 0.36383349 6.76611602 -0.625 10.625 C-0.80957764 11.34703613 -0.99415527 12.06907227 -1.18432617 12.81298828 C-2.69832063 18.43062145 -4.71347827 23.17376535 -8 28 C-8.87591797 29.31484375 -8.87591797 29.31484375 -9.76953125 30.65625 C-15.18176109 38.58659099 -15.18176109 38.58659099 -18 41 C-18.66 41 -19.32 41 -20 41 C-20 41.66 -20 42.32 -20 43 C-21.98929053 44.57647535 -23.96641091 46.01638374 -26.0625 47.4375 C-26.62388672 47.83259766 -27.18527344 48.22769531 -27.76367188 48.63476562 C-33.36418484 52.48151796 -39.25744856 54.95309079 -45.8125 56.75 C-47.21435547 57.14445312 -47.21435547 57.14445312 -48.64453125 57.546875 C-51 58 -51 58 -53 57 C-50.50973915 54.50973915 -48.99137091 54.47687161 -45.5625 53.8125 C-39.55952699 52.42218538 -35.1977559 49.93842913 -30.1796875 46.42578125 C-28 45 -28 45 -26 45 C-26 44.34 -26 43.68 -26 43 C-23.56435926 40.42517979 -21.00517066 38.00491844 -18.4375 35.5625 C-15.87652791 33.02442657 -15.87652791 33.02442657 -13.875 29.75 C-12 27 -12 27 -9 26 C-8.06881381 23.54668152 -8.06881381 23.54668152 -7.5 20.5625 C-7.2525 19.48097656 -7.005 18.39945312 -6.75 17.28515625 C-6.5025 16.20105469 -6.255 15.11695313 -6 14 C-5.52093405 12.16108539 -5.02276964 10.32697099 -4.5 8.5 C-4.2834375 7.7265625 -4.066875 6.953125 -3.84375 6.15625 C-2.90039875 3.74546347 -1.63313252 1.99605085 0 0 Z " fill="#A8F4E2" transform="translate(511,453)"/>
<path d="M0 0 C0.33 0.66 0.66 1.32 1 2 C1.99 2 2.98 2 4 2 C3.67 3.65 3.34 5.3 3 7 C3.66 7 4.32 7 5 7 C6.26734395 17.86294813 7.16324663 28.60759798 7.09375 39.55078125 C7.09016479 40.6823616 7.08657959 41.81394196 7.08288574 42.97981262 C7.00553733 60.43040276 6.76025156 77.88040673 6.53643799 95.32958984 C6.47487813 100.15786222 6.41526775 104.98615868 6.35546875 109.81445312 C6.23883298 119.20965926 6.12012088 128.60483782 6 138 C5.67 138 5.34 138 5 138 C4.99761165 137.43753067 4.99522329 136.87506134 4.99276257 136.29554749 C4.93333112 122.5369237 4.85742182 108.77847304 4.76428509 95.02003479 C4.71972918 88.36622595 4.68044107 81.71250465 4.65356445 75.05859375 C4.62738342 68.62641185 4.58687788 62.19445942 4.53681374 55.76242065 C4.52024457 53.31951776 4.50866882 50.87657527 4.50238609 48.43362427 C4.46514561 35.27342093 4.13097122 22.82624361 1 10 C0.30655454 7.003731 -0.36637608 4.00971361 -1 1 C-0.67 0.67 -0.34 0.34 0 0 Z " fill="#B0EFE2" transform="translate(411,202)"/>
<path d="M0 0 C0.99 0 1.98 0 3 0 C3 0.99 3 1.98 3 3 C3.99 3 4.98 3 6 3 C6.33 3.66 6.66 4.32 7 5 C7.99 5 8.98 5 10 5 C10 6.32 10 7.64 10 9 C10.66 9 11.32 9 12 9 C12 10.32 12 11.64 12 13 C12.66 13 13.32 13 14 13 C14.33 14.32 14.66 15.64 15 17 C15.721875 16.855625 16.44375 16.71125 17.1875 16.5625 C18.115625 16.376875 19.04375 16.19125 20 16 C20.886875 15.79375 21.77375 15.5875 22.6875 15.375 C25 15 25 15 27 16 C24.69 20.62 22.38 25.24 20 30 C17.7033941 26.93785879 16.3749953 24.80971166 14.875 21.4375 C11.55012319 14.60528363 6.72232932 8.55015109 1.2265625 3.30859375 C0 2 0 2 0 0 Z " fill="#9BEDD9" transform="translate(237,164)"/>
<path d="M0 0 C0.90473053 -0.0033284 1.80946106 -0.0066568 2.74160767 -0.01008606 C4.66676321 -0.01516396 6.59192761 -0.01749412 8.51708984 -0.01733398 C11.42951604 -0.01949632 14.3415484 -0.03757486 17.25390625 -0.05664062 C26.40837328 -0.08405142 35.15634356 -0.02560752 44.1015625 2.16796875 C46.10063921 2.50679531 48.10011976 2.84341047 50.1015625 3.16796875 C49.4415625 3.49796875 48.7815625 3.82796875 48.1015625 4.16796875 C48.1015625 4.82796875 48.1015625 5.48796875 48.1015625 6.16796875 C47.29074219 5.96300781 46.47992188 5.75804687 45.64453125 5.546875 C23.09436575 0.0602806 2.17522107 1.57393092 -19.8984375 8.16796875 C-19.8984375 7.50796875 -19.8984375 6.84796875 -19.8984375 6.16796875 C-19.18816406 5.81863281 -18.47789062 5.46929687 -17.74609375 5.109375 C-16.82699219 4.65433594 -15.90789062 4.19929687 -14.9609375 3.73046875 C-13.58615234 3.05177734 -13.58615234 3.05177734 -12.18359375 2.359375 C-7.91655894 0.13468164 -4.9582279 0.00627696 0 0 Z " fill="#A0E6D8" transform="translate(164.8984375,145.83203125)"/>
<path d="M0 0 C0.33 0 0.66 0 1 0 C1.84274598 9.81643007 0.39697011 15.81502163 -5 24 C-5.44085938 24.7425 -5.88171875 25.485 -6.3359375 26.25 C-10.34317559 32.98828571 -14.41304863 37.60869909 -21 42 C-21.84037626 43.04059129 -22.65277608 44.10432371 -23.4375 45.1875 C-26 48 -26 48 -29.8125 48.875 C-30.864375 48.91625 -31.91625 48.9575 -33 49 C-29.74098981 45.48026899 -26.1139069 42.47239725 -22 40 C-21.34 40 -20.68 40 -20 40 C-20 39.34 -20 38.68 -20 38 C-19.34 38 -18.68 38 -18 38 C-17.67 37.01 -17.34 36.02 -17 35 C-16.34 35 -15.68 35 -15 35 C-14.773125 34.29875 -14.54625 33.5975 -14.3125 32.875 C-12.99725182 29.99398019 -11.33505058 28.01832165 -9.29296875 25.62890625 C-3.46845272 18.29107185 -2.03222183 8.90718505 0 0 Z " fill="#DBFDF8" transform="translate(511,456)"/>
<path d="M0 0 C2.625 -0.1875 2.625 -0.1875 5 0 C4.01 0.495 4.01 0.495 3 1 C3 1.66 3 2.32 3 3 C1.59138963 3.97261192 0.17620755 4.93733412 -1.2734375 5.84765625 C-3.05633888 7.03760174 -4.63334471 8.34438592 -6.25 9.75 C-9 12 -9 12 -11 12 C-11.33 13.32 -11.66 14.64 -12 16 C-12.66 16 -13.32 16 -14 16 C-14.226875 16.639375 -14.45375 17.27875 -14.6875 17.9375 C-15.78732994 20.50376986 -16.98571461 22.77655551 -18.375 25.1875 C-22.51682731 32.56436402 -25.37219305 39.52460621 -26 48 C-26.33 48 -26.66 48 -27 48 C-27.54470737 40.0412201 -26.48901845 34.18052459 -23 27 C-22.34 27 -21.68 27 -21 27 C-20.92652344 25.96746094 -20.85304688 24.93492188 -20.77734375 23.87109375 C-19.88721506 19.43834231 -18.48099942 17.46663773 -15.5625 14.0625 C-14.35787109 12.62583984 -14.35787109 12.62583984 -13.12890625 11.16015625 C-12.07509766 10.09087891 -12.07509766 10.09087891 -11 9 C-10.34 9 -9.68 9 -9 9 C-8.773125 8.38125 -8.54625 7.7625 -8.3125 7.125 C-6.61044153 4.36928629 -4.97290314 4.11483868 -2 3 C-1.34 2.01 -0.68 1.02 0 0 Z " fill="#E3FEFB" transform="translate(27,8)"/>
<path d="M0 0 C0.33 0 0.66 0 1 0 C1.05451714 2.04136395 1.09302485 4.08315856 1.125 6.125 C1.14820312 7.26195312 1.17140625 8.39890625 1.1953125 9.5703125 C1 13 1 13 0.00772095 15.66116333 C-1.24651626 19.81677127 -1.30735051 23.53658836 -1.31884766 27.85107422 C-1.32889328 28.72001816 -1.3389389 29.5889621 -1.34928894 30.48423767 C-1.38004734 33.34104789 -1.39713564 36.19776469 -1.4140625 39.0546875 C-1.43278005 41.04152221 -1.4523539 43.02834902 -1.4727478 45.01516724 C-1.5240129 50.23306617 -1.56366876 55.45099086 -1.60089111 60.66900635 C-1.64096598 65.99815208 -1.69204244 71.32719119 -1.7421875 76.65625 C-1.83888024 87.1040917 -1.92330634 97.55199369 -2 108 C-2.33 108 -2.66 108 -3 108 C-3.06988892 96.2810599 -3.12300712 84.56217039 -3.15543652 72.84306335 C-3.17101062 67.39985731 -3.19209587 61.95679515 -3.22631836 56.51367188 C-3.259209 51.24869395 -3.27691488 45.98385335 -3.28463173 40.71878052 C-3.29012243 38.72240033 -3.30084227 36.72602661 -3.31719017 34.72970581 C-3.41119418 22.76101479 -2.75648504 11.68203216 0 0 Z " fill="#052A21" transform="translate(99,212)"/>
<path d="M0 0 C-3.09625353 2.06416902 -6.1983335 3.53708387 -9.5625 5.125 C-19.98678647 10.23082789 -27.53051977 17.1757611 -35 26 C-35.66 26.66 -36.32 27.32 -37 28 C-38 26 -38 26 -37.3125 23.4375 C-36 21 -36 21 -33.875 20.1875 C-33.25625 20.125625 -32.6375 20.06375 -32 20 C-32 19.01 -32 18.02 -32 17 C-31.01 17 -30.02 17 -29 17 C-28.79375 16.2575 -28.5875 15.515 -28.375 14.75 C-26.60251521 11.20503041 -24.32568116 10.05201604 -21 8 C-20.67 7.34 -20.34 6.68 -20 6 C-19.34 6 -18.68 6 -18 6 C-17.67 4.68 -17.34 3.36 -17 2 C-15.39125 1.7834375 -15.39125 1.7834375 -13.75 1.5625 C-10.25736036 1.11343371 -10.25736036 1.11343371 -7.9375 0.4375 C-5.2772859 -0.16319351 -2.71615848 -0.06173087 0 0 Z " fill="#A1F3E3" transform="translate(301,151)"/>
<path d="M0 0 C2.375 0.75 2.375 0.75 5 2 C5.66666667 3.33333333 6.33333333 4.66666667 7 6 C8.64034193 6.72904086 10.31301918 7.38655243 12 8 C15.3125 10 15.3125 10 18 12 C18 12.66 18 13.32 18 14 C19.09054688 14.20496094 19.09054688 14.20496094 20.203125 14.4140625 C27.62365968 15.96864379 34.83181122 18.55866034 42 21 C41.67 21.66 41.34 22.32 41 23 C27.09466947 22.2929493 14.42652361 16.21206724 5 6 C4.071875 5.0925 3.14375 4.185 2.1875 3.25 C0 1 0 1 0 0 Z " fill="#A8F4E2" transform="translate(15,488)"/>
<path d="M0 0 C0.66 0 1.32 0 2 0 C1.56231549 2.62610706 1.12693161 4.7602403 -0.125 7.125 C-1.33193231 9.15044414 -1.33193231 9.15044414 0 12 C-1.29327628 14.02613283 -2.6296945 16.02514795 -4 18 C-4.76939681 20.22602615 -4.76939681 20.22602615 -5 22 C-5.66 22 -6.32 22 -7 22 C-6.938125 22.78375 -6.87625 23.5675 -6.8125 24.375 C-7.06207574 29.20013103 -8.4848682 33.43656733 -10 38 C-12.50569773 30.2287056 -8.91039014 21.17080305 -6.625 13.625 C-6.42825684 12.95952148 -6.23151367 12.29404297 -6.02880859 11.60839844 C-4.61040872 7.1222441 -2.86161374 3.68247505 0 0 Z " fill="#A1E9D7" transform="translate(145,204)"/>
<path d="M0 0 C-1.1875 2.5 -1.1875 2.5 -3 5 C-5.6875 5.3125 -5.6875 5.3125 -8 5 C-8.2475 5.61875 -8.495 6.2375 -8.75 6.875 C-10.25877388 9.4399156 -11.33287219 9.78074157 -14 11 C-16.48745871 12.89520664 -18.78893853 14.78893853 -21 17 C-21.99 16.34 -22.98 15.68 -24 15 C-19.10048768 8.56207426 -8.86269006 -2.95423002 0 0 Z " fill="#9CE8D5" transform="translate(170,187)"/>
<path d="M0 0 C15.49120618 -0.58889485 28.25911281 0.12334326 41 10 C40.01 10.99 39.02 11.98 38 13 C38 12.01 38 11.02 38 10 C37.01 10 36.02 10 35 10 C35 9.34 35 8.68 35 8 C34.278125 8.061875 33.55625 8.12375 32.8125 8.1875 C29.42007566 7.96133838 27.80338799 6.86892533 25 5 C21.78511759 3.06969667 19.54120256 2.80298692 15.8125 2.9375 C10.75360526 3.02577602 6.00046088 2.80652595 1 2 C0.67 1.34 0.34 0.68 0 0 Z " fill="#A5EFDC" transform="translate(317,184)"/>
<path d="M0 0 C0.33 0.66 0.66 1.32 1 2 C1.99 2 2.98 2 4 2 C3.67 3.65 3.34 5.3 3 7 C3.66 7 4.32 7 5 7 C6.24633202 17.68284585 7.19073261 28.23420366 7 39 C5.37833703 36.09055806 4.65268567 33.66639362 4.25390625 30.3671875 C4.13853516 29.47773438 4.02316406 28.58828125 3.90429688 27.671875 C3.67931181 25.83085435 3.45532678 23.98971117 3.23242188 22.1484375 C2.50849088 16.58096818 1.37065843 11.49752522 -0.49633789 6.19580078 C-1.05768587 3.74850864 -0.80078055 2.35176958 0 0 Z " fill="#A2F0DD" transform="translate(411,202)"/>
<path d="M0 0 C-1.49854632 2.99709265 -3.93697147 3.09384575 -6.94140625 4.1328125 C-9.25289034 4.98779045 -9.25289034 4.98779045 -11.6875 7.25 C-12.450625 7.8275 -13.21375 8.405 -14 9 C-15.67654729 8.72057545 -17.34608154 8.39171753 -19 8 C-20.68732044 9.27056525 -20.68732044 9.27056525 -22 11 C-22.99 11.66 -23.98 12.32 -25 13 C-25.99 14.485 -25.99 14.485 -27 16 C-28.32 15.34 -29.64 14.68 -31 14 C-23.32701039 5.90848368 -11.37838575 -0.53886708 0 0 Z " fill="#0B2622" transform="translate(161,150)"/>
<path d="M0 0 C0.33 0 0.66 0 1 0 C1 6.27 1 12.54 1 19 C4.465 18.505 4.465 18.505 8 18 C10.19553562 17.92385142 12.39301313 17.8918326 14.58984375 17.90234375 C16.38325195 17.90717773 16.38325195 17.90717773 18.21289062 17.91210938 C19.44201172 17.92048828 20.67113281 17.92886719 21.9375 17.9375 C23.19369141 17.94201172 24.44988281 17.94652344 25.74414062 17.95117188 C28.82947663 17.96290319 31.91471316 17.979319 35 18 C35 17.34 35 16.68 35 16 C35.66 16 36.32 16 37 16 C37 17.32 37 18.64 37 20 C24.79 20 12.58 20 0 20 C0 13.4 0 6.8 0 0 Z " fill="#001D19" transform="translate(96,320)"/>
<path d="M0 0 C1.32 0.33 2.64 0.66 4 1 C4 1.66 4 2.32 4 3 C5.32 3.66 6.64 4.32 8 5 C8 5.66 8 6.32 8 7 C8.66 7 9.32 7 10 7 C10.67119549 8.4562545 11.33681807 9.91507867 12 11.375 C12.556875 12.59316406 12.556875 12.59316406 13.125 13.8359375 C14 16 14 16 14 18 C14.66 18 15.32 18 16 18 C16.48828125 19.98567708 16.9765625 21.97135417 17.46484375 23.95703125 C17.91010705 25.65683202 18.44433985 27.33301954 19 29 C19.06740865 30.56118428 19.08514456 32.1250252 19.0625 33.6875 C19.05347656 34.49574219 19.04445313 35.30398437 19.03515625 36.13671875 C19.02355469 36.75160156 19.01195312 37.36648437 19 38 C17.27919902 34.94948917 16.31154304 31.82310898 15.35107422 28.46557617 C13.06797512 20.52480542 10.52767372 12.24337793 4.3203125 6.42578125 C3 5 3 5 3 2 C2.01 1.67 1.02 1.34 0 1 C0 0.67 0 0.34 0 0 Z " fill="#E0FEF9" transform="translate(493,18)"/>
<path d="M0 0 C0.99 0.33 1.98 0.66 3 1 C0.67065708 2.87850236 -1.66168178 4.74593974 -4.0546875 6.54296875 C-9.4818001 10.64616634 -14.30679832 15.07661404 -19 20 C-19.66 18.68 -20.32 17.36 -21 16 C-20.34 15.34 -19.68 14.68 -19 14 C-18.01 14 -17.02 14 -16 14 C-15.5359375 12.5459375 -15.5359375 12.5459375 -15.0625 11.0625 C-14 8 -14 8 -13 7 C-11.33382885 6.95936168 -9.66611905 6.957279 -8 7 C-7.67 6.01 -7.34 5.02 -7 4 C-6.34 3.01 -5.68 2.02 -5 1 C-2.525 1.495 -2.525 1.495 0 2 C0 1.34 0 0.68 0 0 Z " fill="#9BE2D6" transform="translate(136,156)"/>
<path d="M0 0 C2.65289449 1.08080887 4.16816454 2.17296924 6.1875 4.25 C15.46504044 13.32137287 27.41386938 17.65343328 40 20 C40 20.33 40 20.66 40 21 C38.5629191 21.05422947 37.12524538 21.09289723 35.6875 21.125 C34.48673828 21.15980469 34.48673828 21.15980469 33.26171875 21.1953125 C31 21 31 21 28 19 C26.845 18.731875 25.69 18.46375 24.5 18.1875 C13.19123864 15.40699721 6.5964183 10.70732174 0 1 C0 0.67 0 0.34 0 0 Z " fill="#D7FDF8" transform="translate(16,491)"/>
<path d="M0 0 C10.47764955 9.57956531 13.32147248 21.47438584 16 35 C15.34 35 14.68 35 14 35 C14 34.01 14 33.02 14 32 C13.34 32 12.68 32 12 32 C11.18709249 28.91677396 10.37474556 25.83340049 9.5625 22.75 C9.33240234 21.87730469 9.10230469 21.00460938 8.86523438 20.10546875 C8.64287109 19.26113281 8.42050781 18.41679688 8.19140625 17.546875 C7.98717041 16.77182617 7.78293457 15.99677734 7.57250977 15.19824219 C7.03522409 13.1352485 6.51315644 11.06911271 6 9 C5.01 9 4.02 9 3 9 C2 6 1 3 0 0 Z " fill="#ABF3DF" transform="translate(496,23)"/>
<path d="M0 0 C4.10679316 3.33256166 4.7093211 6.11058716 5.5 11.25 C6.70806976 18.24803703 8.05522353 24.13481208 13.3125 29.25 C14.1478125 30.11625 14.1478125 30.11625 15 31 C14.75 33.25 14.75 33.25 14 35 C11 31.25 11 31.25 11 29 C10.34 29 9.68 29 9 29 C5.84547962 23.13982381 3.3279913 17.46099128 1.578125 11.03125 C1.0553949 8.95638373 1.0553949 8.95638373 0 7 C-0.04022391 4.6670134 -0.04320247 2.33293334 0 0 Z " fill="#ADF1E1" transform="translate(0,453)"/>
<path d="M0 0 C0.495 1.485 0.495 1.485 1 3 C-2.00702845 3.87026229 -4.69022185 4.12856785 -7.81640625 4.1328125 C-9.20351807 4.13571289 -9.20351807 4.13571289 -10.61865234 4.13867188 C-11.59012207 4.13416016 -12.5615918 4.12964844 -13.5625 4.125 C-14.54943848 4.12306641 -15.53637695 4.12113281 -16.55322266 4.11914062 C-23.0748449 4.08039192 -29.52810034 3.86704876 -36 3 C-36 2.34 -36 1.68 -36 1 C-24.12 0.67 -12.24 0.34 0 0 Z " fill="#A4F5E4" transform="translate(275,340)"/>
<path d="M0 0 C0 0.99 0 1.98 0 3 C-1.423125 3.928125 -1.423125 3.928125 -2.875 4.875 C-6.1799975 7.1223983 -6.95626388 8.24254998 -8 12 C-8.66 12 -9.32 12 -10 12 C-10 11.34 -10 10.68 -10 10 C-14.54485493 11.99530217 -17.82040186 14.42341417 -21.38671875 17.79296875 C-23 19 -23 19 -26 19 C-18.86062681 10.86288832 -9.7914091 4.60487062 0 0 Z " fill="#061A18" transform="translate(295,153)"/>
<path d="M0 0 C0.495 1.485 0.495 1.485 1 3 C0.35675781 2.98428955 -0.28648437 2.9685791 -0.94921875 2.95239258 C-14.02399473 2.67611566 -26.25812048 2.85200624 -39 6 C-38 3 -38 3 -35.71484375 1.8515625 C-24.57223535 -1.64352906 -11.5517211 -0.09935978 0 0 Z " fill="#A0E8DA" transform="translate(341,145)"/>
<path d="M0 0 C7.17611347 1.10501747 14.50937142 4.73175606 19.1875 10.375 C19.785625 11.24125 20.38375 12.1075 21 13 C15.50847458 12.38983051 15.50847458 12.38983051 13.125 10.5625 C12 9 12 9 12 7 C10.68 7 9.36 7 8 7 C8 6.34 8 5.68 8 5 C5.03 4.505 5.03 4.505 2 4 C1.67 4.66 1.34 5.32 1 6 C0 1.125 0 1.125 0 0 Z " fill="#9EE8D7" transform="translate(200,186)"/>
<path d="M0 0 C11.48287039 -0.68656923 21.36965722 7.24268654 30 14 C30.76183594 14.51175781 31.52367187 15.02351563 32.30859375 15.55078125 C32.86675781 16.02902344 33.42492187 16.50726562 34 17 C34 17.99 34 18.98 34 20 C33.34 20 32.68 20 32 20 C32 19.34 32 18.68 32 18 C31.34 18 30.68 18 30 18 C30 17.34 30 16.68 30 16 C29.34 16 28.68 16 28 16 C28 15.34 28 14.68 28 14 C27.21625 13.896875 26.4325 13.79375 25.625 13.6875 C23 13 23 13 21 10 C20.01 9.67 19.02 9.34 18 9 C18 8.34 18 7.68 18 7 C17.443125 6.87496094 16.88625 6.74992188 16.3125 6.62109375 C13.78195317 5.94143675 11.42918608 5.0438023 9 4.0625 C8.154375 3.72347656 7.30875 3.38445313 6.4375 3.03515625 C4.24147996 2.10255158 2.11933309 1.09400759 0 0 Z " fill="#AEF2E3" transform="translate(462,3)"/>
<path d="M0 0 C1.31683492 3.95050475 0.20052023 6.7554363 -0.875 10.625 C-2.09917445 15.20920847 -3.22189103 19.63071756 -3.625 24.375 C-4 28 -4 28 -6 30 C-6.32092519 9.24683773 -6.32092519 9.24683773 -2 4 C-1.30419733 2.68163705 -0.62775567 1.35208914 0 0 Z " fill="#04221B" transform="translate(279,215)"/>
<path d="M0 0 C0.99 0.99 1.98 1.98 3 3 C3.66 2.67 4.32 2.34 5 2 C7 4 7 4 7.125 7.125 C7.08375 8.07375 7.0425 9.0225 7 10 C6.34 10 5.68 10 5 10 C5.04125 11.27875 5.0825 12.5575 5.125 13.875 C5.1953125 16.0546875 5.1953125 16.0546875 5 18 C4.34 18.66 3.68 19.32 3 20 C2.49685437 17.22970414 1.99736162 14.4588348 1.5 11.6875 C1.35691406 10.90181641 1.21382813 10.11613281 1.06640625 9.30664062 C0.93105469 8.54931641 0.79570312 7.79199219 0.65625 7.01171875 C0.53056641 6.31522217 0.40488281 5.61872559 0.27539062 4.90112305 C0 3 0 3 0 0 Z " fill="#09201F" transform="translate(375,222)"/>
<path d="M0 0 C-2.49574958 2.59973915 -5.11579701 4.94009252 -7.875 7.25 C-11.9141103 10.73694729 -14.99127415 14.6122748 -18 19 C-18.66 18.34 -19.32 17.68 -20 17 C-19.25 14.5625 -19.25 14.5625 -18 12 C-15.875 11.1875 -15.875 11.1875 -14 11 C-14 10.01 -14 9.02 -14 8 C-13.01 8 -12.02 8 -11 8 C-10.62875 6.8553125 -10.62875 6.8553125 -10.25 5.6875 C-7.97090214 0.78743961 -5.29856334 -0.44154694 0 0 Z " fill="#A0E6D8" transform="translate(283,160)"/>
<path d="M0 0 C11.88 0 23.76 0 36 0 C32.38634742 1.80682629 31.4998145 2.24761735 27.8046875 2.16015625 C27.0103833 2.14855469 26.2160791 2.13695312 25.39770508 2.125 C24.14896606 2.0940625 24.14896606 2.0940625 22.875 2.0625 C16.1592391 1.97068669 9.67254125 2.12491262 3 3 C3 2.34 3 1.68 3 1 C2.01 0.67 1.02 0.34 0 0 Z " fill="#A4F4E4" transform="translate(379,341)"/>
<path d="M0 0 C0.94875 0.350625 1.8975 0.70125 2.875 1.0625 C-0.09297912 3.47398303 -3.10900919 5.79534976 -6.1875 8.0625 C-9.07066302 10.20988418 -11.67883044 12.41248297 -14.125 15.0625 C-13.71182778 10.24215738 -11.74480085 8.15257389 -8.125 5.0625 C-7.465 5.0625 -6.805 5.0625 -6.125 5.0625 C-6.125 4.4025 -6.125 3.7425 -6.125 3.0625 C-5.465 3.0625 -4.805 3.0625 -4.125 3.0625 C-4.455 2.0725 -4.785 1.0825 -5.125 0.0625 C-3.125 -0.9375 -3.125 -0.9375 0 0 Z " fill="#0F2E26" transform="translate(161.125,185.9375)"/>
<path d="M0 0 C9.07846742 -0.18527485 16.71306588 -0.07559962 24 6 C24 6.66 24 7.32 24 8 C20.37723698 7.36683241 17.11855674 6.37831771 13.6875 5.0625 C9.1599119 3.37539061 4.70968453 2.06634367 0 1 C0 0.67 0 0.34 0 0 Z " fill="#D1FDF7" transform="translate(456,0)"/>
<path d="M0 0 C4.10553546 6.1583032 4.33093523 14.71942502 4 22 C3.34 22 2.68 22 2 22 C0.22721394 17.34734108 -0.39048269 13.14914988 -0.6875 8.1875 C-0.73455078 7.50751953 -0.78160156 6.82753906 -0.83007812 6.12695312 C-0.93387964 4.42018395 -0.97259416 2.7097031 -1 1 C-0.67 0.67 -0.34 0.34 0 0 Z " fill="#A2ECDD" transform="translate(374,222)"/>
<path d="M0 0 C1.19564514 4.16049851 0.92052493 8.03847069 0.625 12.3125 C0.58117187 13.04662109 0.53734375 13.78074219 0.4921875 14.53710938 C0.20268306 19.0686581 -0.30066154 23.51356601 -1 28 C-1.33 28 -1.66 28 -2 28 C-2 22.72 -2 17.44 -2 12 C-2.33 12 -2.66 12 -3 12 C-2.88648483 10.18674449 -2.75887039 8.37436643 -2.625 6.5625 C-2.55539062 5.55316406 -2.48578125 4.54382813 -2.4140625 3.50390625 C-2.27742188 2.67761719 -2.14078125 1.85132813 -2 1 C-1.34 0.67 -0.68 0.34 0 0 Z " fill="#9DEAD6" transform="translate(278,228)"/>
<path d="M0 0 C-0.56847656 0.35191406 -1.13695312 0.70382813 -1.72265625 1.06640625 C-9.04780809 5.750101 -14.74525148 11.06373195 -20 18 C-19.43697042 14.05879291 -18.3208055 11.2491277 -16 8 C-15.34 8 -14.68 8 -14 8 C-14 7.34 -14 6.68 -14 6 C-12.68 5.67 -11.36 5.34 -10 5 C-10 4.34 -10 3.68 -10 3 C-9.34 3 -8.68 3 -8 3 C-8 2.34 -8 1.68 -8 1 C-4.85571151 -0.9090323 -3.47925125 -1.04523725 0 0 Z " fill="#05251F" transform="translate(304,189)"/>
<path d="M0 0 C0 0.99 0 1.98 0 3 C-2.31 3 -4.62 3 -7 3 C-7 3.66 -7 4.32 -7 5 C-11.28853694 6.88695626 -15.52761347 8.58192622 -20 10 C-15.91703441 5.39020014 -6.52603985 -3.26301993 0 0 Z " fill="#9BE1D2" transform="translate(314,186)"/>
<path d="M0 0 C-1.43164111 3.65938172 -2.98934296 7.23988068 -4.625 10.8125 C-5.29402344 12.27623047 -5.29402344 12.27623047 -5.9765625 13.76953125 C-6.31429687 14.50558594 -6.65203125 15.24164063 -7 16 C-7.66 16 -8.32 16 -9 16 C-8.97104403 9.61520942 -7.82567784 5.93150842 -3.47265625 1.21484375 C-2 0 -2 0 0 0 Z " fill="#9CE6D8" transform="translate(110,185)"/>
<path d="M0 0 C6.26480445 1.74732641 10.88233868 3.97120279 16 8 C15.01 8.99 14.02 9.98 13 11 C13 10.01 13 9.02 13 8 C12.01 8 11.02 8 10 8 C10 7.34 10 6.68 10 6 C8.9171875 6.0928125 8.9171875 6.0928125 7.8125 6.1875 C4.4158666 5.96105777 2.68003157 5.06745292 0 3 C0 2.01 0 1.02 0 0 Z " fill="#9EE3D4" transform="translate(342,186)"/>
<path d="M0 0 C3.16664666 -0.02940458 6.33325747 -0.04693315 9.5 -0.0625 C10.386875 -0.07087891 11.27375 -0.07925781 12.1875 -0.08789062 C17.55823086 -0.10763596 22.68633663 0.21164107 28 1 C28 1.33 28 1.66 28 2 C18.36315148 2.83602203 9.48005282 3.47750841 0 1 C0 0.67 0 0.34 0 0 Z " fill="#204B42" transform="translate(318,147)"/>
<path d="M0 0 C0.66 0.33 1.32 0.66 2 1 C1.01 2.485 1.01 2.485 0 4 C-0.66 4 -1.32 4 -2 4 C-2.33 5.98 -2.66 7.96 -3 10 C-3.33 9.34 -3.66 8.68 -4 8 C-4.66 8 -5.32 8 -6 8 C-6.4021875 8.86625 -6.4021875 8.86625 -6.8125 9.75 C-8.01719859 12.0325868 -9.40798115 13.9737942 -11 16 C-11.99 15.67 -12.98 15.34 -14 15 C-9.53648711 9.77674023 -4.9255107 4.79077028 0 0 Z " fill="#0B2A25" transform="translate(128,164)"/>
<path d="M0 0 C8.15798611 7.9375 8.15798611 7.9375 9 14 C8.01 14.495 8.01 14.495 7 15 C6.61328125 14.40832031 6.2265625 13.81664062 5.828125 13.20703125 C3.04615051 8.98586699 0.25370649 4.87941928 -3 1 C-2.01 0.67 -1.02 0.34 0 0 Z " fill="#9BE4D4" transform="translate(393,170)"/>
<path d="M0 0 C7.62951555 -0.34855655 13.92444501 -0.0017506 21 3 C20.01 3.495 20.01 3.495 19 4 C18.67 4.66 18.34 5.32 18 6 C16.88625 5.54625 15.7725 5.0925 14.625 4.625 C9.856117 2.8217127 5.01091563 1.87280293 0 1 C0 0.67 0 0.34 0 0 Z " fill="#9CE8D4" transform="translate(346,148)"/>
<path d="M0 0 C1.6266848 0.28211877 3.25132896 0.57602375 4.875 0.875 C5.77992188 1.03742187 6.68484375 1.19984375 7.6171875 1.3671875 C10 2 10 2 12 4 C13.96488831 4.88778692 13.96488831 4.88778692 16.125 5.625 C16.84945313 5.88539063 17.57390625 6.14578125 18.3203125 6.4140625 C18.87460937 6.60742188 19.42890625 6.80078125 20 7 C19.67 7.66 19.34 8.32 19 9 C18.10796875 8.72285156 17.2159375 8.44570312 16.296875 8.16015625 C15.12640625 7.79792969 13.9559375 7.43570312 12.75 7.0625 C11.58984375 6.70285156 10.4296875 6.34320312 9.234375 5.97265625 C6.82910942 5.24933363 4.44345956 4.57457589 2 4 C2 3.34 2 2.68 2 2 C1.34 2 0.68 2 0 2 C0 1.34 0 0.68 0 0 Z " fill="#A0F7E5" transform="translate(454,0)"/>
<path d="M0 0 C0 1.32 0 2.64 0 4 C0.99 4.33 1.98 4.66 3 5 C3 5.66 3 6.32 3 7 C-1.49797113 5.31326082 -5.72886302 3.18326108 -10 1 C-10 0.67 -10 0.34 -10 0 C-6.33694766 -0.74926071 -3.57644848 -1.2380014 0 0 Z " fill="#0C2622" transform="translate(213,186)"/>
<path d="M0 0 C0.66 0.33 1.32 0.66 2 1 C-0.09535983 3.09535983 -1.31927775 3.61158267 -4.0625 4.5625 C-6.76801198 5.39744333 -6.76801198 5.39744333 -9 7 C-10.85287502 7.07226502 -12.70833878 7.0838122 -14.5625 7.0625 C-15.57441406 7.05347656 -16.58632813 7.04445313 -17.62890625 7.03515625 C-18.41136719 7.02355469 -19.19382812 7.01195312 -20 7 C-16.32245309 4.89179187 -12.38929986 3.95766971 -8.3125 2.9375 C-3.79642718 2.13505657 -3.79642718 2.13505657 0 0 Z " fill="#D6FEF9" transform="translate(476,505)"/>
<path d="M0 0 C3.76107556 3.14951856 4.6211545 5.42885116 5.25 10.25 C5.39953125 11.32765625 5.5490625 12.4053125 5.703125 13.515625 C5.80109375 14.33546875 5.8990625 15.1553125 6 16 C1.28217389 10.33860867 -0.28817083 7.4924415 0 0 Z " fill="#A8F8E7" transform="translate(0,453)"/>
<path d="M0 0 C0.185625 0.61875 0.37125 1.2375 0.5625 1.875 C2.71437233 5.05602866 5.37533763 5.19451947 9 6 C8.34 7.32 7.68 8.64 7 10 C5.68 10 4.36 10 3 10 C1.515625 8.25 1.515625 8.25 0.25 6 C-0.17796875 5.2575 -0.6059375 4.515 -1.046875 3.75 C-1.36140625 3.1725 -1.6759375 2.595 -2 2 C-1.34 1.34 -0.68 0.68 0 0 Z " fill="#061D1B" transform="translate(223,196)"/>
<path d="M0 0 C-0.99 0.495 -0.99 0.495 -2 1 C-2.65213292 3.02463255 -2.65213292 3.02463255 -3 5 C-4.32 5 -5.64 5 -7 5 C-7.33 3.68 -7.66 2.36 -8 1 C-9.98 1 -11.96 1 -14 1 C-14 0.67 -14 0.34 -14 0 C-8.97703996 -1.13016601 -5.02125926 -0.77916092 0 0 Z " fill="#96EED6" transform="translate(200,185)"/>
<path d="M0 0 C6.10737442 1.76463072 12.07433507 3.69557475 18 6 C18 6.33 18 6.66 18 7 C11.75655138 7.43058266 9.14098945 6.85574209 4 3 C1.77397385 2.23060319 1.77397385 2.23060319 0 2 C0 1.34 0 0.68 0 0 Z " fill="#082822" transform="translate(206,150)"/>
<path d="M0 0 C-1.58358642 3.16717283 -2.45263699 4.73268318 -5.6875 6.3125 C-6.450625 6.539375 -7.21375 6.76625 -8 7 C-8 6.01 -8 5.02 -8 4 C-8.33 3.01 -8.66 2.02 -9 1 C-5.8035914 -0.06546953 -3.34252724 -0.07427838 0 0 Z " fill="#93E6CF" transform="translate(179,184)"/>
<path d="M0 0 C0.99 0.33 1.98 0.66 3 1 C1.33784732 2.33895632 -0.32963607 3.67130142 -2 5 C-3.0828125 5.86625 -3.0828125 5.86625 -4.1875 6.75 C-6 8 -6 8 -8 8 C-7.38722388 5.03824877 -6.74627478 3.61941217 -5 1 C-3.35 1.33 -1.7 1.66 0 2 C0 1.34 0 0.68 0 0 Z " fill="#99E2D2" transform="translate(136,156)"/>
<path d="M0 0 C1.32 0 2.64 0 4 0 C3.67 0.99 3.34 1.98 3 3 C1.68 3 0.36 3 -1 3 C-1 3.66 -1 4.32 -1 5 C-5.95 6.485 -5.95 6.485 -11 8 C-11 7.34 -11 6.68 -11 6 C-10.28972656 5.65066406 -9.57945312 5.30132812 -8.84765625 4.94140625 C-7.92855469 4.48636719 -7.00945312 4.03132812 -6.0625 3.5625 C-4.68771484 2.88380859 -4.68771484 2.88380859 -3.28515625 2.19140625 C-1.09471096 1.19474606 -1.09471096 1.19474606 0 0 Z " fill="#A2F0DF" transform="translate(156,146)"/>
<path d="M0 0 C2.90628214 1.45314107 3.34494081 3.72315241 4.40234375 6.65625 C5.36727422 10.44029105 5.24212919 14.12593299 5 18 C3.4386041 15.06729118 2.33461101 12.17931727 1.375 9 C1.11460937 8.154375 0.85421875 7.30875 0.5859375 6.4375 C0 4 0 4 0 0 Z " fill="#D0FCF6" transform="translate(507,38)"/>
<path d="M0 0 C3.5742977 0.32493615 5.55712453 0.63870686 8.375 2.9375 C10 5 10 5 10 7 C10.99 7.33 11.98 7.66 13 8 C12.67 8.66 12.34 9.32 12 10 C3.55353075 3.84965831 3.55353075 3.84965831 0 0 Z " fill="#DDFEF9" transform="translate(480,8)"/>
<path d="M0 0 C2.68198764 3.05704132 3.39287197 4.94430655 3.3125 9 C3.30863281 9.845625 3.30476562 10.69125 3.30078125 11.5625 C2.98576274 14.11537729 2.28396996 15.79013935 1 18 C0.6392073 15.18820232 0.2860722 12.37581501 -0.0625 9.5625 C-0.2181543 8.35883789 -0.2181543 8.35883789 -0.37695312 7.13085938 C-0.62644343 5.09192132 -0.81780318 3.04604939 -1 1 C-0.67 0.67 -0.34 0.34 0 0 Z " fill="#092723" transform="translate(236,228)"/>
<path d="M0 0 C3.34373475 0.55728913 6.03312999 1.35173889 9 3 C9.33 2.34 9.66 1.68 10 1 C10.33 1.66 10.66 2.32 11 3 C10.0625 5.625 10.0625 5.625 9 8 C7.68388323 7.04663979 6.37221039 6.08714226 5.0625 5.125 C4.33160156 4.59132812 3.60070312 4.05765625 2.84765625 3.5078125 C1 2 1 2 0 0 Z " fill="#092521" transform="translate(355,192)"/>
<path d="M0 0 C1.34391145 3.72507 0.65810293 6.41088861 -0.3125 10.1875 C-0.70888672 11.78658203 -0.70888672 11.78658203 -1.11328125 13.41796875 C-2 16 -2 16 -4 17 C-4.56131481 10.54487966 -2.63463787 5.84560277 0 0 Z " fill="#9FF7E5" transform="translate(6,40)"/>
<path d="M0 0 C4.85967024 2.50346649 8.27856704 6.08552441 12 10 C11.34 10.66 10.68 11.32 10 12 C8.62437146 10.71034824 7.29233607 9.37310707 6 8 C6 7.34 6 6.68 6 6 C4.68 5.34 3.36 4.68 2 4 C2 3.34 2 2.68 2 2 C1.34 2 0.68 2 0 2 C0 1.34 0 0.68 0 0 Z " fill="#082822" transform="translate(380,163)"/>
<path d="M0 0 C0.886875 0.103125 1.77375 0.20625 2.6875 0.3125 C2.0275 0.9725 1.3675 1.6325 0.6875 2.3125 C-0.3025 2.3125 -1.2925 2.3125 -2.3125 2.3125 C-2.3125 3.9625 -2.3125 5.6125 -2.3125 7.3125 C-2.9725 6.9825 -3.6325 6.6525 -4.3125 6.3125 C-6.42933841 7.20413577 -6.42933841 7.20413577 -8.3125 8.3125 C-8.3125 5.3125 -8.3125 5.3125 -6.1875 2.625 C-3.3125 0.3125 -3.3125 0.3125 0 0 Z " fill="#051516" transform="translate(281.3125,164.6875)"/>
<path d="M0 0 C1.6097168 0.00966797 1.6097168 0.00966797 3.25195312 0.01953125 C4.9312793 0.04466797 4.9312793 0.04466797 6.64453125 0.0703125 C7.77568359 0.07933594 8.90683594 0.08835938 10.07226562 0.09765625 C12.86739953 0.12124388 15.6621097 0.1541595 18.45703125 0.1953125 C18.45703125 0.5253125 18.45703125 0.8553125 18.45703125 1.1953125 C11.19703125 1.1953125 3.93703125 1.1953125 -3.54296875 1.1953125 C-3.54296875 1.8553125 -3.54296875 2.5153125 -3.54296875 3.1953125 C-5.19296875 2.8653125 -6.84296875 2.5353125 -8.54296875 2.1953125 C-5.14399202 -0.07067198 -3.97977702 -0.04211404 0 0 Z " fill="#0B2D26" transform="translate(169.54296875,147.8046875)"/>
<path d="M0 0 C1.06671952 3.20015856 0.94845472 4.88544294 0.5625 8.1875 C0.46066406 9.08855469 0.35882813 9.98960937 0.25390625 10.91796875 C0.12822266 11.94857422 0.12822266 11.94857422 0 13 C-1.32 13.33 -2.64 13.66 -4 14 C-3.00956295 9.16371695 -2.04301154 4.52381127 0 0 Z " fill="#95DCCA" transform="translate(281,213)"/>
<path d="M0 0 C0.33 0.66 0.66 1.32 1 2 C-0.12312966 5.36938898 -1.53174093 6.53174093 -4 9 C-4.33 9.99 -4.66 10.98 -5 12 C-5.66 11.67 -6.32 11.34 -7 11 C-7 7.22089522 -6.00296038 6.53893899 -3.5 3.8125 C-2.8503125 3.09707031 -2.200625 2.38164062 -1.53125 1.64453125 C-1.0259375 1.10183594 -0.520625 0.55914062 0 0 Z " fill="#9AE0D2" transform="translate(293,196)"/>
<path d="M0 0 C3.10398978 -0.08710289 6.20766548 -0.14042309 9.3125 -0.1875 C10.19357422 -0.21263672 11.07464844 -0.23777344 11.98242188 -0.26367188 C13.25375977 -0.27817383 13.25375977 -0.27817383 14.55078125 -0.29296875 C15.72120972 -0.31653442 15.72120972 -0.31653442 16.9152832 -0.34057617 C19 0 19 0 22 3 C14.74 2.34 7.48 1.68 0 1 C0 0.67 0 0.34 0 0 Z " fill="#163F35" transform="translate(322,183)"/>
<path d="M0 0 C2.57075841 3.01447835 3.52207066 5.35979771 4.1875 9.25 C4.34605469 10.14203125 4.50460938 11.0340625 4.66796875 11.953125 C4.83232422 12.96632813 4.83232422 12.96632813 5 14 C3 13 3 13 2 10 C1.34 9.67 0.68 9.34 0 9 C0 6.03 0 3.06 0 0 Z " fill="#DAFEF9" transform="translate(0,460)"/>
<path d="M0 0 C0.66 0.33 1.32 0.66 2 1 C0.61918777 5.1424367 -1.59825558 6.32203099 -5 9 C-5.99 8.34 -6.98 7.68 -8 7 C-5.36 4.69 -2.72 2.38 0 0 Z " fill="#A3F3DF" transform="translate(154,195)"/>
<path d="M0 0 C2.25 0.875 2.25 0.875 4 2 C4 3.98 4 5.96 4 8 C1.36 6.02 -1.28 4.04 -4 2 C-2.68 1.34 -1.36 0.68 0 0 Z " fill="#9AE9D5" transform="translate(383,160)"/>
<path d="M0 0 C0.99 0 1.98 0 3 0 C3.36279456 1.28926992 3.71496698 2.58153272 4.0625 3.875 C4.25972656 4.59429687 4.45695313 5.31359375 4.66015625 6.0546875 C5 8 5 8 4 10 C3.34 10 2.68 10 2 10 C1.34 6.7 0.68 3.4 0 0 Z " fill="#9CE7D8" transform="translate(230,220)"/>
<path d="M0 0 C1.875 0.25 1.875 0.25 4 1 C5.92391865 4.02330073 6.34582912 6.71383558 6.625 10.25 C6.69976562 11.14203125 6.77453125 12.0340625 6.8515625 12.953125 C6.90054687 13.62859375 6.94953125 14.3040625 7 15 C5.32574184 12.48861275 4.13977993 10.24284394 2.9375 7.5 C2.59589844 6.7265625 2.25429688 5.953125 1.90234375 5.15625 C1.19512275 3.46626736 0.57932744 1.73798233 0 0 Z " fill="#0C2E27" transform="translate(368,207)"/>
<path d="M0 0 C0.33 0.66 0.66 1.32 1 2 C1.99 2 2.98 2 4 2 C3.74438677 4.3431213 3.40729228 6.67843403 3 9 C2.01 9.495 2.01 9.495 1 10 C0.63883954 8.5225254 0.28624952 7.04295325 -0.0625 5.5625 C-0.25972656 4.73878906 -0.45695312 3.91507813 -0.66015625 3.06640625 C-0.82837891 2.04353516 -0.82837891 2.04353516 -1 1 C-0.67 0.67 -0.34 0.34 0 0 Z " fill="#9DE8D5" transform="translate(411,202)"/>
<path d="M0 0 C1.15224028 0.92961422 2.29659176 1.8690125 3.4375 2.8125 C4.07558594 3.33457031 4.71367187 3.85664063 5.37109375 4.39453125 C7 6 7 6 8 9 C6.68 9 5.36 9 4 9 C3.71125 8.195625 3.4225 7.39125 3.125 6.5625 C2.26737432 3.8673532 2.26737432 3.8673532 0 3 C0 2.01 0 1.02 0 0 Z " fill="#98DDD1" transform="translate(358,195)"/>
<path d="M0 0 C0.66 0.33 1.32 0.66 2 1 C2 1.66 2 2.32 2 3 C2.66 3 3.32 3 4 3 C4 2.34 4 1.68 4 1 C4.66 1.33 5.32 1.66 6 2 C5.01 4.31 4.02 6.62 3 9 C0.86928411 6.40608501 -0.53582673 4.36525621 -1 1 C-0.67 0.67 -0.34 0.34 0 0 Z " fill="#A2DBCD" transform="translate(254,185)"/>
<path d="M0 0 C0.33 0.66 0.66 1.32 1 2 C-0.21484375 4.8203125 -0.21484375 4.8203125 -1.9375 8.125 C-2.50339844 9.22070312 -3.06929688 10.31640625 -3.65234375 11.4453125 C-4.09707031 12.28835937 -4.54179688 13.13140625 -5 14 C-5.66 14 -6.32 14 -7 14 C-5.53967505 8.68972746 -3.01679014 4.53669968 0 0 Z " fill="#0F332C" transform="translate(113,180)"/>
<path d="M0 0 C0.33 0.99 0.66 1.98 1 3 C0.113125 3.556875 -0.77375 4.11375 -1.6875 4.6875 C-4.84279378 6.77853792 -7.39868111 9.24566235 -10 12 C-10.66 11.67 -11.32 11.34 -12 11 C-10.75323147 9.72599623 -9.5024352 8.45593346 -8.25 7.1875 C-7.55390625 6.47980469 -6.8578125 5.77210938 -6.140625 5.04296875 C-4.18571355 3.17724121 -2.19661447 1.56830358 0 0 Z " fill="#11362F" transform="translate(281,161)"/>
<path d="M0 0 C3.63 0.66 7.26 1.32 11 2 C10.01 2.495 10.01 2.495 9 3 C9 3.66 9 4.32 9 5 C5.7 4.34 2.4 3.68 -1 3 C-0.67 2.01 -0.34 1.02 0 0 Z " fill="#98E4D1" transform="translate(204,147)"/>
<path d="M0 0 C1.62723299 0.45034123 3.25173664 0.91055354 4.875 1.375 C5.77992188 1.63023437 6.68484375 1.88546875 7.6171875 2.1484375 C10 3 10 3 12 5 C8.25 6.125 8.25 6.125 6 5 C6 4.34 6 3.68 6 3 C3.36 2.67 0.72 2.34 -2 2 C-1.34 1.34 -0.68 0.68 0 0 Z " fill="#0C2D26" transform="translate(354,150)"/>
<path d="M0 0 C0.33 0 0.66 0 1 0 C1.10836453 1.43583001 1.18576167 2.8740202 1.25 4.3125 C1.29640625 5.11300781 1.3428125 5.91351563 1.390625 6.73828125 C1 9 1 9 -1.015625 10.79296875 C-1.67046875 11.19128906 -2.3253125 11.58960938 -3 12 C-2.69106068 10.3743193 -2.3777305 8.74947252 -2.0625 7.125 C-1.88847656 6.22007812 -1.71445312 5.31515625 -1.53515625 4.3828125 C-1 2 -1 2 0 0 Z " fill="#A1EEDB" transform="translate(284,207)"/>
<path d="M0 0 C0.66 0 1.32 0 2 0 C1.5206753 4.31392226 0.2542015 6.16569547 -3 9 C-3.33 8.01 -3.66 7.02 -4 6 C-2.1875 2.8125 -2.1875 2.8125 0 0 Z " fill="#9DE2D1" transform="translate(145,204)"/>
<path d="M0 0 C4.29 0 8.58 0 13 0 C13 0.33 13 0.66 13 1 C3.58997722 3.48063781 3.58997722 3.48063781 -1 2 C-0.67 1.34 -0.34 0.68 0 0 Z " fill="#A7F5E0" transform="translate(179,184)"/>
<path d="M0 0 C1.98270912 0.95098266 3.96108379 1.91100703 5.9375 2.875 C7.03964844 3.40867188 8.14179688 3.94234375 9.27734375 4.4921875 C12 6 12 6 13 8 C8.14531215 7.06640618 4.07736659 4.71824439 0 2 C0 1.34 0 0.68 0 0 Z " fill="#0C2F29" transform="translate(367,155)"/>
<path d="M0 0 C-2.74093665 1.8272911 -5.13825324 2.93698178 -8.1875 4.125 C-9.08855469 4.47820312 -9.98960937 4.83140625 -10.91796875 5.1953125 C-11.94857422 5.59363281 -11.94857422 5.59363281 -13 6 C-12.67 5.01 -12.34 4.02 -12 3 C-11.34 3 -10.68 3 -10 3 C-10 2.34 -10 1.68 -10 1 C-6.61981469 -0.04005702 -3.5219721 -0.08004482 0 0 Z " fill="#A3E6DA" transform="translate(301,151)"/>
<path d="M0 0 C-1.65 0.33 -3.3 0.66 -5 1 C-5.33 1.99 -5.66 2.98 -6 4 C-8.31 4 -10.62 4 -13 4 C-11 1 -11 1 -9.1875 0.375 C-8.465625 0.25125 -7.74375 0.1275 -7 0 C-6.13375 -0.20625 -5.2675 -0.4125 -4.375 -0.625 C-2 -1 -2 -1 0 0 Z " fill="#A0F9E7" transform="translate(308,147)"/>
<path d="M0 0 C3.33773709 3.64116773 3.97864902 7.28607242 5 12 C4.34 12 3.68 12 3 12 C3 11.01 3 10.02 3 9 C2.34 9 1.68 9 1 9 C0.67 6.03 0.34 3.06 0 0 Z " fill="#A4F7E8" transform="translate(507,46)"/>
<path d="M0 0 C0.33 0.66 0.66 1.32 1 2 C0.54625 2.86625 0.0925 3.7325 -0.375 4.625 C-2.29348672 8.60954934 -2.62261923 11.6223831 -3 16 C-3.33 16 -3.66 16 -4 16 C-4.05429959 14.25034642 -4.09292823 12.50020213 -4.125 10.75 C-4.15980469 9.28820312 -4.15980469 9.28820312 -4.1953125 7.796875 C-3.99645953 4.94930049 -3.55438946 3.36962868 -2 1 C-1.34 0.67 -0.68 0.34 0 0 Z " fill="#D3FEF9" transform="translate(4,40)"/>
<path d="M0 0 C2.89932357 2.39509338 3.50168276 4.31245243 4 8 C4.66 8 5.32 8 6 8 C6.33 9.32 6.66 10.64 7 12 C5.1875 11.4375 5.1875 11.4375 3 10 C1.21313946 6.49009536 0 3.95875396 0 0 Z " fill="#D8FDF7" transform="translate(5,474)"/>
<path d="M0 0 C2.50037734 2.17424117 3.43628586 3.73045798 4 7 C3.34 7 2.68 7 2 7 C2 8.65 2 10.3 2 12 C1.67 12 1.34 12 1 12 C0.855625 11.21625 0.71125 10.4325 0.5625 9.625 C0.12201075 7.03578982 0.12201075 7.03578982 -1 5 C-0.72057545 3.32345271 -0.39171753 1.65391846 0 0 Z " fill="#0B2520" transform="translate(251,184)"/>
<path d="M0 0 C0.99 0 1.98 0 3 0 C3 0.99 3 1.98 3 3 C3.99 3 4.98 3 6 3 C7.6875 5 7.6875 5 9 7 C5 7 5 7 2.25 4.625 C0 2 0 2 0 0 Z " fill="#A4F0DF" transform="translate(237,164)"/>
<path d="M0 0 C0.99 0 1.98 0 3 0 C2.01 3.96 1.02 7.92 0 12 C-0.33 12 -0.66 12 -1 12 C-1.02712066 10.56260487 -1.04645067 9.12506137 -1.0625 7.6875 C-1.07410156 6.88699219 -1.08570313 6.08648437 -1.09765625 5.26171875 C-1 3 -1 3 0 0 Z " fill="#193F34" transform="translate(137,214)"/>
<path d="M0 0 C0.99 0.33 1.98 0.66 3 1 C3.33 1.99 3.66 2.98 4 4 C2.0625 7.1875 2.0625 7.1875 0 10 C-0.66 9.67 -1.32 9.34 -2 9 C-1.505 7.88625 -1.505 7.88625 -1 6.75 C0.22782871 3.86116688 0.22782871 3.86116688 0 0 Z " fill="#9FF6E0" transform="translate(141,212)"/>
<path d="M0 0 C0.66 0.66 1.32 1.32 2 2 C0.02 4.64 -1.96 7.28 -4 10 C-4.66 9.34 -5.32 8.68 -6 8 C-5.25 5.5625 -5.25 5.5625 -4 3 C-1.875 2.1875 -1.875 2.1875 0 2 C0 1.34 0 0.68 0 0 Z " fill="#99DCCF" transform="translate(269,169)"/>
<path d="M0 0 C1.50433594 0.29197266 1.50433594 0.29197266 3.0390625 0.58984375 C4.19535156 0.82380859 4.19535156 0.82380859 5.375 1.0625 C5.375 1.3925 5.375 1.7225 5.375 2.0625 C3.77120659 2.11666188 2.16688594 2.15536638 0.5625 2.1875 C-0.33082031 2.21070313 -1.22414063 2.23390625 -2.14453125 2.2578125 C-4.625 2.0625 -4.625 2.0625 -7.625 0.0625 C-4.81015955 -1.34492022 -3.05563887 -0.60402164 0 0 Z " fill="#A7F5E5" transform="translate(346.625,145.9375)"/>
<path d="M0 0 C1.65 0 3.3 0 5 0 C4.34 1.32 3.68 2.64 3 4 C1.68 4 0.36 4 -1 4 C-0.67 2.68 -0.34 1.36 0 0 Z " fill="#A0EEDF" transform="translate(123,163)"/>
<path d="M0 0 C2.97 1.65 5.94 3.3 9 5 C9 5.66 9 6.32 9 7 C5.27715732 6.49691315 3.42672659 5.88896023 1 3 C0.34 2.34 -0.32 1.68 -1 1 C-0.67 0.67 -0.34 0.34 0 0 Z " fill="#E5FEFB" transform="translate(471,1)"/>
<path d="M0 0 C0.66 0.33 1.32 0.66 2 1 C0.88213958 4.35358125 -0.74754119 6.31158141 -3 9 C-3.66 8.67 -4.32 8.34 -5 8 C-3.35 5.36 -1.7 2.72 0 0 Z " fill="#0A2A23" transform="translate(266,176)"/>
<path d="M0 0 C0 0.99 0 1.98 0 3 C-3 5 -3 5 -7 5 C-7.33 5.66 -7.66 6.32 -8 7 C-8 6.01 -8 5.02 -8 4 C-5.36 2.68 -2.72 1.36 0 0 Z " fill="#143531" transform="translate(295,153)"/>
<path d="M0 0 C1.95803507 -0.05389087 3.91648909 -0.09274217 5.875 -0.125 C7.51082031 -0.15980469 7.51082031 -0.15980469 9.1796875 -0.1953125 C12 0 12 0 14 2 C10.59598052 3.13732426 8.22543336 2.83989957 4.75 2.0625 C3.85796875 1.86785156 2.9659375 1.67320312 2.046875 1.47265625 C1.37140625 1.31667969 0.6959375 1.16070312 0 1 C0 0.67 0 0.34 0 0 Z " fill="#9ADCCC" transform="translate(346,148)"/>
<path d="M0 0 C-2.70879335 1.35439668 -5.00933268 1.06501451 -8 1 C-4.93251126 -0.86240388 -3.40254489 -1.2151946 0 0 Z M-12 1 C-10.68 1.33 -9.36 1.66 -8 2 C-9.98 2.99 -9.98 2.99 -12 4 C-12 3.01 -12 2.02 -12 1 Z " fill="#9EF7E5" transform="translate(468,507)"/>
<path d="M0 0 C2.4375 0.6875 2.4375 0.6875 5 2 C5.8125 4.625 5.8125 4.625 6 7 C5.01 7.495 5.01 7.495 4 8 C2.68 5.36 1.36 2.72 0 0 Z " fill="#A0ECDD" transform="translate(401,185)"/>
<path d="M0 0 C2.475 0.495 2.475 0.495 5 1 C3.25 4.875 3.25 4.875 1 6 C0.67 4.02 0.34 2.04 0 0 Z " fill="#0A1016" transform="translate(280,200)"/>
<path d="M0 0 C1.98 0.66 3.96 1.32 6 2 C5.01 3.485 5.01 3.485 4 5 C2.68 4.34 1.36 3.68 0 3 C0 2.01 0 1.02 0 0 Z " fill="#95F6DE" transform="translate(336,186)"/>
<path d="M0 0 C2.31 0 4.62 0 7 0 C3.7321794 2.17854707 0.61941735 3.49760034 -3 5 C-3 4.34 -3 3.68 -3 3 C-2.34 3 -1.68 3 -1 3 C-0.67 2.01 -0.34 1.02 0 0 Z " fill="#D7FDF7" transform="translate(37,3)"/>
<path d="M0 0 C2.56687367 3.8503105 1.83288724 5.58569763 1 10 C0.67 10 0.34 10 0 10 C-0.19412181 8.52168779 -0.38012131 7.04230684 -0.5625 5.5625 C-0.66691406 4.73878906 -0.77132813 3.91507813 -0.87890625 3.06640625 C-0.91886719 2.38449219 -0.95882813 1.70257813 -1 1 C-0.67 0.67 -0.34 0.34 0 0 Z " fill="#9BE3D4" transform="translate(374,222)"/>
<path d="M0 0 C2.35953094 2.35953094 2.49141413 3.77895617 3 7 C1.35 6.01 -0.3 5.02 -2 4 C-1.34 2.68 -0.68 1.36 0 0 Z " fill="#90D5C9" transform="translate(229,211)"/>
<path d="M0 0 C1.65 1.65 3.3 3.3 5 5 C4.67 5.99 4.34 6.98 4 8 C3.01 7.67 2.02 7.34 1 7 C0.67 4.69 0.34 2.38 0 0 Z " fill="#92DACA" transform="translate(221,199)"/>
<path d="M0 0 C2.31 0.33 4.62 0.66 7 1 C5.515 2.485 5.515 2.485 4 4 C1.525 3.01 1.525 3.01 -1 2 C-0.67 1.34 -0.34 0.68 0 0 Z " fill="#A1F8E4" transform="translate(314,185)"/>
<path d="M0 0 C0.94875 0.350625 1.8975 0.70125 2.875 1.0625 C0.875 3.0625 0.875 3.0625 -1.75 3.1875 C-2.53375 3.14625 -3.3175 3.105 -4.125 3.0625 C-4.455 2.0725 -4.785 1.0825 -5.125 0.0625 C-3.125 -0.9375 -3.125 -0.9375 0 0 Z " fill="#081F1B" transform="translate(161.125,185.9375)"/>
</svg>
