<?xml version="1.0" standalone="no"?>
<!DOCTYPE svg PUBLIC "-//W3C//DTD SVG 20010904//EN"
 "http://www.w3.org/TR/2001/REC-SVG-20010904/DTD/svg10.dtd">
<svg version="1.0" xmlns="http://www.w3.org/2000/svg"
 width="2048.000000pt" height="512.000000pt" viewBox="0 0 2048.000000 512.000000"
 preserveAspectRatio="xMidYMid meet">

<g transform="translate(0.000000,512.000000) scale(0.100000,-0.100000)"
fill="#000000" stroke="none">
<path d="M0 2560 l0 -2560 10240 0 10240 0 0 2560 0 2560 -10240 0 -10240 0 0
-2560z m2378 1582 c136 -136 181 -186 207 -227 10 -17 23 -35 29 -40 41 -38
165 -239 229 -370 11 -22 26 -52 33 -67 8 -14 14 -36 14 -47 0 -12 5 -21 10
-21 6 0 10 -10 10 -22 0 -13 6 -34 13 -48 21 -40 50 -157 44 -174 -4 -9 -13
-16 -22 -16 -25 0 -116 -50 -110 -60 3 -5 -7 -15 -22 -23 l-27 -15 22 -13 c27
-17 28 -29 2 -29 -12 0 -17 5 -14 13 6 18 -27 18 -44 0 -7 -7 -20 -13 -27 -13
-8 0 -30 -10 -49 -22 -116 -76 -147 -88 -173 -67 -11 10 -12 8 -6 -7 3 -10 11
-23 17 -27 7 -6 4 -7 -6 -4 -9 3 -19 1 -22 -6 -3 -8 -9 -7 -19 5 -12 15 -17
15 -31 5 -21 -16 -78 -10 -70 7 3 6 -1 4 -8 -5 -10 -12 -26 -16 -56 -14 -34 3
-45 -1 -57 -18 -8 -12 -15 -18 -15 -14 0 3 -11 2 -24 -3 -15 -5 -27 -5 -34 2
-8 8 -9 5 -5 -11 3 -13 1 -21 -6 -21 -7 0 -9 5 -6 10 4 6 -5 10 -20 10 -14 0
-28 -6 -31 -13 -2 -7 -14 -13 -24 -14 -11 -1 -18 2 -15 8 4 5 -1 9 -10 9 -18
0 -89 47 -131 85 -30 27 -104 68 -104 57 0 -4 -5 1 -11 11 -6 9 -15 15 -20 11
-6 -3 -13 3 -16 15 -3 11 -9 19 -13 16 -5 -3 -15 2 -23 10 -9 8 -18 15 -21 15
-3 0 -27 22 -55 50 -27 27 -62 52 -78 55 -55 13 -56 13 -49 50 6 31 28 104 67
225 6 19 18 51 26 70 8 19 20 46 25 60 6 14 14 32 19 40 5 8 14 24 19 35 6 11
18 32 28 47 9 14 30 48 46 75 36 60 126 182 184 248 67 76 295 305 304 305 5
0 61 -53 126 -118z m3117 -335 c8 -13 18 -39 21 -58 4 -18 10 -38 14 -44 4 -5
20 -46 35 -90 33 -95 119 -341 205 -585 34 -96 110 -316 168 -489 59 -173 112
-316 118 -318 7 -2 31 58 59 144 27 81 52 155 56 163 4 8 18 51 32 95 45 141
99 299 108 317 5 10 9 23 9 29 0 6 6 25 13 42 8 18 22 57 31 87 10 30 21 64
26 75 5 11 18 47 29 80 11 33 41 119 66 190 26 72 53 150 61 175 8 25 19 54
23 65 5 11 17 43 26 70 10 28 22 56 28 63 7 9 96 12 383 12 l374 0 0 -1185 0
-1185 -250 0 -250 0 0 881 c0 567 -3 878 -10 874 -5 -3 -15 -25 -21 -48 -15
-54 -195 -591 -255 -762 -25 -71 -54 -157 -65 -190 -11 -33 -24 -69 -29 -80
-5 -11 -10 -29 -13 -40 -3 -11 -19 -58 -37 -105 -17 -47 -64 -184 -105 -305
l-74 -220 -212 0 -211 0 -64 185 c-36 102 -73 210 -83 240 -11 30 -40 114 -66
185 -26 72 -66 186 -90 255 -23 69 -82 238 -129 375 -118 339 -143 415 -151
452 -3 17 -13 37 -21 44 -12 10 -14 -105 -14 -865 l0 -876 -252 2 -253 3 -2
1170 c-1 644 0 1176 2 1183 4 9 88 12 379 12 l376 0 15 -23z m3255 -506 c81
-22 107 -33 198 -79 140 -71 281 -218 357 -372 116 -233 137 -585 52 -850 -64
-197 -206 -379 -376 -480 -162 -97 -445 -145 -647 -110 -360 62 -598 279 -708
645 -18 62 -20 96 -21 290 0 178 4 233 18 290 10 39 20 81 23 95 12 53 65 168
110 236 38 57 138 158 199 201 97 69 270 136 395 153 98 13 323 3 400 -19z
m2132 -5 c187 -68 300 -211 352 -442 14 -62 16 -163 16 -733 l0 -661 -260 0
-260 0 0 614 0 614 -24 53 c-27 61 -52 87 -116 120 -37 19 -61 23 -135 24
-164 0 -266 -71 -309 -215 -14 -47 -16 -130 -16 -632 l0 -578 -260 0 -260 0 0
915 0 915 163 0 c89 0 191 3 227 6 36 3 70 1 77 -3 8 -5 15 -54 20 -128 4 -65
13 -120 18 -122 6 -1 23 20 38 47 33 59 71 96 151 150 103 70 197 91 386 85
101 -4 138 -9 192 -29z m3358 10 c25 -9 51 -16 58 -16 15 0 49 -14 151 -63 77
-36 194 -148 228 -217 65 -134 73 -217 76 -855 2 -491 5 -564 19 -595 9 -19
19 -49 22 -67 l5 -32 -212 -3 c-117 -2 -220 -1 -229 1 -22 4 -48 91 -48 159 0
28 -3 53 -8 56 -4 2 -27 -21 -52 -52 -96 -121 -217 -185 -397 -211 -118 -18
-279 -9 -348 18 -188 76 -278 162 -331 317 -40 119 -36 324 9 426 70 158 266
284 537 343 41 9 102 23 135 30 33 7 98 18 145 25 207 28 274 40 282 52 9 14
3 89 -13 149 -11 43 -60 99 -109 125 -29 16 -57 19 -165 19 -84 0 -144 -5
-168 -14 -61 -21 -104 -66 -124 -127 l-17 -54 -239 0 -239 0 6 58 c17 146 82
268 193 363 41 36 162 108 193 116 14 3 30 9 35 13 19 14 124 40 197 50 108
13 353 5 408 -14z m-2150 -281 c80 -161 137 -265 146 -265 8 0 14 5 14 11 0 6
26 57 57 113 31 55 92 169 134 251 l78 150 290 3 c160 1 291 0 291 -2 0 -3
-10 -21 -22 -39 -35 -52 -95 -150 -168 -272 -36 -60 -77 -128 -91 -150 -14
-22 -43 -69 -64 -105 -21 -36 -61 -101 -90 -145 -28 -44 -66 -104 -84 -133
l-32 -53 72 -117 c39 -64 87 -141 105 -169 19 -29 34 -57 34 -63 0 -5 5 -10
10 -10 6 0 10 -4 10 -8 0 -10 135 -237 244 -409 42 -68 79 -130 82 -138 5 -13
-30 -15 -289 -15 l-295 0 -53 98 c-110 207 -185 350 -208 400 -15 31 -31 52
-40 52 -10 0 -28 -26 -48 -67 -17 -38 -69 -135 -114 -218 -45 -82 -95 -176
-111 -207 l-29 -58 -290 0 -291 0 15 22 c9 13 53 83 99 157 46 74 93 148 105
165 12 17 38 59 58 93 19 34 56 92 80 129 25 37 45 68 45 69 0 5 140 226 162
256 l21 28 -25 38 c-14 21 -51 81 -83 133 -31 52 -67 111 -79 130 -13 19 -69
114 -126 210 -100 170 -198 332 -228 378 l-14 22 295 0 296 0 131 -265z
m-11310 170 c47 -3 117 -14 155 -26 127 -38 170 -51 210 -61 51 -12 162 -61
313 -136 32 -16 34 -16 48 2 8 11 14 15 14 9 0 -11 121 -103 135 -103 4 0 48
-34 99 -75 107 -86 270 -260 331 -355 72 -113 103 -164 126 -212 13 -27 27
-48 31 -48 5 0 22 21 38 48 102 167 149 239 178 275 66 82 215 237 269 279 30
24 67 53 81 66 15 12 42 32 60 43 17 11 32 25 32 30 0 6 -4 7 -10 4 -5 -3 -7
0 -4 8 3 10 -4 17 -21 21 -22 6 -25 9 -15 22 10 11 16 12 26 3 9 -7 14 -8 14
-1 0 5 16 13 36 16 19 4 42 10 49 12 9 4 15 -4 17 -23 2 -21 8 -28 23 -26 30
3 95 27 95 35 0 5 6 8 14 8 7 0 54 20 102 45 49 25 95 45 102 45 7 0 34 6 60
14 26 8 76 21 112 31 36 9 88 23 115 30 55 16 265 38 274 30 11 -12 20 -147
20 -310 1 -199 -28 -475 -65 -625 -8 -36 -19 -81 -24 -100 -13 -57 -87 -262
-104 -288 -8 -13 -66 -121 -90 -169 -6 -14 -20 -23 -34 -23 -13 0 -20 -4 -17
-10 3 -5 1 -10 -4 -10 -6 0 -11 7 -11 15 0 14 -21 19 -82 18 -10 0 -18 4 -18
8 0 14 -69 7 -74 -8 -3 -7 -11 -13 -17 -13 -8 0 -8 4 -1 13 8 10 7 13 -6 14
-9 1 -24 3 -32 5 -11 2 -15 -5 -14 -24 0 -16 -2 -28 -5 -28 -15 1 -37 26 -34
38 3 7 -5 13 -19 13 l-23 2 23 4 c29 6 19 23 -14 23 -13 0 -24 5 -24 10 0 6
-7 10 -16 10 -8 0 -13 4 -9 9 10 17 -18 25 -29 9 -9 -12 -14 -13 -23 -3 -7 7
-9 16 -5 21 4 4 2 4 -5 0 -6 -3 -24 5 -39 19 -15 14 -36 25 -46 25 -11 0 -16
5 -13 10 3 6 2 10 -4 10 -5 0 -22 11 -37 25 -32 30 -49 33 -34 6 13 -26 13
-28 -5 -28 -9 0 -14 6 -11 14 3 7 1 13 -4 13 -27 0 -59 -23 -83 -59 -30 -45
-31 -46 -109 -141 -46 -55 -92 -117 -168 -226 -72 -102 -178 -269 -231 -362
-35 -62 -69 -110 -75 -108 -6 2 -17 0 -25 -5 -11 -7 -11 -9 4 -9 20 0 23 -29
4 -54 -14 -19 -48 -19 -54 0 -2 7 2 18 10 25 21 21 20 31 -3 43 -35 18 -110
211 -125 321 -16 117 -22 135 -41 135 -8 0 -14 6 -14 13 -1 7 -6 5 -14 -5 -7
-10 -16 -15 -19 -11 -8 7 -8 4 -10 -46 -3 -45 -18 -49 -42 -9 -10 18 -27 44
-37 58 -10 14 -46 63 -80 110 -70 99 -104 134 -122 127 -7 -3 -21 4 -30 14
-19 23 -43 19 -89 -14 -29 -20 -87 -39 -121 -38 -10 0 -25 -7 -34 -15 -13 -14
-13 -17 -1 -25 13 -8 6 -13 -14 -10 -4 1 -7 -7 -5 -16 2 -12 -4 -19 -19 -21
-13 -2 -23 -7 -23 -11 0 -4 -11 -7 -25 -7 -14 0 -25 4 -25 8 0 13 -28 9 -33
-4 -4 -10 -7 -10 -17 -1 -11 10 -11 15 0 28 11 13 10 14 -4 9 -18 -7 -22 -44
-5 -44 5 0 7 -4 4 -10 -3 -5 3 -10 14 -10 13 0 21 7 21 18 1 16 1 16 11 -1 14
-24 2 -39 -29 -34 -36 5 -63 18 -57 26 2 5 -19 9 -47 10 -28 1 -55 4 -60 7 -5
3 -16 -2 -24 -12 -9 -11 -13 -13 -9 -6 4 8 -1 12 -15 12 -14 0 -19 -4 -15 -12
4 -7 0 -5 -8 4 -8 10 -18 14 -22 10 -4 -4 -5 3 -2 16 3 12 2 20 -2 18 -3 -3
-18 4 -31 15 -15 12 -19 19 -10 18 27 -3 43 1 36 8 -4 4 -15 8 -24 8 -9 1 -29
2 -45 3 -22 2 -29 8 -33 32 -4 16 -10 28 -14 25 -7 -4 -20 18 -81 135 -4 8
-10 22 -13 30 -3 8 -10 22 -15 30 -5 8 -14 29 -21 45 -7 17 -19 44 -26 60 -43
102 -50 122 -77 225 -57 214 -90 618 -68 828 17 169 14 161 58 156 21 -2 76
-6 123 -9z m928 -218 c4 1 9 -1 11 -3 2 -2 -3 -4 -12 -4 -9 0 -21 10 -27 23
-11 21 -11 22 5 2 9 -11 19 -19 23 -18z m1482 -1268 c-16 -5 -19 -7 -7 -8 10
-1 20 -8 23 -16 4 -8 16 -14 28 -14 19 1 19 2 2 6 -13 4 -15 7 -7 13 8 4 23
-2 39 -17 27 -25 115 -56 120 -42 4 8 65 -21 71 -35 2 -4 6 -3 10 3 8 13 51
-14 51 -32 0 -7 -15 -29 -33 -49 -32 -36 -33 -37 -82 -26 -28 5 -54 14 -59 19
-6 5 -18 9 -28 9 -10 0 -18 7 -18 15 0 9 -9 13 -22 12 -13 -1 -24 3 -24 8 -1
6 2 9 7 8 5 -2 9 7 9 20 0 12 -4 18 -8 12 -4 -5 -16 -11 -27 -13 -15 -2 -17
-1 -6 6 7 6 12 15 9 22 -2 7 -14 2 -31 -14 -16 -14 -33 -26 -40 -26 -7 0 -3 7
7 15 19 14 19 15 -7 15 -20 0 -25 4 -20 15 3 9 2 15 -3 14 -22 -5 -64 22 -64
41 0 23 28 27 62 9 12 -7 18 -7 14 -1 -9 15 3 40 22 45 28 6 39 -7 12 -14z
m-80 1 c-8 -5 -19 -10 -25 -10 -5 0 -3 5 5 10 8 5 20 10 25 10 6 0 3 -5 -5
-10z m240 -11 c0 -14 -17 -10 -23 5 -4 10 -1 13 9 9 7 -3 14 -9 14 -14z m37
-45 c-3 -3 -12 -4 -19 -1 -8 3 -5 6 6 6 11 1 17 -2 13 -5z m-2010 -130 c10 3
25 1 33 -4 11 -7 7 -10 -17 -10 -43 0 -63 9 -63 29 1 14 2 14 15 -2 8 -12 21
-17 32 -13z m-137 -8 c0 -11 -19 -15 -25 -6 -3 5 1 10 9 10 9 0 16 -2 16 -4z
m-100 -26 c0 -5 -5 -10 -11 -10 -5 0 -7 5 -4 10 3 6 8 10 11 10 2 0 4 -4 4
-10z m18809 -756 c27 -63 90 -123 156 -151 25 -10 45 -20 45 -23 0 -3 -25 -16
-56 -29 -63 -27 -123 -90 -151 -156 -10 -25 -20 -45 -23 -45 -3 0 -16 25 -29
56 -27 63 -90 123 -156 151 -25 10 -45 20 -45 23 0 3 25 16 56 29 63 27 123
90 151 156 10 25 20 45 23 45 3 0 16 -25 29 -56z"/>
<path d="M8415 2899 c-22 -5 -56 -17 -75 -26 -52 -24 -132 -113 -153 -169 -11
-27 -23 -58 -27 -69 -27 -62 -37 -284 -20 -425 16 -126 46 -205 104 -276 34
-42 97 -84 126 -84 11 0 20 -4 20 -10 0 -16 179 -12 228 5 196 68 273 243 259
585 -6 138 -20 206 -60 290 -23 50 -93 122 -141 147 -75 39 -176 51 -261 32z"/>
<path d="M14200 2279 c-56 -14 -273 -49 -302 -49 -15 0 -30 -4 -33 -10 -3 -5
-13 -10 -21 -10 -26 0 -98 -37 -120 -62 -44 -47 -64 -100 -64 -165 0 -86 30
-137 105 -176 32 -17 58 -21 135 -21 139 0 218 31 299 119 71 79 91 138 91
275 l0 110 -27 -1 c-16 -1 -44 -5 -63 -10z"/>
<path d="M3007 1904 c6 -16 19 -18 27 -5 3 5 -3 11 -13 14 -14 3 -18 1 -14 -9z"/>
<path d="M1544 1711 c4 -5 0 -11 -6 -14 -7 -2 -10 -8 -6 -12 4 -4 11 -4 17 0
14 8 14 35 0 35 -5 0 -8 -4 -5 -9z"/>
<path d="M3291 1704 c0 -11 3 -14 6 -6 3 7 2 16 -1 19 -3 4 -6 -2 -5 -13z"/>
<path d="M1080 1589 c-8 -5 -13 -9 -10 -10 3 0 13 -2 23 -4 9 -2 17 1 17 5 0
15 -15 19 -30 9z"/>
<path d="M1148 1563 c7 -3 16 -2 19 1 4 3 -2 6 -13 5 -11 0 -14 -3 -6 -6z"/>
<path d="M3160 1620 c0 -5 4 -10 9 -10 6 0 13 5 16 10 3 6 -1 10 -9 10 -9 0
-16 -4 -16 -10z"/>
</g>
</svg>
