<?xml version="1.0" standalone="no"?>
<!DOCTYPE svg PUBLIC "-//W3C//DTD SVG 20010904//EN"
 "http://www.w3.org/TR/2001/REC-SVG-20010904/DTD/svg10.dtd">
<svg version="1.0" xmlns="http://www.w3.org/2000/svg"
 width="2048.000000pt" height="512.000000pt" viewBox="0 0 2048.000000 512.000000"
 preserveAspectRatio="xMidYMid meet">

<g transform="translate(0.000000,512.000000) scale(0.100000,-0.100000)"
fill="#000000" stroke="none">
<path d="M6980 3820 l-364 -5 -72 -210 c-39 -115 -90 -264 -114 -330 -23 -66
-53 -151 -65 -190 -13 -38 -56 -162 -95 -275 -39 -113 -86 -252 -106 -310 -19
-58 -38 -114 -43 -125 -5 -11 -17 -49 -28 -85 -29 -96 -42 -90 -85 42 -47 143
-173 507 -273 793 -42 121 -106 301 -140 400 -35 99 -73 206 -85 238 l-21 57
-380 0 -379 0 0 -1180 0 -1180 250 0 250 0 0 873 c0 479 0 879 0 887 0 38 27
-31 133 -345 63 -187 129 -380 147 -430 37 -102 132 -374 257 -737 l86 -248
207 0 208 0 25 78 c14 42 53 156 87 252 126 359 244 703 326 950 47 140 89
264 94 275 9 21 29 89 50 168 12 43 29 64 31 35 0 -7 0 -406 -1 -885 l-1 -873
251 0 250 0 -2 1182 c-3 1043 -5 1183 -18 1183 -8 0 -179 -2 -380 -5z"/>
<path d="M8380 3320 c-76 -8 -191 -35 -219 -51 -9 -5 -40 -18 -70 -29 -201
-77 -385 -295 -450 -535 -54 -200 -54 -498 1 -680 86 -293 298 -507 577 -586
232 -65 514 -41 716 61 238 120 400 348 456 640 17 86 17 378 0 455 -44 209
-114 338 -261 485 -105 105 -154 138 -295 194 -106 42 -301 62 -455 46z m230
-426 c59 -17 120 -56 161 -101 90 -98 134 -310 110 -525 -22 -195 -64 -296
-150 -364 -99 -78 -232 -103 -345 -64 -177 61 -255 218 -256 517 0 272 67 445
199 513 82 41 191 51 281 24z"/>
<path d="M13860 3321 c-238 -27 -457 -142 -556 -291 -50 -75 -78 -154 -89
-252 l-6 -58 239 0 239 0 13 46 c25 88 85 134 205 155 129 22 244 -1 309 -64
51 -49 79 -126 74 -204 l-3 -48 -165 -22 c-446 -61 -609 -107 -766 -219 -82
-59 -140 -124 -172 -192 -22 -50 -26 -73 -30 -194 -4 -119 -1 -146 17 -206 80
-264 305 -391 642 -361 163 14 268 56 372 150 34 31 71 73 82 93 27 51 45 47
45 -10 0 -25 7 -77 17 -115 l16 -69 224 0 223 0 0 29 c0 16 -8 46 -17 67 -16
35 -18 98 -24 629 -7 643 -10 678 -67 805 -60 137 -237 265 -432 313 -76 19
-296 29 -390 18z m430 -1149 c0 -117 -2 -132 -25 -179 -36 -71 -108 -140 -185
-177 -60 -29 -73 -31 -170 -31 -113 0 -146 10 -203 63 -34 32 -59 113 -51 162
10 54 40 113 74 147 41 40 101 59 300 95 91 16 183 33 205 38 22 4 43 8 48 9
4 0 7 -57 7 -127z"/>
<path d="M10450 3305 c-25 -7 -58 -18 -73 -24 -76 -30 -194 -135 -232 -204
-33 -63 -42 -48 -50 88 l-7 125 -239 0 -239 0 0 -915 0 -915 255 0 255 0 0
553 c0 598 4 646 55 732 46 80 126 130 227 144 118 16 239 -27 283 -101 50
-83 49 -65 52 -715 l4 -613 255 0 255 0 -4 678 c-4 721 -4 718 -55 849 -63
163 -175 269 -337 318 -64 19 -339 19 -405 0z"/>
<path d="M11422 3208 c27 -46 131 -218 230 -383 100 -165 200 -330 224 -367
24 -37 44 -71 44 -77 0 -5 -31 -56 -68 -113 -38 -57 -83 -125 -100 -153 -114
-185 -233 -376 -294 -470 -39 -60 -81 -127 -94 -148 l-24 -37 288 0 288 0 35
68 c20 37 58 108 86 157 27 50 76 145 109 213 36 75 64 121 72 120 8 -2 33
-39 56 -83 145 -274 229 -433 238 -452 l11 -23 294 0 c161 0 293 2 293 5 0 3
-16 32 -37 63 -20 31 -119 194 -221 362 -209 346 -278 458 -294 481 -13 19
-12 23 47 114 25 39 75 120 112 180 36 61 92 151 123 200 45 71 236 382 257
418 2 4 -126 7 -286 7 l-290 0 -74 -147 c-41 -82 -96 -186 -121 -233 -26 -47
-54 -102 -64 -123 -9 -21 -22 -36 -29 -35 -10 3 -146 267 -247 481 l-27 57
-294 0 -294 0 51 -82z"/>
<path d="M1526 3112 c-12 -65 -17 -122 -10 -122 4 0 12 7 19 16 6 9 24 17 38
17 15 0 27 3 27 8 0 5 5 9 11 9 5 0 7 -6 3 -12 -5 -10 -4 -10 5 -2 24 22 8 57
-41 85 l-47 28 -5 -27z"/>
<path d="M2927 3114 c-21 -7 -45 -20 -53 -29 -8 -8 -20 -15 -25 -15 -5 0 -9
-8 -9 -19 0 -20 40 -41 75 -39 46 2 64 -3 69 -19 3 -10 3 10 1 45 -7 87 -11
93 -58 76z"/>
<path d="M2765 2970 c2 -3 -9 -7 -25 -7 -16 0 -60 -19 -102 -44 -40 -24 -77
-46 -83 -48 -5 -2 -13 -9 -17 -14 -7 -12 -29 -18 -75 -20 -19 -1 -33 -7 -33
-14 0 -7 -4 -13 -10 -13 -5 0 -7 7 -3 17 6 14 1 15 -43 9 -27 -5 -64 -9 -83
-10 -18 -1 -39 -9 -46 -19 -7 -9 -18 -17 -25 -17 -7 0 -10 -6 -7 -13 3 -9 -6
-11 -34 -9 -21 2 -36 8 -33 13 3 5 0 9 -6 9 -6 0 -10 -8 -8 -17 2 -11 11 -17
21 -15 9 2 17 -2 17 -8 0 -10 -26 -14 -65 -10 -11 1 -43 19 -72 41 -29 21 -57
39 -63 39 -5 0 -10 4 -10 9 0 5 -8 12 -17 15 -10 3 -31 18 -47 33 -22 20 -28
22 -23 9 6 -14 4 -17 -9 -12 -8 3 -21 6 -27 6 -7 0 -30 17 -52 36 l-39 36 -78
-5 c-43 -3 -76 -2 -74 2 3 4 -1 8 -8 8 -23 0 -7 -24 35 -51 21 -14 41 -26 44
-26 3 0 18 -11 33 -24 15 -13 61 -52 102 -88 96 -83 233 -236 293 -327 26 -38
47 -73 47 -76 0 -4 11 -21 24 -38 13 -18 34 -54 47 -80 13 -27 27 -51 31 -53
4 -3 21 17 37 43 118 192 153 244 206 307 89 107 319 331 363 355 26 14 30 51
5 51 -10 1 -35 7 -55 14 -21 8 -36 10 -33 6z m-385 -150 c0 -5 -4 -10 -10 -10
-5 0 -10 5 -10 10 0 6 5 10 10 10 6 0 10 -4 10 -10z m-240 -112 c0 -5 -9 -4
-20 2 -11 6 -20 12 -20 14 0 2 9 2 20 -1 11 -3 20 -9 20 -15z m37 -14 c-3 -3
-12 -4 -19 -1 -8 3 -5 6 6 6 11 1 17 -2 13 -5z m29 -24 c8 0 14 -9 14 -19 0
-11 5 -21 12 -23 9 -3 9 -6 -1 -12 -8 -5 -14 -1 -18 12 -3 11 -16 23 -29 26
-13 4 -24 11 -24 17 0 6 7 8 16 5 9 -3 22 -6 30 -6z"/>
<path d="M2505 2870 c-3 -5 -1 -10 4 -10 6 0 11 5 11 10 0 6 -2 10 -4 10 -3 0
-8 -4 -11 -10z"/>
<path d="M3005 1900 c-3 -5 1 -10 10 -10 9 0 13 5 10 10 -3 6 -8 10 -10 10 -2
0 -7 -4 -10 -10z"/>
<path d="M2958 1866 c-10 -7 -15 -16 -11 -19 3 -4 -3 -7 -15 -7 -12 0 -21 6
-19 12 1 7 -8 14 -20 16 -18 3 -23 -1 -23 -18 0 -12 -4 -18 -10 -15 -5 3 -10
-1 -10 -9 0 -9 -4 -16 -10 -16 -5 0 -10 -5 -10 -10 0 -6 -11 -23 -24 -38 -105
-121 -131 -152 -155 -187 -15 -22 -43 -62 -62 -90 -94 -132 -166 -243 -178
-269 -6 -16 -27 -52 -45 -80 -53 -82 -126 -208 -126 -217 0 -15 178 -10 254 7
95 21 244 63 281 79 67 29 202 95 240 117 149 85 326 224 403 315 47 56 52 69
22 53 -13 -7 -20 -7 -20 -1 0 6 -6 8 -14 5 -8 -3 -35 3 -60 14 -24 11 -47 17
-51 14 -4 -4 -13 2 -21 12 -10 14 -14 16 -14 5 -1 -10 -3 -10 -11 3 -5 10 -16
15 -24 11 -10 -3 -13 -1 -10 9 4 9 0 15 -9 15 -8 0 -13 -4 -11 -8 3 -4 -2 -9
-10 -13 -16 -6 -79 17 -70 26 3 3 -14 9 -37 13 -24 4 -37 9 -30 12 6 3 9 9 6
14 -3 6 0 16 6 24 10 12 9 15 -10 15 -13 0 -20 5 -17 13 2 6 10 12 17 12 22 0
22 22 0 28 -11 3 -20 0 -20 -6 0 -11 -44 -37 -62 -37 -15 0 -8 31 8 37 8 3 13
12 10 19 -3 8 0 14 5 14 6 0 9 -9 6 -20 -3 -13 0 -20 9 -20 8 0 14 6 14 14 0
23 25 25 68 6 37 -17 42 -17 42 -3 0 9 -6 13 -15 10 -8 -4 -17 -2 -20 3 -4 6
0 10 8 10 7 0 14 7 14 15 0 8 -4 15 -8 15 -4 0 -10 7 -13 16 -5 14 -4 15 9 4
9 -8 15 -8 15 -2 0 6 -5 14 -10 17 -6 4 -8 11 -5 16 11 17 -28 9 -41 -8 -12
-16 -13 -14 -4 11 9 24 8 27 -5 23 -8 -4 -18 0 -22 7 -12 20 -56 27 -75 12z
m29 -12 c-3 -3 -12 -4 -19 -1 -8 3 -5 6 6 6 11 1 17 -2 13 -5z m50 -39 c0 -8
-6 -15 -13 -15 -8 0 -11 6 -8 15 4 8 9 15 13 15 4 0 8 -7 8 -15z m-182 -95
c-3 -5 -12 -7 -20 -3 -21 7 -19 13 6 13 11 0 18 -4 14 -10z m70 -30 c3 -5 1
-10 -4 -10 -6 0 -11 5 -11 10 0 6 2 10 4 10 3 0 8 -4 11 -10z"/>
<path d="M3167 1783 c-4 -6 2 -18 13 -28 23 -21 27 -8 7 20 -8 11 -16 14 -20
8z"/>
<path d="M3130 1755 c0 -8 7 -15 16 -15 14 0 14 3 4 15 -7 8 -14 15 -16 15 -2
0 -4 -7 -4 -15z"/>
<path d="M3210 1740 c0 -5 5 -10 10 -10 6 0 10 5 10 10 0 6 -4 10 -10 10 -5 0
-10 -4 -10 -10z"/>
<path d="M3158 1723 c7 -3 16 -2 19 1 4 3 -2 6 -13 5 -11 0 -14 -3 -6 -6z"/>
<path d="M3375 1706 c-11 -6 -22 -12 -25 -14 -9 -6 33 -32 52 -32 10 0 27 -9
38 -20 11 -11 31 -20 44 -20 13 0 32 -3 41 -6 13 -6 14 -9 3 -16 -10 -8 -10
-9 2 -5 15 3 60 62 60 77 0 4 -9 10 -21 13 -16 4 -18 3 -8 -9 9 -11 8 -14 -5
-14 -9 0 -16 6 -16 14 0 18 -63 33 -68 17 -3 -9 -10 -8 -25 2 -35 22 -51 25
-72 13z m40 -35 c-6 -5 -25 10 -25 20 0 5 6 4 14 -3 8 -7 12 -15 11 -17z"/>
<path d="M1562 1675 c-13 -7 -24 -16 -25 -21 -1 -5 -21 -8 -45 -7 -25 1 -40
-2 -37 -7 4 -6 17 -10 30 -10 18 0 23 -4 19 -15 -4 -10 -14 -13 -29 -9 -17 4
-24 0 -28 -15 -3 -12 -1 -21 4 -21 5 0 9 5 9 10 0 6 8 5 20 -2 18 -12 19 -14
4 -25 -9 -6 -13 -17 -9 -23 4 -7 -2 -14 -15 -17 -11 -3 -19 -11 -17 -17 3 -7
-5 -13 -16 -14 -12 0 -27 -9 -34 -18 -12 -16 -13 -16 -13 -1 0 13 -9 15 -55
12 -40 -2 -53 0 -48 8 4 7 -1 6 -10 -2 -9 -7 -17 -10 -17 -5 0 5 -11 14 -25
21 -14 6 -25 8 -25 3 0 -4 -8 -7 -17 -6 -12 1 -17 -6 -16 -19 1 -19 1 -19 -11
-2 -9 11 -20 15 -31 10 -13 -4 -16 -3 -11 5 4 7 14 12 22 12 11 0 13 6 9 21
-7 20 -6 20 19 4 14 -10 26 -16 27 -14 6 31 6 39 -1 39 -5 0 -12 -4 -15 -10
-4 -6 -13 -5 -25 2 -16 10 -22 8 -39 -13 -11 -13 -20 -19 -21 -12 0 7 -9 10
-22 8 -16 -4 -19 -2 -10 7 18 18 14 30 -7 23 -12 -3 -21 0 -25 10 -3 10 -11
13 -18 9 -9 -5 -8 -2 1 10 8 9 10 16 5 15 -5 -1 -12 0 -16 1 -5 1 -14 3 -20 4
-7 1 -12 8 -10 15 1 7 -2 10 -7 7 -5 -4 -11 0 -14 6 -2 7 -7 10 -11 7 -3 -3 3
-14 13 -25 10 -11 24 -30 30 -42 7 -13 16 -20 22 -17 5 4 9 3 8 -2 -4 -16 24
-63 38 -63 8 0 12 -4 9 -9 -6 -9 143 -156 214 -211 24 -19 51 -41 58 -47 7 -7
34 -25 60 -40 26 -15 49 -30 52 -34 17 -23 264 -136 370 -168 173 -54 232 -66
330 -66 81 0 85 1 82 22 -2 12 2 24 8 28 18 11 11 25 -13 25 -22 0 -35 20 -52
80 -4 14 -18 46 -31 71 -13 26 -23 55 -23 65 1 11 -6 38 -15 62 -9 24 -14 48
-11 53 4 5 2 9 -4 9 -5 0 -10 17 -9 38 1 72 -18 105 -63 110 -23 3 -26 0 -27
-33 -1 -20 -5 -43 -10 -51 -8 -13 -12 -11 -28 13 -123 191 -179 253 -231 253
-13 0 -23 3 -23 8 0 4 -18 8 -40 8 -22 1 -40 -2 -40 -6 0 -3 -7 -7 -15 -7 -9
0 -14 6 -11 14 3 7 4 13 3 12 -1 -1 -12 -7 -25 -14z m105 -21 c-3 -3 -12 -4
-19 -1 -8 3 -5 6 6 6 11 1 17 -2 13 -5z m-145 -122 c-6 -2 -12 -10 -12 -17 0
-7 -9 -15 -20 -18 -11 -3 -20 -1 -20 4 0 5 5 9 11 9 6 0 9 6 6 14 -8 19 0 25
26 18 12 -3 16 -7 9 -10z m18 -42 c0 -5 -4 -10 -10 -10 -5 0 -10 5 -10 10 0 6
5 10 10 10 6 0 10 -4 10 -10z"/>
<path d="M3260 1680 c0 -4 9 -10 20 -13 11 -3 20 -2 20 3 0 4 -9 10 -20 13
-11 3 -20 2 -20 -3z"/>
<path d="M3320 1660 c19 -13 30 -13 30 0 0 6 -10 10 -22 10 -19 0 -20 -2 -8
-10z"/>
<path d="M3070 1625 c0 -9 5 -15 11 -13 6 2 11 8 11 13 0 5 -5 11 -11 13 -6 2
-11 -4 -11 -13z"/>
<path d="M1358 1533 c7 -3 16 -2 19 1 4 3 -2 6 -13 5 -11 0 -14 -3 -6 -6z"/>
<path d="M1316 1506 c3 -9 13 -16 22 -16 8 0 13 1 11 3 -2 1 -12 9 -22 16 -15
12 -17 12 -11 -3z"/>
</g>
</svg>
