<svg width="1248" height="215" viewBox="0 0 1248 215" fill="none" xmlns="http://www.w3.org/2000/svg">
<path d="M469.66 0.831055C490.168 0.831055 508.598 5.68114 524.949 15.3809C541.3 24.8035 554.188 37.6909 563.61 54.042C573.033 70.116 577.745 87.8532 577.745 107.253C577.745 126.93 573.033 144.945 563.61 161.296C554.188 177.37 541.162 190.256 524.534 199.956C508.183 209.656 489.891 214.506 469.66 214.506C449.152 214.506 430.722 209.656 414.371 199.956C398.02 190.256 384.994 177.37 375.294 161.296C365.594 144.945 360.744 126.93 360.744 107.253C360.744 87.5762 365.594 69.7009 375.294 53.627C384.994 37.5528 398.02 24.8036 414.371 15.3809C430.722 5.68112 449.152 0.83106 469.66 0.831055ZM1138.78 0.831055C1159.29 0.831129 1177.72 5.54314 1194.07 14.9658C1210.42 24.1114 1223.31 36.7209 1232.73 52.7949C1242.43 68.869 1247.28 87.0218 1247.28 107.253V209.518H1208.2V173.521C1200.94 185.377 1191.24 195.022 1179.1 202.451C1165.8 210.488 1150.28 214.506 1132.54 214.506C1112.87 214.506 1095.27 209.656 1079.75 199.956C1064.51 190.256 1052.45 177.37 1043.58 161.296C1034.71 144.945 1030.28 126.93 1030.28 107.253C1030.28 87.8532 1034.99 70.116 1044.42 54.042C1054.11 37.6909 1067.14 24.8035 1083.49 15.3809C1099.84 5.68099 1118.27 0.831055 1138.78 0.831055ZM253.267 0C273.775 0 290.958 4.57314 304.815 13.7188C318.949 22.8643 329.619 35.1971 336.824 50.7168C344.307 66.2366 348.049 83.4191 348.049 102.265V209.518H306.894V108.916C306.894 96.4448 304.815 84.9434 300.658 74.4121C296.778 63.8808 290.542 55.4279 281.951 49.0537C273.637 42.6796 263.106 39.4923 250.357 39.4922C238.163 39.4922 227.909 42.6796 219.595 49.0537C211.281 55.1507 205.045 63.4649 200.888 73.9961C196.731 84.2503 194.652 95.6137 194.652 108.085V209.518H153.497V108.085C153.497 95.6137 151.418 84.2503 147.261 73.9961C143.381 63.4649 137.145 55.1507 128.554 49.0537C120.24 42.6796 109.708 39.4922 96.96 39.4922C84.2116 39.4922 73.6804 42.6795 65.3662 49.0537C57.3292 55.4279 51.3702 63.8808 47.4902 74.4121C43.6103 84.9434 41.6709 96.4448 41.6709 108.916V209.518H0.515625V102.681C0.515625 83.5581 3.97975 66.2366 10.9082 50.7168C18.1138 35.1971 28.6451 22.8643 42.502 13.7188C56.636 4.57318 73.8187 4.71372e-05 94.0498 0C111.232 0 126.06 3.32523 138.531 9.97656C151.28 16.6279 161.118 25.7742 168.047 37.4141C170.805 41.8693 173.053 46.5892 174.796 51.5723C176.514 46.5891 178.698 41.8694 181.35 37.4141C188.555 25.7742 198.255 16.6279 210.449 9.97656C222.92 3.32542 237.193 5.26198e-05 253.267 0ZM691.468 0.831055C713.916 0.831114 732.622 5.54315 747.588 14.9658C762.831 24.3886 774.332 37.1368 782.092 53.2109C790.129 69.0079 794.147 86.7449 794.147 106.422V209.518H752.992V111.41C752.992 98.6618 750.637 87.0215 745.926 76.4902C741.492 65.6819 734.701 56.9521 725.556 50.3008C716.687 43.6495 705.325 40.3243 691.468 40.3242C678.165 40.3242 667.079 43.6496 658.211 50.3008C649.342 56.9521 642.691 65.5439 638.257 76.0752C633.823 86.6064 631.606 98.2459 631.605 110.994V209.518H590.45V106.838C590.45 86.8838 594.33 69.0079 602.09 53.2109C609.85 37.1369 621.212 24.3886 636.178 14.9658C651.143 5.54306 669.574 0.831055 691.468 0.831055ZM902.58 67.7607C906.737 74.1349 909.786 80.7864 911.726 87.7148C913.666 94.3662 914.636 101.157 914.636 108.085C914.636 115.013 913.666 121.942 911.726 128.87C909.786 135.521 906.737 141.896 902.58 147.993L861.009 209.518H814.449L865.997 132.195C872.094 123.05 875.143 114.875 875.143 107.669C875.143 101.018 872.372 93.396 866.829 84.8047L814.449 5.82031H861.009L902.58 67.7607ZM978.654 84.8047C973.112 93.396 970.341 101.018 970.341 107.669C970.341 114.875 973.389 123.05 979.486 132.195L1031.03 209.518H984.475L942.903 147.993C939.023 141.896 935.975 135.521 933.758 128.87C931.818 121.942 930.848 115.013 930.848 108.085C930.848 101.157 931.818 94.3662 933.758 87.7148C935.975 80.7864 939.023 74.1349 942.903 67.7607L984.059 5.82031H1031.03L978.654 84.8047ZM469.66 39.4922C456.912 39.4922 445.41 42.6795 435.156 49.0537C425.179 55.1508 417.142 63.3269 411.045 73.5811C404.948 83.8351 401.899 95.1978 401.899 107.669C401.899 119.863 404.948 131.226 411.045 141.757C417.142 152.011 425.179 160.187 435.156 166.284C445.41 172.381 456.912 175.43 469.66 175.43C482.408 175.43 493.771 172.381 503.748 166.284C514.002 160.187 522.039 152.011 527.859 141.757C533.679 131.226 536.59 119.863 536.59 107.669C536.59 95.1977 533.679 83.8352 527.859 73.5811C522.039 63.3269 514.002 55.1508 503.748 49.0537C493.771 42.6796 482.408 39.4922 469.66 39.4922ZM1138.78 39.4922C1126.03 39.4922 1114.53 42.6796 1104.28 49.0537C1094.3 55.1508 1086.26 63.3269 1080.17 73.5811C1074.35 83.8352 1071.44 95.1977 1071.44 107.669C1071.44 119.863 1074.35 131.226 1080.17 141.757C1086.26 152.011 1094.3 160.187 1104.28 166.284C1114.53 172.381 1126.03 175.43 1138.78 175.43C1151.53 175.43 1163.03 172.381 1173.29 166.284C1183.54 160.187 1191.58 152.011 1197.4 141.757C1203.22 131.226 1206.13 119.863 1206.13 107.669C1206.13 95.1977 1203.22 83.8352 1197.4 73.5811C1191.58 63.327 1183.54 55.1508 1173.29 49.0537C1163.03 42.6796 1151.53 39.4923 1138.78 39.4922Z" fill="#00231F"/>
</svg>
