<svg version="1.1" id="Layer_1" xmlns="http://www.w3.org/2000/svg" xmlns:xlink="http://www.w3.org/1999/xlink" x="0px" y="0px"
	 width="100%" viewBox="0 0 2048 512" enable-background="new 0 0 2048 512" xml:space="preserve">
<path fill="#FEFEFE" opacity="1.000000" stroke="none" 
	d="
M1458.000000,513.000000 
	C972.000000,513.000000 486.500000,513.000000 1.000000,513.000000 
	C1.000000,342.333344 1.000000,171.666672 1.000000,1.000000 
	C683.666687,1.000000 1366.333374,1.000000 2049.000000,1.000000 
	C2049.000000,171.666672 2049.000000,342.333344 2049.000000,513.000000 
	C1852.166626,513.000000 1655.333374,513.000000 1458.000000,513.000000 
M301.564453,212.148575 
	C301.091309,211.056702 300.618164,209.964844 300.088440,208.011230 
	C299.966431,206.007736 299.844391,204.004227 299.924438,201.232040 
	C299.483521,199.315613 299.227142,197.333344 298.570557,195.493896 
	C295.272644,186.254623 291.870178,177.052643 288.475098,167.071716 
	C284.698975,160.025192 280.922821,152.978653 277.048798,145.225372 
	C273.357758,139.816818 269.666748,134.408249 265.896851,128.319885 
	C253.672409,114.784439 241.437592,101.258331 229.234589,87.703575 
	C227.389572,85.654152 225.835770,85.676643 223.835022,87.629555 
	C219.321899,92.034790 214.252228,95.922958 210.092087,100.625778 
	C201.099075,110.791893 192.535522,121.337906 183.836487,131.746796 
	C183.836487,131.746796 183.824478,131.784653 183.240143,131.986542 
	C182.835587,132.658493 182.431030,133.330444 181.491562,134.403824 
	C177.542877,140.920715 173.594193,147.437607 169.214264,154.433487 
	C168.047531,157.060211 166.880798,159.686935 165.108047,162.640335 
	C164.720459,163.424484 164.332886,164.208618 163.518967,165.529099 
	C162.988052,167.016541 162.457123,168.503983 161.469604,170.538391 
	C159.106537,178.024872 156.743469,185.511337 154.015625,193.723206 
	C153.917709,194.788818 153.819794,195.854446 153.322845,197.543945 
	C152.477676,203.279236 151.632523,209.014526 150.021851,215.019730 
	C148.516678,214.729782 146.945572,214.622925 145.520782,214.109741 
	C142.968582,213.190567 140.504440,212.026855 137.832504,210.752441 
	C137.832504,210.752441 137.562790,210.795074 137.194397,210.211365 
	C135.789093,209.550995 134.383804,208.890625 132.447632,207.935867 
	C131.852402,207.868057 131.257172,207.800232 130.371658,207.108154 
	C129.578369,206.765335 128.785065,206.422516 127.421303,205.684174 
	C126.118965,205.322479 124.816628,204.960785 123.095406,204.022949 
	C107.968430,198.499756 92.890640,192.770676 75.948509,192.263535 
	C73.652519,192.117615 71.356537,191.971695 68.312561,191.445038 
	C67.767540,191.512634 67.222519,191.580246 66.505295,191.136490 
	C65.761826,191.280014 65.018364,191.423538 63.553421,191.279556 
	C62.907764,192.294693 62.262108,193.309830 60.963589,194.694031 
	C60.702225,200.100143 60.440865,205.506271 59.920193,211.830231 
	C59.939243,218.554001 59.958290,225.277786 59.799042,232.893600 
	C59.913898,235.614868 60.028755,238.336121 59.691967,241.678406 
	C60.089417,244.888809 60.486862,248.099228 60.685280,251.848969 
	C60.755859,252.219681 60.826439,252.590408 60.467670,253.629608 
	C61.380051,259.727264 62.292431,265.824951 63.109329,272.691284 
	C63.222916,273.452423 63.336498,274.213593 63.245605,275.814362 
	C64.254013,280.173920 65.262428,284.533447 66.190651,289.614014 
	C66.341026,290.067596 66.491402,290.521179 66.388649,291.626373 
	C67.028336,293.044952 67.668022,294.463531 68.260620,296.612183 
	C68.455956,297.051331 68.651283,297.490509 68.637367,298.582031 
	C69.361145,300.184448 70.084915,301.786865 70.782288,304.075256 
	C70.979507,304.728699 71.176720,305.382172 71.231262,306.760254 
	C72.726601,310.007355 74.221931,313.254425 75.812340,317.296387 
	C76.195343,318.277130 76.578346,319.257843 76.699005,320.258881 
	C76.699005,320.258881 76.805916,320.496490 76.805916,320.496490 
	C76.805916,320.496490 76.999176,320.320770 77.329620,321.066833 
	C77.826912,322.028961 78.324211,322.991058 78.648270,324.478973 
	C79.072174,325.013031 79.496071,325.547119 80.019333,326.757965 
	C80.223991,327.160461 80.428650,327.562958 80.502571,328.498169 
	C80.981812,329.009857 81.461052,329.521545 81.983376,330.700836 
	C82.419930,331.469208 82.856491,332.237610 83.274345,333.608398 
	C83.823616,334.421478 84.372879,335.234528 85.045174,336.505188 
	C85.188591,336.817139 85.428574,337.007019 85.823792,337.800354 
	C88.110153,341.246552 90.396523,344.692719 92.745293,348.876587 
	C98.062134,355.625275 103.378967,362.373932 108.966293,369.752106 
	C115.192696,375.373901 121.419090,380.995728 127.926857,387.188995 
	C136.304688,392.589020 144.682526,397.989014 153.563599,403.817535 
	C153.993744,403.898224 154.423874,403.978912 155.128540,404.644470 
	C156.085663,405.093445 157.042786,405.542389 158.474380,406.430176 
	C159.086899,406.629120 159.699432,406.828064 160.297180,407.400391 
	C160.297180,407.400391 160.580078,407.644348 160.580078,407.644348 
	C160.580078,407.644348 160.944305,407.560852 161.561844,407.991425 
	C172.879318,411.753693 184.196793,415.515961 195.889938,419.857910 
	C196.947250,420.079895 198.004562,420.301849 199.821777,420.905121 
	C204.213882,421.279083 208.605972,421.653046 213.611755,422.450043 
	C215.089432,422.516876 216.567108,422.583679 218.835449,422.943054 
	C220.231781,422.887024 221.628098,422.830994 223.450577,423.325348 
	C224.959625,423.203003 226.468674,423.080688 228.879562,423.079865 
	C246.616776,422.808655 263.868530,419.724365 280.083435,412.536560 
	C290.133392,408.081604 299.613556,402.341156 310.039246,397.202148 
	C313.345764,394.932159 316.652283,392.662201 320.545166,390.388702 
	C321.411896,389.629059 322.278656,388.869415 323.109924,388.100708 
	C323.109924,388.100708 323.142944,388.136963 323.807892,387.981995 
	C330.354706,381.948456 336.901489,375.914917 344.048553,369.510986 
	C346.693359,366.256989 349.338135,363.002991 352.570404,359.595276 
	C353.089539,358.746674 353.608704,357.898071 354.690582,356.696838 
	C357.202026,352.827576 359.713440,348.958282 362.807068,344.758179 
	C365.863098,339.143250 368.919159,333.528320 372.533417,327.674194 
	C372.880646,326.770172 373.227875,325.866180 373.911133,324.378845 
	C373.976044,323.938873 374.040955,323.498932 374.079102,323.137573 
	C374.079102,323.137573 374.158478,323.161987 374.763306,322.869995 
	C375.925751,319.894501 377.088196,316.918976 378.637207,313.322174 
	C378.792023,312.610962 378.946869,311.899780 379.637878,310.729889 
	C380.552429,308.442535 381.776031,306.226959 382.326904,303.855164 
	C384.478882,294.589172 386.417999,285.273773 388.716064,275.324890 
	C388.730072,274.855408 388.744110,274.385925 389.256744,273.369202 
	C390.451294,260.007996 392.105591,246.667297 392.702271,233.279465 
	C393.227234,221.500122 392.616516,209.667221 392.408173,197.859726 
	C392.332794,193.588272 391.137299,190.292496 385.673401,191.203186 
	C375.579468,192.885605 365.415344,194.181732 355.366364,196.090958 
	C338.966431,199.206818 323.591858,205.261658 308.843994,213.034607 
	C306.640045,214.196213 303.949921,214.435349 301.667358,214.306854 
	C301.540344,213.784134 301.413361,213.261398 301.564453,212.148575 
M544.991150,249.637711 
	C558.119202,287.358215 571.284729,325.065796 584.311218,362.821350 
	C585.474792,366.193939 587.114441,367.548706 590.755615,367.461121 
	C601.748413,367.196686 612.750916,367.146820 623.746033,367.291107 
	C627.011719,367.333984 628.439270,366.095367 629.446777,363.144745 
	C637.079651,340.792206 644.935608,318.515778 652.546936,296.156006 
	C663.207214,264.839325 673.724243,233.473831 684.277344,202.120743 
	C685.425415,198.710098 686.407104,195.243484 687.465881,191.802826 
	C687.948303,191.913513 688.430664,192.024200 688.913086,192.134888 
	C688.913086,221.187180 688.913086,250.239487 688.913086,279.291779 
	C688.913086,308.434113 688.913086,337.576447 688.913086,366.921936 
	C705.969910,366.921936 722.485901,366.921936 739.137756,366.921936 
	C739.137756,287.840332 739.137756,209.259476 739.137756,130.090240 
	C737.003601,130.090240 735.219360,130.087341 733.435120,130.090668 
	C711.938110,130.130768 690.439331,130.333542 668.945557,130.088470 
	C664.120300,130.033432 661.977295,131.532471 660.432739,136.081436 
	C644.929443,181.739655 629.196899,227.320023 613.551941,272.930237 
	C611.491638,278.936676 609.561279,284.987671 607.162537,292.254791 
	C606.041260,289.982666 605.458008,289.060364 605.109436,288.056580 
	C595.722656,261.022400 586.385986,233.970779 576.985229,206.941483 
	C568.730652,183.207748 560.406433,159.498245 552.118896,135.775940 
	C550.984314,132.528351 549.862610,129.990051 545.333069,130.044785 
	C522.839233,130.316574 500.340393,130.255371 477.844025,130.151810 
	C474.417908,130.136047 473.286530,131.057846 473.290558,134.658066 
	C473.375397,210.480698 473.330017,286.303467 473.326691,362.126221 
	C473.326599,363.732910 473.521362,365.339569 473.630096,367.021484 
	C490.788361,367.021484 507.499695,367.021484 524.364929,367.021484 
	C524.364929,308.490662 524.364929,250.369690 524.364929,192.248734 
	C524.755798,192.166992 525.146606,192.085236 525.537476,192.003479 
	C531.921875,210.972183 538.306335,229.940872 544.991150,249.637711 
M770.131348,227.540405 
	C758.414124,255.299149 757.194702,283.856079 765.540222,312.469818 
	C772.797546,337.352478 788.605103,355.816010 812.752319,366.017731 
	C831.094604,373.766968 850.216492,375.084839 869.958557,371.538208 
	C898.872314,366.343872 919.433533,350.397369 932.271606,324.494781 
	C943.152527,302.540985 944.371704,278.997803 940.719421,255.228333 
	C936.909912,230.435730 924.703552,210.258926 904.370911,195.485184 
	C886.639771,182.601730 866.252625,178.641235 844.763184,180.091354 
	C811.677673,182.323959 785.982849,196.612228 770.131348,227.540405 
M1398.858765,369.309021 
	C1412.495728,365.179504 1422.519043,356.384766 1430.866821,343.511475 
	C1431.272583,345.904785 1431.542114,347.059875 1431.652832,348.230011 
	C1431.966431,351.542816 1431.966064,354.905273 1432.536743,358.169983 
	C1434.149902,367.398010 1434.366699,367.518463 1443.661011,367.528717 
	C1454.321533,367.540497 1464.982178,367.507935 1475.642700,367.463501 
	C1477.220459,367.456909 1478.797485,367.279327 1480.792725,367.154785 
	C1480.409668,364.251892 1480.129761,361.971588 1479.804688,359.697815 
	C1478.805664,352.711304 1477.005371,345.737183 1476.917603,338.740631 
	C1476.566040,310.760803 1476.924316,282.772339 1476.615234,254.791519 
	C1476.523926,246.528198 1475.382568,238.240372 1474.237183,230.031464 
	C1470.747070,205.015594 1454.548462,191.200699 1431.897827,184.062820 
	C1410.871582,177.436813 1389.327271,177.792923 1368.452393,184.379822 
	C1347.161499,191.098083 1329.701782,202.984848 1323.533813,226.338882 
	C1322.606812,229.848373 1322.460327,233.559814 1321.605347,237.093750 
	C1320.851807,240.208206 1321.735962,241.414322 1324.940186,241.404739 
	C1338.931885,241.362900 1352.925293,241.508743 1366.913940,241.302032 
	C1368.219971,241.282730 1370.340698,239.457962 1370.641479,238.141922 
	C1371.980103,232.286285 1374.690308,227.472076 1380.145020,224.837219 
	C1391.823486,219.196075 1404.051514,219.181717 1416.004272,223.328690 
	C1426.747192,227.055969 1429.072021,236.464874 1429.616577,246.678528 
	C1429.821167,250.514114 1429.024902,252.242859 1424.758789,252.828369 
	C1409.123413,254.974213 1393.513428,257.370605 1377.971680,260.113892 
	C1361.435669,263.032684 1345.746094,268.217499 1332.366577,278.972778 
	C1325.179565,284.750214 1319.089722,291.452637 1317.264404,300.622345 
	C1315.784424,308.056732 1314.814941,315.823425 1315.224365,323.355499 
	C1316.093994,339.353577 1322.249268,353.155151 1335.957642,362.438934 
	C1355.351929,375.573395 1376.378174,375.889618 1398.858765,369.309021 
M1074.182007,316.500000 
	C1074.182007,333.277496 1074.182007,350.054993 1074.182007,367.178467 
	C1091.783569,367.178467 1108.688110,367.178467 1126.056641,367.178467 
	C1126.056641,365.247559 1126.056885,363.613434 1126.056641,361.979340 
	C1126.049316,325.481689 1126.238647,288.982269 1125.905029,252.487610 
	C1125.814575,242.578506 1124.888794,232.542130 1123.035034,222.814056 
	C1119.844727,206.071182 1110.523682,193.413086 1095.147705,185.427521 
	C1083.166260,179.204849 1070.306152,179.803680 1057.516357,180.435501 
	C1038.253540,181.387100 1023.748352,190.417831 1014.131592,207.212982 
	C1013.801147,207.790085 1012.990295,208.092072 1011.726807,209.018311 
	C1011.042786,200.163315 1010.412659,192.006195 1009.774597,183.746582 
	C993.414795,183.746582 977.677246,183.746582 961.894348,183.746582 
	C961.894348,245.030273 961.894348,305.962585 961.894348,367.200989 
	C963.713806,367.283966 965.182251,367.405487 966.650879,367.409393 
	C980.149963,367.445282 993.653809,367.263580 1007.145691,367.586884 
	C1012.009094,367.703430 1013.645569,366.642822 1013.620239,361.332153 
	C1013.454041,326.502747 1013.523071,291.669556 1013.881653,256.841370 
	C1014.091248,236.488327 1027.392578,223.759384 1047.368530,223.968048 
	C1060.083740,224.100861 1068.316040,229.669434 1072.136597,241.366409 
	C1073.394043,245.216110 1073.982056,249.442322 1074.022827,253.504944 
	C1074.230713,274.168427 1074.158691,294.834717 1074.182007,316.500000 
M1169.293701,311.728882 
	C1157.819092,330.075989 1146.344482,348.423096 1134.546509,367.287323 
	C1153.773438,367.287323 1172.067261,367.353027 1190.358154,367.152344 
	C1191.702026,367.137604 1193.555420,365.479828 1194.276855,364.113373 
	C1202.968506,347.649963 1211.470581,331.086578 1220.102661,314.591370 
	C1220.708618,313.433533 1221.950439,312.608429 1222.896606,311.628601 
	C1223.742554,312.545197 1224.834106,313.331909 1225.397705,314.397827 
	C1234.029175,330.725098 1242.646118,347.060608 1251.119141,363.470367 
	C1252.596436,366.331665 1254.328735,367.536346 1257.675293,367.502899 
	C1274.673096,367.333008 1291.673584,367.439819 1308.673218,367.416504 
	C1309.765137,367.415009 1310.856689,367.134277 1312.248413,366.942017 
	C1311.748535,365.837402 1311.488770,365.055511 1311.071045,364.369934 
	C1293.498901,335.526489 1275.969604,306.656494 1258.238647,277.910919 
	C1256.487183,275.071320 1256.386841,273.226562 1258.140625,270.414185 
	C1275.295288,242.906860 1292.300049,215.306030 1309.326538,187.718903 
	C1310.041260,186.560684 1310.550659,185.275787 1311.399414,183.556488 
	C1293.776367,183.556488 1276.971069,183.783554 1260.178223,183.425064 
	C1254.789917,183.310028 1252.039795,184.871384 1249.609619,189.884079 
	C1241.801270,205.990372 1233.279663,221.750870 1224.489868,238.691544 
	C1223.193726,236.552765 1222.303345,235.305344 1221.636108,233.948135 
	C1214.074097,218.567627 1206.463379,203.209930 1199.079468,187.744080 
	C1197.593872,184.632523 1195.868774,183.362366 1192.319946,183.398468 
	C1175.322510,183.571442 1158.321899,183.445679 1141.322510,183.460983 
	C1140.248535,183.461945 1139.174805,183.759033 1137.720215,183.974838 
	C1140.197510,188.074646 1142.412720,191.769165 1144.655029,195.447205 
	C1160.070068,220.732239 1175.471680,246.025635 1190.939453,271.278442 
	C1192.484863,273.801422 1192.809692,275.763031 1190.966431,278.494354 
	C1183.704590,289.255157 1176.750854,300.223877 1169.293701,311.728882 
z"/>
<path fill="#454444" opacity="1.000000" stroke="none" 
	d="
M544.840942,249.273636 
	C538.306335,229.940872 531.921875,210.972183 525.537476,192.003479 
	C525.146606,192.085236 524.755798,192.166992 524.364929,192.248734 
	C524.364929,250.369690 524.364929,308.490662 524.364929,367.021484 
	C507.499695,367.021484 490.788361,367.021484 473.630096,367.021484 
	C473.521362,365.339569 473.326599,363.732910 473.326691,362.126221 
	C473.330017,286.303467 473.375397,210.480698 473.290558,134.658066 
	C473.286530,131.057846 474.417908,130.136047 477.844025,130.151810 
	C500.340393,130.255371 522.839233,130.316574 545.333069,130.044785 
	C549.862610,129.990051 550.984314,132.528351 552.118896,135.775940 
	C560.406433,159.498245 568.730652,183.207748 576.985229,206.941483 
	C586.385986,233.970779 595.722656,261.022400 605.109436,288.056580 
	C605.458008,289.060364 606.041260,289.982666 607.162537,292.254791 
	C609.561279,284.987671 611.491638,278.936676 613.551941,272.930237 
	C629.196899,227.320023 644.929443,181.739655 660.432739,136.081436 
	C661.977295,131.532471 664.120300,130.033432 668.945557,130.088470 
	C690.439331,130.333542 711.938110,130.130768 733.435120,130.090668 
	C735.219360,130.087341 737.003601,130.090240 739.137756,130.090240 
	C739.137756,209.259476 739.137756,287.840332 739.137756,366.921936 
	C722.485901,366.921936 705.969910,366.921936 688.913086,366.921936 
	C688.913086,337.576447 688.913086,308.434113 688.913086,279.291779 
	C688.913086,250.239487 688.913086,221.187180 688.913086,192.134888 
	C688.430664,192.024200 687.948303,191.913513 687.465881,191.802826 
	C686.407104,195.243484 685.425415,198.710098 684.277344,202.120743 
	C673.724243,233.473831 663.207214,264.839325 652.546936,296.156006 
	C644.935608,318.515778 637.079651,340.792206 629.446777,363.144745 
	C628.439270,366.095367 627.011719,367.333984 623.746033,367.291107 
	C612.750916,367.146820 601.748413,367.196686 590.755615,367.461121 
	C587.114441,367.548706 585.474792,366.193939 584.311218,362.821350 
	C571.284729,325.065796 558.119202,287.358215 544.840942,249.273636 
z"/>
<path fill="#454544" opacity="1.000000" stroke="none" 
	d="
M770.271851,227.193527 
	C785.982849,196.612228 811.677673,182.323959 844.763184,180.091354 
	C866.252625,178.641235 886.639771,182.601730 904.370911,195.485184 
	C924.703552,210.258926 936.909912,230.435730 940.719421,255.228333 
	C944.371704,278.997803 943.152527,302.540985 932.271606,324.494781 
	C919.433533,350.397369 898.872314,366.343872 869.958557,371.538208 
	C850.216492,375.084839 831.094604,373.766968 812.752319,366.017731 
	C788.605103,355.816010 772.797546,337.352478 765.540222,312.469818 
	C757.194702,283.856079 758.414124,255.299149 770.271851,227.193527 
M880.876587,237.682205 
	C876.740234,231.630051 871.556213,226.484283 864.441223,224.610107 
	C839.160828,217.951050 821.280029,227.331375 816.279419,253.864212 
	C813.556763,268.310577 813.403931,283.082855 815.948181,297.601105 
	C819.528992,318.033417 829.989746,331.604614 853.723145,330.165466 
	C866.412598,329.395996 876.725586,323.692810 882.673218,311.335693 
	C886.765320,302.833923 888.067810,293.897186 888.687439,284.797821 
	C889.778992,268.769012 889.468750,252.864868 880.876587,237.682205 
z"/>
<path fill="#464545" opacity="1.000000" stroke="none" 
	d="
M1398.471069,369.413147 
	C1376.378174,375.889618 1355.351929,375.573395 1335.957642,362.438934 
	C1322.249268,353.155151 1316.093994,339.353577 1315.224365,323.355499 
	C1314.814941,315.823425 1315.784424,308.056732 1317.264404,300.622345 
	C1319.089722,291.452637 1325.179565,284.750214 1332.366577,278.972778 
	C1345.746094,268.217499 1361.435669,263.032684 1377.971680,260.113892 
	C1393.513428,257.370605 1409.123413,254.974213 1424.758789,252.828369 
	C1429.024902,252.242859 1429.821167,250.514114 1429.616577,246.678528 
	C1429.072021,236.464874 1426.747192,227.055969 1416.004272,223.328690 
	C1404.051514,219.181717 1391.823486,219.196075 1380.145020,224.837219 
	C1374.690308,227.472076 1371.980103,232.286285 1370.641479,238.141922 
	C1370.340698,239.457962 1368.219971,241.282730 1366.913940,241.302032 
	C1352.925293,241.508743 1338.931885,241.362900 1324.940186,241.404739 
	C1321.735962,241.414322 1320.851807,240.208206 1321.605347,237.093750 
	C1322.460327,233.559814 1322.606812,229.848373 1323.533813,226.338882 
	C1329.701782,202.984848 1347.161499,191.098083 1368.452393,184.379822 
	C1389.327271,177.792923 1410.871582,177.436813 1431.897827,184.062820 
	C1454.548462,191.200699 1470.747070,205.015594 1474.237183,230.031464 
	C1475.382568,238.240372 1476.523926,246.528198 1476.615234,254.791519 
	C1476.924316,282.772339 1476.566040,310.760803 1476.917603,338.740631 
	C1477.005371,345.737183 1478.805664,352.711304 1479.804688,359.697815 
	C1480.129761,361.971588 1480.409668,364.251892 1480.792725,367.154785 
	C1478.797485,367.279327 1477.220459,367.456909 1475.642700,367.463501 
	C1464.982178,367.507935 1454.321533,367.540497 1443.661011,367.528717 
	C1434.366699,367.518463 1434.149902,367.398010 1432.536743,358.169983 
	C1431.966064,354.905273 1431.966431,351.542816 1431.652832,348.230011 
	C1431.542114,347.059875 1431.272583,345.904785 1430.866821,343.511475 
	C1422.519043,356.384766 1412.495728,365.179504 1398.471069,369.413147 
M1369.797485,325.506775 
	C1376.620972,335.738708 1392.985840,337.022919 1404.021851,333.021088 
	C1429.710327,323.706085 1432.173340,305.987000 1429.406250,283.622559 
	C1414.754150,286.382477 1400.056152,288.826202 1385.511597,291.978210 
	C1369.614014,295.423431 1362.667358,310.093231 1369.797485,325.506775 
z"/>
<path fill="#454444" opacity="1.000000" stroke="none" 
	d="
M1074.183350,316.000000 
	C1074.158691,294.834717 1074.230713,274.168427 1074.022827,253.504944 
	C1073.982056,249.442322 1073.394043,245.216110 1072.136597,241.366409 
	C1068.316040,229.669434 1060.083740,224.100861 1047.368530,223.968048 
	C1027.392578,223.759384 1014.091248,236.488327 1013.881653,256.841370 
	C1013.523071,291.669556 1013.454041,326.502747 1013.620239,361.332153 
	C1013.645569,366.642822 1012.009094,367.703430 1007.145691,367.586884 
	C993.653809,367.263580 980.149963,367.445282 966.650879,367.409393 
	C965.182251,367.405487 963.713806,367.283966 961.894348,367.200989 
	C961.894348,305.962585 961.894348,245.030273 961.894348,183.746582 
	C977.677246,183.746582 993.414795,183.746582 1009.774597,183.746582 
	C1010.412659,192.006195 1011.042786,200.163315 1011.726807,209.018311 
	C1012.990295,208.092072 1013.801147,207.790085 1014.131592,207.212982 
	C1023.748352,190.417831 1038.253540,181.387100 1057.516357,180.435501 
	C1070.306152,179.803680 1083.166260,179.204849 1095.147705,185.427521 
	C1110.523682,193.413086 1119.844727,206.071182 1123.035034,222.814056 
	C1124.888794,232.542130 1125.814575,242.578506 1125.905029,252.487610 
	C1126.238647,288.982269 1126.049316,325.481689 1126.056641,361.979340 
	C1126.056885,363.613434 1126.056641,365.247559 1126.056641,367.178467 
	C1108.688110,367.178467 1091.783569,367.178467 1074.182007,367.178467 
	C1074.182007,350.054993 1074.182007,333.277496 1074.183350,316.000000 
z"/>
<path fill="#454444" opacity="1.000000" stroke="none" 
	d="
M1169.488281,311.422119 
	C1176.750854,300.223877 1183.704590,289.255157 1190.966431,278.494354 
	C1192.809692,275.763031 1192.484863,273.801422 1190.939453,271.278442 
	C1175.471680,246.025635 1160.070068,220.732239 1144.655029,195.447205 
	C1142.412720,191.769165 1140.197510,188.074646 1137.720215,183.974838 
	C1139.174805,183.759033 1140.248535,183.461945 1141.322510,183.460983 
	C1158.321899,183.445679 1175.322510,183.571442 1192.319946,183.398468 
	C1195.868774,183.362366 1197.593872,184.632523 1199.079468,187.744080 
	C1206.463379,203.209930 1214.074097,218.567627 1221.636108,233.948135 
	C1222.303345,235.305344 1223.193726,236.552765 1224.489868,238.691544 
	C1233.279663,221.750870 1241.801270,205.990372 1249.609619,189.884079 
	C1252.039795,184.871384 1254.789917,183.310028 1260.178223,183.425064 
	C1276.971069,183.783554 1293.776367,183.556488 1311.399414,183.556488 
	C1310.550659,185.275787 1310.041260,186.560684 1309.326538,187.718903 
	C1292.300049,215.306030 1275.295288,242.906860 1258.140625,270.414185 
	C1256.386841,273.226562 1256.487183,275.071320 1258.238647,277.910919 
	C1275.969604,306.656494 1293.498901,335.526489 1311.071045,364.369934 
	C1311.488770,365.055511 1311.748535,365.837402 1312.248413,366.942017 
	C1310.856689,367.134277 1309.765137,367.415009 1308.673218,367.416504 
	C1291.673584,367.439819 1274.673096,367.333008 1257.675293,367.502899 
	C1254.328735,367.536346 1252.596436,366.331665 1251.119141,363.470367 
	C1242.646118,347.060608 1234.029175,330.725098 1225.397705,314.397827 
	C1224.834106,313.331909 1223.742554,312.545197 1222.896606,311.628601 
	C1221.950439,312.608429 1220.708618,313.433533 1220.102661,314.591370 
	C1211.470581,331.086578 1202.968506,347.649963 1194.276855,364.113373 
	C1193.555420,365.479828 1191.702026,367.137604 1190.358154,367.152344 
	C1172.067261,367.353027 1153.773438,367.287323 1134.546509,367.287323 
	C1146.344482,348.423096 1157.819092,330.075989 1169.488281,311.422119 
z"/>
<path fill="#6FB054" opacity="1.000000" stroke="none" 
	d="
M60.143612,241.057388 
	C60.028755,238.336121 59.913898,235.614868 60.265736,232.453995 
	C61.504692,232.255569 62.656075,232.255783 62.987495,232.777191 
	C65.087799,236.081543 67.957169,236.278717 71.179749,234.996826 
	C75.300575,233.357605 79.955170,232.588242 82.210213,227.871933 
	C82.615349,227.024628 84.309425,226.325302 85.391106,226.348953 
	C90.754646,226.466141 96.122665,226.734680 101.465057,227.216537 
	C102.825104,227.339203 104.294388,228.204529 105.375175,229.125595 
	C109.657837,232.775360 113.448463,233.111115 118.356476,230.141724 
	C119.599075,229.389938 120.980461,228.845123 122.340538,228.313950 
	C127.402946,226.336884 133.208923,225.357040 137.356750,222.194336 
	C141.692459,218.888351 146.133789,217.673706 151.325714,216.970703 
	C151.548630,216.982529 151.996384,217.010422 152.049789,217.353668 
	C153.066269,218.132050 154.029343,218.567169 155.280930,219.137741 
	C156.713150,220.183517 157.856888,221.093842 159.053162,222.348312 
	C160.070709,223.125977 161.035721,223.559494 162.000671,223.996201 
	C162.000610,223.999390 162.007156,223.997406 162.046631,224.321579 
	C162.740311,225.085800 163.394501,225.525848 164.286514,225.972305 
	C164.524338,225.978699 164.999283,226.007339 165.038757,226.363205 
	C166.387909,227.476898 167.697617,228.234726 169.252960,229.001648 
	C169.498611,229.010727 169.989563,229.036224 170.028427,229.379547 
	C171.177399,230.885117 172.270370,232.064362 173.401443,233.205856 
	C175.374817,235.197403 178.709808,236.382996 177.223938,240.348602 
	C176.992477,240.966370 177.903931,242.094315 178.423660,242.897873 
	C181.094299,247.026947 180.230225,251.437088 176.216476,254.490616 
	C175.069321,255.363297 173.312408,256.457336 173.241226,257.542145 
	C172.953140,261.932343 170.039520,261.770874 166.931046,262.071472 
	C164.304489,262.325439 161.738113,263.201477 158.222916,264.015839 
	C159.865417,265.794891 160.810822,266.494690 161.284744,267.432678 
	C161.678497,268.212006 161.910141,269.563293 161.492493,270.125092 
	C161.072144,270.690491 159.351532,271.082764 158.907349,270.709656 
	C155.745117,268.053467 153.632126,269.653778 151.292542,271.981537 
	C150.504745,272.765381 148.870804,272.760162 147.600525,272.985596 
	C144.447678,273.545227 141.281540,274.029938 137.389648,274.663818 
	C138.857986,276.763092 139.807373,278.120453 140.611343,279.269867 
	C138.824722,283.055817 136.137650,283.248474 132.863007,281.690125 
	C130.152084,279.251862 127.576950,277.125916 124.999725,274.667786 
	C124.994598,273.892639 124.991562,273.449677 124.958511,272.665710 
	C123.952187,271.551025 122.975891,270.777344 121.999802,270.001831 
	C122.000000,270.000000 121.996643,270.000000 121.861984,269.689880 
	C116.221725,262.386627 110.706093,255.401321 105.213791,248.397720 
	C101.006325,243.032501 95.610313,243.273849 91.981247,249.015717 
	C89.544281,252.871460 83.127022,256.170349 80.185944,255.079224 
	C72.111382,252.083588 71.292763,252.345566 66.510208,259.363770 
	C66.373466,259.564423 65.918335,259.548126 65.611847,259.626038 
	C64.422958,258.422211 63.233875,257.225342 62.027740,255.677628 
	C61.639462,254.538223 61.268238,253.749680 60.897018,252.961121 
	C60.826439,252.590408 60.755859,252.219681 60.829273,251.106659 
	C60.696712,247.262024 60.420162,244.159714 60.143612,241.057388 
z"/>
<path fill="#65AC54" opacity="1.000000" stroke="none" 
	d="
M388.758148,273.916443 
	C388.744110,274.385925 388.730072,274.855408 388.262573,275.784637 
	C386.875641,279.494629 385.942169,282.744873 384.662231,286.028870 
	C383.688385,286.271637 382.826294,286.856323 382.468933,286.633118 
	C377.445984,283.495148 372.489014,280.251343 367.521820,277.024323 
	C364.469421,275.041229 361.637421,272.529785 358.330139,271.172760 
	C353.462402,269.175385 347.672272,268.934387 343.347900,266.229797 
	C338.034790,262.906860 335.111481,264.922729 331.949127,268.569153 
	C327.318207,273.908905 322.639954,279.214447 318.202972,284.712982 
	C315.580994,287.962280 313.385162,291.555420 310.728088,295.189392 
	C307.639435,298.257416 304.820343,301.129944 301.602234,304.002136 
	C298.966675,304.073730 295.531250,305.100372 294.698242,304.054413 
	C290.817078,299.180969 286.209808,299.666199 281.175262,300.926910 
	C280.759705,301.030914 280.240356,300.720490 280.548248,300.797516 
	C279.063751,298.846802 277.914246,297.477112 276.929199,295.997925 
	C276.122223,294.786041 275.295685,293.513458 274.853088,292.146301 
	C273.477509,287.897186 272.280579,283.590271 271.014343,279.305786 
	C264.729309,279.121124 267.634460,275.602814 269.024323,272.770050 
	C266.516235,271.297760 264.288971,269.990326 261.704010,268.472900 
	C264.890564,264.418243 264.902252,260.959412 261.303864,257.595856 
	C260.580566,256.919769 260.685944,254.996948 260.911072,253.738724 
	C261.440216,250.781601 262.272705,247.878784 263.086853,244.741302 
	C263.382751,244.260834 263.635406,244.077240 264.311554,243.981369 
	C265.439117,243.302689 266.204346,242.620544 267.114624,241.635986 
	C270.503784,238.216064 273.747894,235.098557 277.314209,231.963226 
	C278.414795,231.291687 279.193207,230.637970 279.979492,229.987793 
	C279.987335,229.991318 279.983673,229.966599 280.334106,229.939835 
	C283.116608,228.596237 285.548706,227.279419 287.987732,226.398254 
	C288.280487,228.928192 287.798431,232.043350 288.987000,232.937332 
	C293.739441,236.511871 295.807861,241.540009 297.919312,246.666138 
	C309.166321,248.228653 310.181854,250.120712 318.511780,260.546600 
	C326.287506,259.957581 332.343781,251.401688 341.226410,255.850342 
	C341.855652,256.165466 343.228210,254.594177 344.277649,254.558304 
	C346.304413,254.489014 348.713776,254.268280 350.314758,255.212326 
	C355.150055,258.063568 359.478058,261.792755 364.367218,264.530701 
	C370.981873,268.234924 377.934113,271.336304 384.963593,274.805969 
	C385.549255,274.071503 386.774567,272.534973 387.999878,271.316223 
	C388.252625,272.394867 388.505371,273.155640 388.758148,273.916443 
z"/>
<path fill="#7AB355" opacity="1.000000" stroke="none" 
	d="
M183.796280,131.728516 
	C192.535522,121.337906 201.099075,110.791893 210.092087,100.625778 
	C214.252228,95.922958 219.321899,92.034790 223.835022,87.629555 
	C225.835770,85.676643 227.389572,85.654152 229.234589,87.703575 
	C241.437592,101.258331 253.672409,114.784439 265.581726,128.627075 
	C262.433533,127.324326 261.924316,129.457504 261.356964,131.397598 
	C258.795593,140.156067 258.490967,140.378555 249.273849,139.696381 
	C249.152710,143.299606 246.876556,145.413055 243.841202,143.541641 
	C240.761337,141.642792 238.127121,141.699539 234.754669,141.723618 
	C225.631317,141.788773 216.518631,139.409378 207.353073,141.632828 
	C206.779587,141.771942 206.087753,141.326706 205.441483,141.277039 
	C197.442780,140.662262 189.701935,139.492676 184.711151,132.080795 
	C184.561615,131.858719 184.108078,131.841339 183.796280,131.728516 
z"/>
<path fill="#7DB454" opacity="1.000000" stroke="none" 
	d="
M389.007446,273.642822 
	C388.505371,273.155640 388.252625,272.394867 388.159546,270.950256 
	C389.150269,262.741882 389.981323,255.217316 390.829041,247.542099 
	C383.159058,247.005615 375.843353,247.021698 368.723602,245.848404 
	C361.515778,244.660599 353.651306,242.708130 351.189850,234.754303 
	C349.612091,229.656128 347.173981,226.974579 342.714447,224.480698 
	C340.219788,223.085617 339.091888,219.009644 337.695801,215.981400 
	C336.936462,214.334320 337.476349,211.245270 336.445312,210.712479 
	C331.992249,208.411240 327.463501,205.120834 321.967651,208.144485 
	C319.367584,209.574966 316.773560,211.034744 314.082916,212.278061 
	C309.766205,214.272736 305.371490,216.098618 301.005737,217.632523 
	C300.981201,216.544983 300.960632,215.820770 301.076385,215.079376 
	C301.212708,215.062210 301.484711,215.101227 301.484711,215.101227 
	C303.949921,214.435349 306.640045,214.196213 308.843994,213.034607 
	C323.591858,205.261658 338.966431,199.206818 355.366364,196.090958 
	C365.415344,194.181732 375.579468,192.885605 385.673401,191.203186 
	C391.137299,190.292496 392.332794,193.588272 392.408173,197.859726 
	C392.616516,209.667221 393.227234,221.500122 392.702271,233.279465 
	C392.105591,246.667297 390.451294,260.007996 389.007446,273.642822 
z"/>
<path fill="#68AE56" opacity="1.000000" stroke="none" 
	d="
M183.816376,131.737656 
	C184.108078,131.841339 184.561615,131.858719 184.711151,132.080795 
	C189.701935,139.492676 197.442780,140.662262 205.441483,141.277039 
	C206.087753,141.326706 206.779587,141.771942 207.353073,141.632828 
	C216.518631,139.409378 225.631317,141.788773 234.754669,141.723618 
	C238.127121,141.699539 240.761337,141.642792 243.841202,143.541641 
	C246.876556,145.413055 249.152710,143.299606 249.273849,139.696381 
	C258.490967,140.378555 258.795593,140.156067 261.356964,131.397598 
	C261.924316,129.457504 262.433533,127.324326 265.621155,128.966980 
	C269.666748,134.408249 273.357758,139.816818 276.766876,145.741196 
	C273.314819,149.068192 272.425201,152.407440 273.646545,156.532272 
	C274.855377,160.614807 273.510864,163.603577 268.893494,165.082489 
	C266.591888,159.278564 262.836395,161.100281 258.711609,162.663162 
	C257.005585,163.309586 254.694138,162.434769 252.672470,162.149490 
	C250.767120,161.880630 248.803223,160.975952 247.004669,161.253952 
	C244.486801,161.643158 241.854874,164.012131 239.694092,163.551743 
	C225.903442,160.613510 214.130035,167.503006 201.597076,170.671661 
	C199.076080,171.309021 196.440720,171.954086 193.878448,171.881119 
	C186.510208,171.671265 180.824127,167.643585 175.583664,162.946472 
	C174.829300,162.270309 174.049850,160.831726 174.264145,159.998642 
	C175.333298,155.842621 172.702728,154.796509 169.645523,153.954498 
	C173.594193,147.437607 177.542877,140.920715 182.092621,134.155609 
	C183.070633,133.199829 183.447556,132.492249 183.824478,131.784653 
	C183.824478,131.784653 183.836487,131.746796 183.816376,131.737656 
z"/>
<path fill="#5AA955" opacity="1.000000" stroke="none" 
	d="
M169.429901,154.194000 
	C172.702728,154.796509 175.333298,155.842621 174.264145,159.998642 
	C174.049850,160.831726 174.829300,162.270309 175.583664,162.946472 
	C180.824127,167.643585 186.510208,171.671265 193.878448,171.881119 
	C196.440720,171.954086 199.076080,171.309021 201.597076,170.671661 
	C214.130035,167.503006 225.903442,160.613510 239.694092,163.551743 
	C241.854874,164.012131 244.486801,161.643158 247.004669,161.253952 
	C248.803223,160.975952 250.767120,161.880630 252.672470,162.149490 
	C254.694138,162.434769 257.005585,163.309586 258.711609,162.663162 
	C262.836395,161.100281 266.591888,159.278564 268.893494,165.082489 
	C273.510864,163.603577 274.855377,160.614807 273.646545,156.532272 
	C272.425201,152.407440 273.314819,149.068192 276.815826,146.094574 
	C280.922821,152.978653 284.698975,160.025192 288.092773,167.529099 
	C285.351349,169.780914 283.242737,172.224976 280.586578,173.249207 
	C272.280060,176.452194 264.634674,181.840668 255.335220,181.953445 
	C243.600464,182.095795 232.272110,183.533371 222.010132,189.870148 
	C221.007538,190.489258 218.792160,190.521027 217.987686,189.833405 
	C215.268036,187.508759 213.208755,188.527130 210.992416,190.392014 
	C207.779984,193.095016 204.442871,194.299408 200.107849,192.574615 
	C197.324890,191.467331 194.040466,190.912918 191.060242,191.142365 
	C182.328171,191.814621 171.908340,185.305862 168.461044,177.347397 
	C167.222595,174.488297 164.157593,172.420410 161.926208,169.991425 
	C162.457123,168.503983 162.988052,167.016541 164.108780,165.196182 
	C165.037079,164.013397 165.375580,163.163528 165.714081,162.313660 
	C166.880798,159.686935 168.047531,157.060211 169.429901,154.194000 
z"/>
<path fill="#52A554" opacity="1.000000" stroke="none" 
	d="
M161.697906,170.264908 
	C164.157593,172.420410 167.222595,174.488297 168.461044,177.347397 
	C171.908340,185.305862 182.328171,191.814621 191.060242,191.142365 
	C194.040466,190.912918 197.324890,191.467331 200.107849,192.574615 
	C204.442871,194.299408 207.779984,193.095016 210.992416,190.392014 
	C213.208755,188.527130 215.268036,187.508759 217.987686,189.833405 
	C218.792160,190.521027 221.007538,190.489258 222.010132,189.870148 
	C232.272110,183.533371 243.600464,182.095795 255.335220,181.953445 
	C264.634674,181.840668 272.280060,176.452194 280.586578,173.249207 
	C283.242737,172.224976 285.351349,169.780914 288.107452,167.912033 
	C291.870178,177.052643 295.272644,186.254623 298.570557,195.493896 
	C299.227142,197.333344 299.483521,199.315613 299.490723,201.533356 
	C298.681183,200.572098 298.305328,199.309509 297.788513,197.722656 
	C292.099915,196.657089 286.567719,195.486984 281.000610,195.286438 
	C274.499908,195.052246 267.696045,196.929947 261.517792,195.598602 
	C253.245514,193.815994 246.226822,196.555176 238.870071,198.659454 
	C235.101288,199.737442 230.853119,200.605408 227.964798,202.966660 
	C223.116486,206.930267 218.318008,209.867188 211.878464,209.190140 
	C208.700653,208.856033 205.527939,208.471024 202.347519,208.165039 
	C200.136551,207.952316 197.479736,206.975021 195.782547,207.836853 
	C190.762848,210.385803 185.800354,208.941986 182.831848,205.878311 
	C175.498352,198.309830 165.018372,197.599854 156.722458,192.384872 
	C156.254944,192.091003 155.175201,192.771057 154.380417,192.997818 
	C156.743469,185.511337 159.106537,178.024872 161.697906,170.264908 
z"/>
<path fill="#7DB454" opacity="1.000000" stroke="none" 
	d="
M151.102783,216.958893 
	C146.133789,217.673706 141.692459,218.888351 137.356750,222.194336 
	C133.208923,225.357040 127.402946,226.336884 122.340538,228.313950 
	C120.980461,228.845123 119.599075,229.389938 118.356476,230.141724 
	C113.448463,233.111115 109.657837,232.775360 105.375175,229.125595 
	C104.294388,228.204529 102.825104,227.339203 101.465057,227.216537 
	C96.122665,226.734680 90.754646,226.466141 85.391106,226.348953 
	C84.309425,226.325302 82.615349,227.024628 82.210213,227.871933 
	C79.955170,232.588242 75.300575,233.357605 71.179749,234.996826 
	C67.957169,236.278717 65.087799,236.081543 62.987495,232.777191 
	C62.656075,232.255783 61.504692,232.255569 60.354885,232.007965 
	C59.958290,225.277786 59.939243,218.554001 60.306343,211.066757 
	C61.000481,204.977173 61.308464,199.651077 61.616447,194.324966 
	C62.262108,193.309830 62.907764,192.294693 64.087814,191.547546 
	C65.307304,191.759628 65.992401,191.703735 66.677490,191.647827 
	C67.222519,191.580246 67.767540,191.512634 68.861465,191.918762 
	C71.746910,192.552246 74.083435,192.712006 76.419968,192.871765 
	C92.890640,192.770676 107.968430,198.499756 122.970566,204.563507 
	C121.902260,207.116425 120.587891,209.052124 120.150467,211.169022 
	C119.875664,212.498962 120.999878,215.407257 121.355011,215.384659 
	C126.656769,215.047333 131.943222,214.394394 137.201721,213.605423 
	C137.592224,213.546829 137.741882,211.882935 138.003510,210.965332 
	C140.504440,212.026855 142.968582,213.190567 145.520782,214.109741 
	C146.945572,214.622925 148.516678,214.729782 150.512329,215.243866 
	C151.036148,215.964966 151.069473,216.461929 151.102783,216.958893 
z"/>
<path fill="#1C8452" opacity="1.000000" stroke="none" 
	d="
M309.349487,397.177734 
	C299.613556,402.341156 290.133392,408.081604 280.083435,412.536560 
	C263.868530,419.724365 246.616776,422.808655 228.244919,422.740051 
	C227.455734,421.061584 226.840088,419.549866 227.261292,418.427216 
	C227.809570,416.965881 229.360458,415.916718 230.169388,414.511444 
	C235.919693,404.521881 241.572861,394.476471 247.297241,384.471924 
	C249.130371,381.268188 251.084900,378.133942 253.254349,374.788788 
	C254.686966,373.074158 255.849106,371.538696 257.339539,370.149567 
	C263.753357,373.480988 270.022552,376.365173 275.872955,379.935547 
	C281.757050,383.526428 287.330658,387.659393 292.839661,391.820496 
	C296.968750,394.939362 300.643036,398.763763 306.593353,396.399628 
	C307.297821,396.119720 308.420593,396.892761 309.349487,397.177734 
z"/>
<path fill="#63AA51" opacity="1.000000" stroke="none" 
	d="
M62.044792,256.028473 
	C63.233875,257.225342 64.422958,258.422211 65.611847,259.626038 
	C65.918335,259.548126 66.373466,259.564423 66.510208,259.363770 
	C71.292763,252.345566 72.111382,252.083588 80.185944,255.079224 
	C83.127022,256.170349 89.544281,252.871460 91.981247,249.015717 
	C95.610313,243.273849 101.006325,243.032501 105.213791,248.397720 
	C110.706093,255.401321 116.221725,262.386627 121.470642,269.690918 
	C119.105438,271.297333 116.974747,272.558441 114.898567,273.903687 
	C113.989182,274.492920 113.137131,275.900482 112.351074,275.834808 
	C106.028984,275.306732 106.283958,279.840668 107.172462,283.409027 
	C108.570824,289.024994 106.187141,291.735962 101.569603,293.802765 
	C100.108788,294.456665 98.941330,295.777405 97.659332,296.817261 
	C93.433548,300.245056 89.862808,300.298157 85.254036,297.368469 
	C83.941864,296.534363 82.111977,295.945587 80.606369,296.098663 
	C77.038574,296.461456 73.522865,297.336456 69.795555,297.998077 
	C69.352402,297.968750 69.099594,297.948059 68.846611,297.929657 
	C68.651283,297.490509 68.455956,297.051331 68.474106,296.026794 
	C68.005653,293.952515 67.323715,292.463654 66.641777,290.974762 
	C66.491402,290.521179 66.341026,290.067596 66.458443,288.987976 
	C65.634186,283.899567 64.542137,279.437134 63.450089,274.974731 
	C63.336498,274.213593 63.222916,273.452423 63.399689,272.041779 
	C63.141624,266.270996 62.593208,261.149750 62.044792,256.028473 
z"/>
<path fill="#429950" opacity="1.000000" stroke="none" 
	d="
M351.982910,359.748962 
	C349.338135,363.002991 346.693359,366.256989 343.579468,369.306091 
	C339.659668,367.073883 336.381165,364.632477 332.720551,363.109711 
	C326.094391,360.353302 318.895142,358.810333 312.572876,355.531189 
	C305.420776,351.821655 305.132629,345.392334 310.570892,339.084442 
	C311.272949,338.270081 311.560974,335.851196 311.032013,335.423676 
	C307.333954,332.434723 303.629639,329.260437 299.425781,327.139557 
	C294.238037,324.522278 289.337006,326.613068 284.998199,329.666260 
	C284.995880,328.887543 284.994904,328.442566 285.186218,327.727051 
	C288.923248,322.973450 292.468048,318.490387 296.360901,313.968048 
	C299.902191,311.764893 302.952759,308.049438 306.316589,307.740051 
	C314.989105,306.942474 321.508240,312.765930 328.129578,317.465210 
	C329.460632,318.409882 331.063019,320.965607 330.643677,322.034546 
	C328.921356,326.425323 331.294067,328.958191 334.134003,331.184723 
	C338.149414,334.332825 342.116364,337.866425 346.699585,339.878998 
	C351.639465,342.048248 357.935425,340.568207 362.224854,345.088989 
	C359.713440,348.958282 357.202026,352.827576 354.068359,356.892181 
	C352.958405,357.974670 352.470673,358.861816 351.982910,359.748962 
z"/>
<path fill="#5BA551" opacity="1.000000" stroke="none" 
	d="
M310.997650,294.993896 
	C313.385162,291.555420 315.580994,287.962280 318.202972,284.712982 
	C322.639954,279.214447 327.318207,273.908905 331.949127,268.569153 
	C335.111481,264.922729 338.034790,262.906860 343.347900,266.229797 
	C347.672272,268.934387 353.462402,269.175385 358.330139,271.172760 
	C361.637421,272.529785 364.469421,275.041229 367.521820,277.024323 
	C372.489014,280.251343 377.445984,283.495148 382.468933,286.633118 
	C382.826294,286.856323 383.688385,286.271637 384.659485,286.445312 
	C384.869568,287.803162 384.827332,288.801392 384.587738,289.749786 
	C382.780884,296.901550 380.935242,304.043549 379.101715,311.188568 
	C378.946869,311.899780 378.792023,312.610962 378.150787,313.745880 
	C376.495728,317.167053 375.327087,320.164520 374.158447,323.161987 
	C374.158478,323.161987 374.079102,323.137573 373.667786,323.081635 
	C370.930725,322.402710 368.359924,322.215149 366.327484,321.071106 
	C361.229858,318.201752 356.375885,314.899506 351.314880,311.701782 
	C351.743500,306.858459 352.203644,301.687164 347.500397,298.042236 
	C343.848572,295.212158 340.271698,292.155151 336.242615,289.972046 
	C329.916290,286.544281 318.890045,284.225952 313.779083,293.265747 
	C313.307709,294.099487 311.945953,294.429810 310.997650,294.993896 
z"/>
<path fill="#379450" opacity="1.000000" stroke="none" 
	d="
M284.999512,330.000000 
	C289.337006,326.613068 294.238037,324.522278 299.425781,327.139557 
	C303.629639,329.260437 307.333954,332.434723 311.032013,335.423676 
	C311.560974,335.851196 311.272949,338.270081 310.570892,339.084442 
	C305.132629,345.392334 305.420776,351.821655 312.572876,355.531189 
	C318.895142,358.810333 326.094391,360.353302 332.720551,363.109711 
	C336.381165,364.632477 339.659668,367.073883 343.279358,369.491272 
	C336.901489,375.914917 330.354706,381.948456 323.420624,387.670105 
	C322.923737,386.873016 322.971283,386.104614 322.681610,385.943787 
	C314.256927,381.267883 304.379272,379.552216 296.752045,373.187958 
	C296.148773,372.684601 294.793213,373.167084 293.817261,373.007721 
	C292.064850,372.721588 290.335236,372.295868 288.596100,371.928467 
	C289.311646,370.205963 290.051300,368.493011 290.735138,366.758026 
	C291.279907,365.375885 292.517456,363.698029 292.134857,362.615234 
	C290.237823,357.246124 287.220734,352.783417 280.827484,352.124359 
	C277.209625,351.751434 273.593079,351.365723 269.983093,350.655029 
	C269.993530,349.882843 269.996765,349.441437 270.270569,348.807068 
	C275.360596,342.409424 280.180054,336.204712 284.999512,330.000000 
z"/>
<path fill="#4E9F52" opacity="1.000000" stroke="none" 
	d="
M310.728088,295.189392 
	C311.945953,294.429810 313.307709,294.099487 313.779083,293.265747 
	C318.890045,284.225952 329.916290,286.544281 336.242615,289.972046 
	C340.271698,292.155151 343.848572,295.212158 347.500397,298.042236 
	C352.203644,301.687164 351.743500,306.858459 351.314880,311.701782 
	C356.375885,314.899506 361.229858,318.201752 366.327484,321.071106 
	C368.359924,322.215149 370.930725,322.402710 373.681152,323.042328 
	C374.040955,323.498932 373.976044,323.938873 373.441833,324.750122 
	C372.640045,326.052063 372.307617,326.982727 371.975220,327.913391 
	C368.919159,333.528320 365.863098,339.143250 362.515991,344.923584 
	C357.935425,340.568207 351.639465,342.048248 346.699585,339.878998 
	C342.116364,337.866425 338.149414,334.332825 334.134003,331.184723 
	C331.294067,328.958191 328.921356,326.425323 330.643677,322.034546 
	C331.063019,320.965607 329.460632,318.409882 328.129578,317.465210 
	C321.508240,312.765930 314.989105,306.942474 306.316589,307.740051 
	C302.952759,308.049438 299.902191,311.764893 296.391876,313.617950 
	C298.050293,310.205566 300.025757,307.104004 302.001221,304.002441 
	C304.820343,301.129944 307.639435,298.257416 310.728088,295.189392 
z"/>
<path fill="#429950" opacity="1.000000" stroke="none" 
	d="
M108.695808,369.122620 
	C103.378967,362.373932 98.062134,355.625275 93.080338,348.358154 
	C102.502632,347.610382 111.532532,348.263123 120.600685,348.906982 
	C129.656570,349.549957 138.558502,347.973450 145.548538,341.026459 
	C147.397247,339.189148 149.510208,336.904144 151.840515,336.404572 
	C157.787842,335.129517 163.926193,334.745514 170.129486,334.317200 
	C174.189636,340.418304 178.108398,346.207214 182.019684,351.997864 
	C182.012192,351.999573 181.996948,351.998779 181.611084,352.004883 
	C176.039261,354.067413 170.360641,355.368073 165.780243,358.353577 
	C158.501892,363.097565 150.987961,366.550385 142.345779,367.356384 
	C132.251373,368.297852 122.242409,371.377686 111.973198,368.562592 
	C111.004677,368.297119 109.794037,368.914886 108.695808,369.122620 
z"/>
<path fill="#56A751" opacity="1.000000" stroke="none" 
	d="
M69.986092,298.004395 
	C73.522865,297.336456 77.038574,296.461456 80.606369,296.098663 
	C82.111977,295.945587 83.941864,296.534363 85.254036,297.368469 
	C89.862808,300.298157 93.433548,300.245056 97.659332,296.817261 
	C98.941330,295.777405 100.108788,294.456665 101.569603,293.802765 
	C106.187141,291.735962 108.570824,289.024994 107.172462,283.409027 
	C106.283958,279.840668 106.028984,275.306732 112.351074,275.834808 
	C113.137131,275.900482 113.989182,274.492920 114.898567,273.903687 
	C116.974747,272.558441 119.105438,271.297333 121.605309,270.001007 
	C121.996643,270.000000 122.000000,270.000000 122.033478,270.341431 
	C123.040810,271.457489 124.014664,272.232117 124.988525,273.006744 
	C124.991562,273.449677 124.994598,273.892639 125.145294,274.970703 
	C127.860130,278.406433 130.427322,281.207031 133.143829,284.310059 
	C137.529251,290.408173 141.765366,296.203827 145.623352,302.005737 
	C138.823334,308.006470 130.673019,304.372559 123.223663,305.597260 
	C123.917290,307.260590 124.461868,308.566498 124.993050,309.840302 
	C112.929878,316.585999 110.017159,317.662781 99.484322,316.822876 
	C96.540176,316.588135 92.930328,314.912567 91.069344,312.689545 
	C85.103081,305.562714 82.782852,304.507324 72.771744,306.917542 
	C72.159225,306.564087 71.766586,306.299835 71.373940,306.035614 
	C71.176720,305.382172 70.979507,304.728699 70.844193,303.334656 
	C70.599426,301.064148 70.292763,299.534271 69.986092,298.004395 
z"/>
<path fill="#4E9F52" opacity="1.000000" stroke="none" 
	d="
M154.198029,193.360504 
	C155.175201,192.771057 156.254944,192.091003 156.722458,192.384872 
	C165.018372,197.599854 175.498352,198.309830 182.831848,205.878311 
	C185.800354,208.941986 190.762848,210.385803 195.782547,207.836853 
	C197.479736,206.975021 200.136551,207.952316 202.347519,208.165039 
	C205.527939,208.471024 208.700653,208.856033 211.878464,209.190140 
	C218.318008,209.867188 223.116486,206.930267 227.964798,202.966660 
	C230.853119,200.605408 235.101288,199.737442 238.870071,198.659454 
	C246.226822,196.555176 253.245514,193.815994 261.517792,195.598602 
	C267.696045,196.929947 274.499908,195.052246 281.000610,195.286438 
	C286.567719,195.486984 292.099915,196.657089 297.425842,197.875305 
	C290.550446,198.901886 283.898224,199.469299 277.242615,199.994064 
	C273.644135,200.277771 270.493378,200.824799 269.225677,205.144745 
	C268.773987,206.683929 266.734161,208.427948 265.111023,208.828064 
	C260.012360,210.084961 254.792099,210.962845 249.570328,211.568146 
	C245.757324,212.010117 241.644836,212.635300 238.058182,211.690094 
	C230.481232,209.693298 226.483109,211.691391 223.131500,219.143051 
	C221.083267,223.696945 213.610855,227.712845 209.395813,225.391708 
	C205.769943,223.395004 203.280869,223.771484 200.977371,226.713394 
	C199.223907,225.359390 197.862503,223.894409 196.183762,223.100098 
	C192.942535,221.566513 189.300674,220.795563 186.221970,219.019989 
	C179.680634,215.247498 173.393677,211.033966 167.001068,206.750763 
	C166.998962,206.333328 166.998260,206.166367 166.956818,205.678925 
	C166.277786,204.906235 165.639511,204.454025 164.739532,203.824997 
	C163.317764,202.764832 162.157700,201.881500 160.956757,200.677765 
	C160.277237,199.905731 159.638611,199.454086 158.642349,198.942886 
	C156.763779,198.228912 155.242813,197.574493 153.721863,196.920059 
	C153.819794,195.854446 153.917709,194.788818 154.198029,193.360504 
z"/>
<path fill="#469E51" opacity="1.000000" stroke="none" 
	d="
M167.002441,207.001221 
	C173.393677,211.033966 179.680634,215.247498 186.221970,219.019989 
	C189.300674,220.795563 192.942535,221.566513 196.183762,223.100098 
	C197.862503,223.894409 199.223907,225.359390 200.977371,226.713394 
	C203.280869,223.771484 205.769943,223.395004 209.395813,225.391708 
	C213.610855,227.712845 221.083267,223.696945 223.131500,219.143051 
	C226.483109,211.691391 230.481232,209.693298 238.058182,211.690094 
	C241.644836,212.635300 245.757324,212.010117 249.570328,211.568146 
	C254.792099,210.962845 260.012360,210.084961 265.111023,208.828064 
	C266.734161,208.427948 268.773987,206.683929 269.225677,205.144745 
	C270.493378,200.824799 273.644135,200.277771 277.242615,199.994064 
	C283.898224,199.469299 290.550446,198.901886 297.566772,198.199570 
	C298.305328,199.309509 298.681183,200.572098 299.389709,201.917709 
	C299.844391,204.004227 299.966431,206.007736 300.077789,208.796051 
	C300.084717,210.057007 300.102325,210.533127 300.090698,211.406219 
	C300.057709,212.864441 300.054016,213.925690 299.981903,215.327728 
	C298.264526,217.438919 296.615540,219.209335 294.658508,221.116730 
	C292.227234,222.823334 290.104034,224.392975 287.980804,225.962616 
	C285.548706,227.279419 283.116608,228.596237 280.342224,229.571396 
	C281.534698,227.475327 283.172607,225.797989 284.564117,223.936462 
	C285.348236,222.887451 285.726257,221.534897 286.287231,220.319107 
	C282.101837,219.398422 278.984497,215.077499 273.892731,216.837799 
	C269.125488,218.485931 264.261383,220.111694 259.305176,220.897873 
	C250.861877,222.237213 242.331924,223.218185 233.801041,223.743835 
	C229.035553,224.037491 226.036835,225.692749 224.285095,230.145096 
	C223.827698,231.307617 222.195969,232.093002 220.980545,232.855469 
	C218.064316,234.684891 215.075089,236.397949 210.954987,238.847961 
	C208.041794,237.026306 204.021744,234.512527 199.809753,231.728165 
	C198.581558,230.641144 197.607666,229.726303 196.499298,229.023636 
	C186.775314,222.858673 178.740311,213.168655 166.379715,214.266159 
	C166.593613,211.770844 166.798035,209.386032 167.002441,207.001221 
z"/>
<path fill="#469E51" opacity="1.000000" stroke="none" 
	d="
M169.988129,334.005005 
	C163.926193,334.745514 157.787842,335.129517 151.840515,336.404572 
	C149.510208,336.904144 147.397247,339.189148 145.548538,341.026459 
	C138.558502,347.973450 129.656570,349.549957 120.600685,348.906982 
	C111.532532,348.263123 102.502632,347.610382 93.049141,347.989319 
	C90.396523,344.692719 88.110153,341.246552 86.204903,337.416382 
	C89.281891,336.028412 92.334763,333.670624 94.607819,334.270050 
	C101.914696,336.196869 108.928513,334.182281 116.056175,334.003540 
	C121.100792,333.877045 128.584717,326.820068 128.999222,321.767212 
	C129.474823,315.969757 131.353119,314.980377 136.551086,317.738617 
	C138.487091,318.765900 141.082672,320.161713 141.713562,316.891327 
	C142.646530,312.054993 144.869507,312.696014 147.778381,314.705994 
	C148.871872,313.725891 149.827637,312.869232 151.290543,311.558044 
	C151.793594,314.050873 152.136902,315.752106 152.589798,317.996338 
	C154.439713,317.996338 156.221329,317.996338 158.222198,318.104126 
	C158.715500,318.409973 158.904587,318.669891 159.031448,319.314026 
	C159.705627,320.422546 160.357101,321.208649 161.117645,322.212341 
	C161.425568,322.701202 161.684875,322.889099 162.037689,323.341431 
	C164.709854,327.127869 167.348984,330.566437 169.988129,334.005005 
z"/>
<path fill="#1C8452" opacity="1.000000" stroke="none" 
	d="
M195.514267,419.278229 
	C184.196793,415.515961 172.879318,411.753693 161.181000,407.651672 
	C160.670349,407.160522 160.507614,407.065552 160.311966,407.026978 
	C159.699432,406.828064 159.086899,406.629120 158.182526,405.856476 
	C156.878448,404.875061 155.866226,404.467316 154.854019,404.059601 
	C154.423874,403.978912 153.993744,403.898224 153.387024,403.286530 
	C154.761475,402.443268 156.311264,401.888336 157.863876,401.880310 
	C159.793396,401.870331 162.173309,403.163879 163.583603,402.421661 
	C172.951309,397.491455 182.095230,392.137726 191.348434,386.987335 
	C194.516251,385.224060 197.788879,383.649109 201.284454,382.193604 
	C204.401657,386.786713 206.849533,391.507294 210.178284,395.491913 
	C216.888275,403.524017 219.845703,413.166473 223.024429,422.774994 
	C221.628098,422.830994 220.231781,422.887024 218.355499,422.468933 
	C216.249741,422.005554 214.623901,422.016296 212.998077,422.027039 
	C208.605972,421.653046 204.213882,421.279083 199.329193,420.378845 
	C197.729156,419.661133 196.621704,419.469696 195.514267,419.278229 
z"/>
<path fill="#4E9F52" opacity="1.000000" stroke="none" 
	d="
M158.002945,317.996338 
	C156.221329,317.996338 154.439713,317.996338 152.589798,317.996338 
	C152.136902,315.752106 151.793594,314.050873 151.290543,311.558044 
	C149.827637,312.869232 148.871872,313.725891 147.778381,314.705994 
	C144.869507,312.696014 142.646530,312.054993 141.713562,316.891327 
	C141.082672,320.161713 138.487091,318.765900 136.551086,317.738617 
	C131.353119,314.980377 129.474823,315.969757 128.999222,321.767212 
	C128.584717,326.820068 121.100792,333.877045 116.056175,334.003540 
	C108.928513,334.182281 101.914696,336.196869 94.607819,334.270050 
	C92.334763,333.670624 89.281891,336.028412 86.175568,337.053619 
	C85.428574,337.007019 85.188591,336.817139 85.014221,335.941223 
	C84.419861,334.586823 83.856461,333.796417 83.293053,333.005981 
	C82.856491,332.237610 82.419930,331.469208 81.981491,330.091125 
	C81.530846,328.976105 81.082069,328.470795 80.633301,327.965454 
	C80.428650,327.562958 80.223991,327.160461 79.994682,326.156128 
	C79.587196,325.020599 79.204353,324.486877 78.821510,323.953186 
	C78.324211,322.991058 77.826912,322.028961 77.156570,320.682831 
	C76.983521,320.298828 76.961349,320.238586 76.961349,320.238586 
	C76.578346,319.257843 76.195343,318.277130 75.836273,316.500305 
	C74.904015,312.805023 73.947823,309.905884 72.991631,307.006714 
	C82.782852,304.507324 85.103081,305.562714 91.069344,312.689545 
	C92.930328,314.912567 96.540176,316.588135 99.484322,316.822876 
	C110.017159,317.662781 112.929878,316.585999 124.993050,309.840302 
	C124.461868,308.566498 123.917290,307.260590 123.223663,305.597260 
	C130.673019,304.372559 138.823334,308.006470 145.894577,302.200562 
	C150.363617,307.591553 154.183273,312.793945 158.002945,317.996338 
z"/>
<path fill="#379450" opacity="1.000000" stroke="none" 
	d="
M108.831055,369.437347 
	C109.794037,368.914886 111.004677,368.297119 111.973198,368.562592 
	C122.242409,371.377686 132.251373,368.297852 142.345779,367.356384 
	C150.987961,366.550385 158.501892,363.097565 165.780243,358.353577 
	C170.360641,355.368073 176.039261,354.067413 181.665253,352.342285 
	C185.068787,356.783234 188.032272,360.892822 191.020569,365.321045 
	C191.365509,366.423767 191.685638,367.207916 191.621033,367.999023 
	C189.146591,368.867462 185.668747,369.267609 185.203110,370.668793 
	C182.970413,377.387512 176.794113,378.559113 171.679932,380.244598 
	C166.044434,382.101868 159.244919,383.847595 153.888779,382.332306 
	C145.810135,380.046814 138.966400,382.908691 131.651077,384.055969 
	C130.217239,384.280823 128.975708,385.731964 127.645493,386.617523 
	C121.419090,380.995728 115.192696,375.373901 108.831055,369.437347 
z"/>
<path fill="#2B8E51" opacity="1.000000" stroke="none" 
	d="
M269.975891,350.985779 
	C273.593079,351.365723 277.209625,351.751434 280.827484,352.124359 
	C287.220734,352.783417 290.237823,357.246124 292.134857,362.615234 
	C292.517456,363.698029 291.279907,365.375885 290.735138,366.758026 
	C290.051300,368.493011 289.311646,370.205963 288.596100,371.928467 
	C290.335236,372.295868 292.064850,372.721588 293.817261,373.007721 
	C294.793213,373.167084 296.148773,372.684601 296.752045,373.187958 
	C304.379272,379.552216 314.256927,381.267883 322.681610,385.943787 
	C322.971283,386.104614 322.923737,386.873016 323.088135,387.747589 
	C323.142944,388.136963 323.109924,388.100708 322.779053,388.070831 
	C321.618378,388.824707 320.788605,389.608490 319.958862,390.392273 
	C316.652283,392.662201 313.345764,394.932159 309.694366,397.189941 
	C308.420593,396.892761 307.297821,396.119720 306.593353,396.399628 
	C300.643036,398.763763 296.968750,394.939362 292.839661,391.820496 
	C287.330658,387.659393 281.757050,383.526428 275.872955,379.935547 
	C270.022552,376.365173 263.753357,373.480988 257.366943,369.796051 
	C261.369385,363.192688 265.672638,357.089233 269.975891,350.985779 
z"/>
<path fill="#2B8E51" opacity="1.000000" stroke="none" 
	d="
M127.786179,386.903259 
	C128.975708,385.731964 130.217239,384.280823 131.651077,384.055969 
	C138.966400,382.908691 145.810135,380.046814 153.888779,382.332306 
	C159.244919,383.847595 166.044434,382.101868 171.679932,380.244598 
	C176.794113,378.559113 182.970413,377.387512 185.203110,370.668793 
	C185.668747,369.267609 189.146591,368.867462 191.885742,368.215149 
	C195.361343,372.945587 198.187485,377.466858 201.013641,381.988129 
	C197.788879,383.649109 194.516251,385.224060 191.348434,386.987335 
	C182.095230,392.137726 172.951309,397.491455 163.583603,402.421661 
	C162.173309,403.163879 159.793396,401.870331 157.863876,401.880310 
	C156.311264,401.888336 154.761475,402.443268 153.135391,403.072266 
	C144.682526,397.989014 136.304688,392.589020 127.786179,386.903259 
z"/>
<path fill="#44985F" opacity="1.000000" stroke="none" 
	d="
M201.284454,382.193604 
	C198.187485,377.466858 195.361343,372.945587 192.270477,368.208191 
	C191.685638,367.207916 191.365509,366.423767 191.394958,365.273560 
	C192.835785,361.991180 193.503830,358.806396 195.136200,356.233307 
	C196.798996,353.612274 199.410599,351.593231 201.606766,349.310577 
	C203.580353,351.235107 206.607254,352.834991 207.320282,355.148102 
	C209.105484,360.939331 210.142670,367.015594 210.910309,373.049988 
	C211.606293,378.521149 209.737549,384.448700 214.337128,389.122803 
	C214.721970,389.513855 214.399704,390.656464 214.318909,391.440948 
	C213.802582,396.454712 215.472336,398.131714 220.464966,397.289886 
	C224.044235,396.686401 227.561447,395.279083 231.135300,395.168793 
	C238.898483,394.929138 240.969177,393.184967 241.000168,385.541901 
	C241.025772,379.233612 245.815720,375.007172 252.983887,374.967926 
	C251.084900,378.133942 249.130371,381.268188 247.297241,384.471924 
	C241.572861,394.476471 235.919693,404.521881 230.169388,414.511444 
	C229.360458,415.916718 227.809570,416.965881 227.261292,418.427216 
	C226.840088,419.549866 227.455734,421.061584 227.794006,422.679321 
	C226.468674,423.080688 224.959625,423.203003 223.237503,423.050171 
	C219.845703,413.166473 216.888275,403.524017 210.178284,395.491913 
	C206.849533,391.507294 204.401657,386.786713 201.284454,382.193604 
z"/>
<path fill="#429950" opacity="1.000000" stroke="none" 
	d="
M167.001068,206.750763 
	C166.798035,209.386032 166.593613,211.770844 166.379715,214.266159 
	C178.740311,213.168655 186.775314,222.858673 196.499298,229.023636 
	C197.607666,229.726303 198.581558,230.641144 199.613846,232.007034 
	C196.085815,234.862823 192.561722,237.169159 188.603134,239.759857 
	C188.668747,240.466812 188.832901,242.235626 188.696136,243.861481 
	C182.259979,238.824417 176.124771,233.930328 169.989563,229.036224 
	C169.989563,229.036224 169.498611,229.010727 169.110840,228.704224 
	C167.481827,227.600922 166.240555,226.804123 164.999283,226.007339 
	C164.999283,226.007339 164.524338,225.978699 164.232422,225.655426 
	C163.296051,224.887222 162.651596,224.442307 162.007156,223.997406 
	C162.007156,223.997406 162.000610,223.999390 161.862747,223.705536 
	C160.816788,222.942520 159.908707,222.473343 159.000610,222.004166 
	C157.856888,221.093842 156.713150,220.183517 155.144714,218.845932 
	C153.812134,217.949249 152.904251,217.479843 151.996384,217.010422 
	C151.996384,217.010422 151.548630,216.982529 151.325714,216.970703 
	C151.069473,216.461929 151.036148,215.964966 150.895081,215.108917 
	C151.632523,209.014526 152.477676,203.279236 153.522354,197.231995 
	C155.242813,197.574493 156.763779,198.228912 158.683929,199.263016 
	C159.721283,200.094528 160.359467,200.546341 160.997635,200.998169 
	C162.157700,201.881500 163.317764,202.764832 164.780746,204.145203 
	C165.721634,205.094604 166.359604,205.546997 166.997559,205.999390 
	C166.998260,206.166367 166.998962,206.333328 167.001068,206.750763 
z"/>
<path fill="#6EAE51" opacity="1.000000" stroke="none" 
	d="
M137.917999,210.858887 
	C137.741882,211.882935 137.592224,213.546829 137.201721,213.605423 
	C131.943222,214.394394 126.656769,215.047333 121.355011,215.384659 
	C120.999878,215.407257 119.875664,212.498962 120.150467,211.169022 
	C120.587891,209.052124 121.902260,207.116425 123.180008,204.851578 
	C124.816628,204.960785 126.118965,205.322479 127.781235,206.242798 
	C128.981415,207.111740 129.821686,207.422089 130.661942,207.732422 
	C131.257172,207.800232 131.852402,207.868057 132.735260,208.472321 
	C134.536179,209.604202 136.049484,210.199646 137.562790,210.795074 
	C137.562790,210.795074 137.832504,210.752441 137.917999,210.858887 
z"/>
<path fill="#7DB454" opacity="1.000000" stroke="none" 
	d="
M379.369812,310.959229 
	C380.935242,304.043549 382.780884,296.901550 384.587738,289.749786 
	C384.827332,288.801392 384.869568,287.803162 385.005920,286.411560 
	C385.942169,282.744873 386.875641,279.494629 388.122681,276.110565 
	C386.417999,285.273773 384.478882,294.589172 382.326904,303.855164 
	C381.776031,306.226959 380.552429,308.442535 379.369812,310.959229 
z"/>
<path fill="#7AB355" opacity="1.000000" stroke="none" 
	d="
M62.027737,255.677628 
	C62.593208,261.149750 63.141624,266.270996 63.447426,271.657440 
	C62.292431,265.824951 61.380051,259.727264 60.682343,253.295364 
	C61.268238,253.749680 61.639462,254.538223 62.027737,255.677628 
z"/>
<path fill="#7AB355" opacity="1.000000" stroke="none" 
	d="
M61.290016,194.509491 
	C61.308464,199.651077 61.000481,204.977173 60.436001,210.607834 
	C60.440865,205.506271 60.702225,200.100143 61.290016,194.509491 
z"/>
<path fill="#7AB355" opacity="1.000000" stroke="none" 
	d="
M63.347847,275.394531 
	C64.542137,279.437134 65.634186,283.899567 66.498535,288.627502 
	C65.262428,284.533447 64.254013,280.173920 63.347847,275.394531 
z"/>
<path fill="#7AB355" opacity="1.000000" stroke="none" 
	d="
M59.917789,241.367889 
	C60.420162,244.159714 60.696712,247.262024 60.928787,250.836990 
	C60.486862,248.099228 60.089417,244.888809 59.917789,241.367889 
z"/>
<path fill="#7DB454" opacity="1.000000" stroke="none" 
	d="
M374.460876,323.015991 
	C375.327087,320.164520 376.495728,317.167053 377.957520,314.056519 
	C377.088196,316.918976 375.925751,319.894501 374.460876,323.015991 
z"/>
<path fill="#7AB355" opacity="1.000000" stroke="none" 
	d="
M72.771744,306.917542 
	C73.947823,309.905884 74.904015,312.805023 75.788734,316.102844 
	C74.221931,313.254425 72.726601,310.007355 71.302605,306.397949 
	C71.766586,306.299835 72.159225,306.564087 72.771744,306.917542 
z"/>
<path fill="#7AB355" opacity="1.000000" stroke="none" 
	d="
M76.184235,192.567657 
	C74.083435,192.712006 71.746910,192.552246 69.235458,192.109131 
	C71.356537,191.971695 73.652519,192.117615 76.184235,192.567657 
z"/>
<path fill="#44985F" opacity="1.000000" stroke="none" 
	d="
M213.304916,422.238525 
	C214.623901,422.016296 216.249741,422.005554 217.960175,422.322632 
	C216.567108,422.583679 215.089432,422.516876 213.304916,422.238525 
z"/>
<path fill="#7DB454" opacity="1.000000" stroke="none" 
	d="
M137.378601,210.503220 
	C136.049484,210.199646 134.536179,209.604202 133.000687,208.619507 
	C134.383804,208.890625 135.789093,209.550995 137.378601,210.503220 
z"/>
<path fill="#7AB355" opacity="1.000000" stroke="none" 
	d="
M66.515213,291.300568 
	C67.323715,292.463654 68.005653,293.952515 68.497650,295.661743 
	C67.668022,294.463531 67.028336,293.044952 66.515213,291.300568 
z"/>
<path fill="#7AB355" opacity="1.000000" stroke="none" 
	d="
M69.795555,297.998077 
	C70.292763,299.534271 70.599426,301.064148 70.857391,302.991638 
	C70.084915,301.786865 69.361145,300.184448 68.741989,298.255859 
	C69.099594,297.948059 69.352402,297.968750 69.795555,297.998077 
z"/>
<path fill="#44985F" opacity="1.000000" stroke="none" 
	d="
M195.702103,419.568054 
	C196.621704,419.469696 197.729156,419.661133 198.949234,420.188171 
	C198.004562,420.301849 196.947250,420.079895 195.702103,419.568054 
z"/>
<path fill="#6EAE51" opacity="1.000000" stroke="none" 
	d="
M300.050323,214.986954 
	C300.054016,213.925690 300.057709,212.864441 300.272034,211.520538 
	C300.750580,211.738159 301.018463,212.238419 301.286377,212.738663 
	C301.413361,213.261398 301.540344,213.784134 301.576050,214.704041 
	C301.484711,215.101227 301.212708,215.062210 300.855499,215.041306 
	C300.498291,215.020401 300.050323,214.986954 300.050323,214.986954 
z"/>
<path fill="#379450" opacity="1.000000" stroke="none" 
	d="
M320.252014,390.390503 
	C320.788605,389.608490 321.618378,388.824707 322.796783,388.075378 
	C322.278656,388.869415 321.411896,389.629059 320.252014,390.390503 
z"/>
<path fill="#7AB355" opacity="1.000000" stroke="none" 
	d="
M66.591393,191.392151 
	C65.992401,191.703735 65.307304,191.759628 64.448555,191.691315 
	C65.018364,191.423538 65.761826,191.280014 66.591393,191.392151 
z"/>
<path fill="#7DB454" opacity="1.000000" stroke="none" 
	d="
M301.425415,212.443619 
	C301.018463,212.238419 300.750580,211.738159 300.301300,211.123581 
	C300.102325,210.533127 300.084717,210.057007 300.106079,209.226929 
	C300.618164,209.964844 301.091309,211.056702 301.425415,212.443619 
z"/>
<path fill="#2B8E51" opacity="1.000000" stroke="none" 
	d="
M154.991272,404.352051 
	C155.866226,404.467316 156.878448,404.875061 157.945282,405.637085 
	C157.042786,405.542389 156.085663,405.093445 154.991272,404.352051 
z"/>
<path fill="#4E9F52" opacity="1.000000" stroke="none" 
	d="
M352.276672,359.672119 
	C352.470673,358.861816 352.958405,357.974670 353.787018,357.068481 
	C353.608704,357.898071 353.089539,358.746674 352.276672,359.672119 
z"/>
<path fill="#7AB355" opacity="1.000000" stroke="none" 
	d="
M83.283699,333.307190 
	C83.856461,333.796417 84.419861,334.586823 84.952705,335.712433 
	C84.372879,335.234528 83.823616,334.421478 83.283699,333.307190 
z"/>
<path fill="#7DB454" opacity="1.000000" stroke="none" 
	d="
M372.254303,327.793793 
	C372.307617,326.982727 372.640045,326.052063 373.273804,325.041779 
	C373.227875,325.866180 372.880646,326.770172 372.254303,327.793793 
z"/>
<path fill="#7DB454" opacity="1.000000" stroke="none" 
	d="
M130.516800,207.420288 
	C129.821686,207.422089 128.981415,207.111740 128.066467,206.440552 
	C128.785065,206.422516 129.578369,206.765335 130.516800,207.420288 
z"/>
<path fill="#7AB355" opacity="1.000000" stroke="none" 
	d="
M80.567932,328.231812 
	C81.082069,328.470795 81.530846,328.976105 81.959953,329.757324 
	C81.461052,329.521545 80.981812,329.009857 80.567932,328.231812 
z"/>
<path fill="#7AB355" opacity="1.000000" stroke="none" 
	d="
M78.734894,324.216064 
	C79.204353,324.486877 79.587196,325.020599 79.945000,325.817749 
	C79.496071,325.547119 79.072174,325.013031 78.734894,324.216064 
z"/>
<path fill="#68AE56" opacity="1.000000" stroke="none" 
	d="
M165.411072,162.476990 
	C165.375580,163.163528 165.037079,164.013397 164.321960,164.928009 
	C164.332886,164.208618 164.720459,163.424484 165.411072,162.476990 
z"/>
<path fill="#7AB355" opacity="1.000000" stroke="none" 
	d="
M183.532318,131.885590 
	C183.447556,132.492249 183.070633,133.199829 182.360077,133.954895 
	C182.431030,133.330444 182.835587,132.658493 183.532318,131.885590 
z"/>
<path fill="#7AB355" opacity="1.000000" stroke="none" 
	d="
M76.830177,320.248718 
	C76.961349,320.238586 76.983521,320.298828 76.991348,320.309814 
	C76.999176,320.320770 76.805916,320.496490 76.805916,320.496490 
	C76.805916,320.496490 76.699005,320.258881 76.830177,320.248718 
z"/>
<path fill="#2B8E51" opacity="1.000000" stroke="none" 
	d="
M160.304565,407.213684 
	C160.507614,407.065552 160.670349,407.160522 160.872223,407.436371 
	C160.944305,407.560852 160.580078,407.644348 160.580078,407.644348 
	C160.580078,407.644348 160.297180,407.400391 160.304565,407.213684 
z"/>
<path fill="#FDFDFC" opacity="1.000000" stroke="none" 
	d="
M881.094482,237.969910 
	C889.468750,252.864868 889.778992,268.769012 888.687439,284.797821 
	C888.067810,293.897186 886.765320,302.833923 882.673218,311.335693 
	C876.725586,323.692810 866.412598,329.395996 853.723145,330.165466 
	C829.989746,331.604614 819.528992,318.033417 815.948181,297.601105 
	C813.403931,283.082855 813.556763,268.310577 816.279419,253.864212 
	C821.280029,227.331375 839.160828,217.951050 864.441223,224.610107 
	C871.556213,226.484283 876.740234,231.630051 881.094482,237.969910 
z"/>
<path fill="#FDFDFC" opacity="1.000000" stroke="none" 
	d="
M1369.616821,325.178284 
	C1362.667358,310.093231 1369.614014,295.423431 1385.511597,291.978210 
	C1400.056152,288.826202 1414.754150,286.382477 1429.406250,283.622559 
	C1432.173340,305.987000 1429.710327,323.706085 1404.021851,333.021088 
	C1392.985840,337.022919 1376.620972,335.738708 1369.616821,325.178284 
z"/>
<path fill="#63AC59" opacity="1.000000" stroke="none" 
	d="
M170.028427,229.379547 
	C176.124771,233.930328 182.259979,238.824417 188.842621,244.159882 
	C190.535812,245.910553 191.920898,247.114441 193.004456,248.546463 
	C199.389679,256.985016 205.704727,265.476685 212.027924,274.371338 
	C210.461548,280.311249 209.135712,285.906250 207.305588,291.331116 
	C204.733948,298.954041 201.787811,306.450623 198.998901,314.331848 
	C198.993866,315.103363 198.991745,315.544220 198.636948,316.028931 
	C193.821823,321.394409 188.499435,324.680695 181.178909,324.618896 
	C179.105103,324.601349 176.415512,326.216644 175.065521,327.920685 
	C172.856445,330.709076 171.202393,330.383087 168.902435,328.427521 
	C166.674057,326.532867 164.309433,324.798401 162.004654,322.993561 
	C161.684875,322.889099 161.425568,322.701202 161.111267,321.859192 
	C160.333450,320.522888 159.671097,319.757233 159.008728,318.991608 
	C158.904587,318.669891 158.715500,318.409973 158.222198,318.104126 
	C154.183273,312.793945 150.363617,307.591553 146.272705,302.194305 
	C141.765366,296.203827 137.529251,290.408173 133.145706,283.975769 
	C132.998444,282.893463 132.998611,282.447968 132.998779,282.002441 
	C136.137650,283.248474 138.824722,283.055817 140.611343,279.269867 
	C139.807373,278.120453 138.857986,276.763092 137.389648,274.663818 
	C141.281540,274.029938 144.447678,273.545227 147.600525,272.985596 
	C148.870804,272.760162 150.504745,272.765381 151.292542,271.981537 
	C153.632126,269.653778 155.745117,268.053467 158.907349,270.709656 
	C159.351532,271.082764 161.072144,270.690491 161.492493,270.125092 
	C161.910141,269.563293 161.678497,268.212006 161.284744,267.432678 
	C160.810822,266.494690 159.865417,265.794891 158.222916,264.015839 
	C161.738113,263.201477 164.304489,262.325439 166.931046,262.071472 
	C170.039520,261.770874 172.953140,261.932343 173.241226,257.542145 
	C173.312408,256.457336 175.069321,255.363297 176.216476,254.490616 
	C180.230225,251.437088 181.094299,247.026947 178.423660,242.897873 
	C177.903931,242.094315 176.992477,240.966370 177.223938,240.348602 
	C178.709808,236.382996 175.374817,235.197403 173.401443,233.205856 
	C172.270370,232.064362 171.177399,230.885117 170.028427,229.379547 
z"/>
<path fill="#63AA51" opacity="1.000000" stroke="none" 
	d="
M132.863007,281.690125 
	C132.998611,282.447968 132.998444,282.893463 132.996399,283.673279 
	C130.427322,281.207031 127.860130,278.406433 125.147385,275.302917 
	C127.576950,277.125916 130.152084,279.251862 132.863007,281.690125 
z"/>
<path fill="#63AC59" opacity="1.000000" stroke="none" 
	d="
M165.038757,226.363205 
	C166.240555,226.804123 167.481827,227.600922 168.865204,228.695129 
	C167.697617,228.234726 166.387909,227.476898 165.038757,226.363205 
z"/>
<path fill="#63AA51" opacity="1.000000" stroke="none" 
	d="
M124.958511,272.665710 
	C124.014664,272.232117 123.040810,271.457489 122.033279,270.343262 
	C122.975891,270.777344 123.952187,271.551025 124.958511,272.665710 
z"/>
<path fill="#63AC59" opacity="1.000000" stroke="none" 
	d="
M159.053162,222.348312 
	C159.908707,222.473343 160.816788,222.942520 161.862808,223.702362 
	C161.035721,223.559494 160.070709,223.125977 159.053162,222.348312 
z"/>
<path fill="#63AC59" opacity="1.000000" stroke="none" 
	d="
M152.049789,217.353668 
	C152.904251,217.479843 153.812134,217.949249 154.856216,218.710480 
	C154.029343,218.567169 153.066269,218.132050 152.049789,217.353668 
z"/>
<path fill="#63AC59" opacity="1.000000" stroke="none" 
	d="
M162.046631,224.321579 
	C162.651596,224.442307 163.296051,224.887222 163.994598,225.649017 
	C163.394501,225.525848 162.740311,225.085800 162.046631,224.321579 
z"/>
<path fill="#6EAE51" opacity="1.000000" stroke="none" 
	d="
M287.987732,226.398254 
	C290.104034,224.392975 292.227234,222.823334 295.005859,221.093536 
	C297.444092,219.954193 299.226929,218.975021 301.009766,217.995850 
	C305.371490,216.098618 309.766205,214.272736 314.082916,212.278061 
	C316.773560,211.034744 319.367584,209.574966 321.967651,208.144485 
	C327.463501,205.120834 331.992249,208.411240 336.445312,210.712479 
	C337.476349,211.245270 336.936462,214.334320 337.695801,215.981400 
	C339.091888,219.009644 340.219788,223.085617 342.714447,224.480698 
	C347.173981,226.974579 349.612091,229.656128 351.189850,234.754303 
	C353.651306,242.708130 361.515778,244.660599 368.723602,245.848404 
	C375.843353,247.021698 383.159058,247.005615 390.829041,247.542099 
	C389.981323,255.217316 389.150269,262.741882 388.159546,270.632446 
	C386.774567,272.534973 385.549255,274.071503 384.963593,274.805969 
	C377.934113,271.336304 370.981873,268.234924 364.367218,264.530701 
	C359.478058,261.792755 355.150055,258.063568 350.314758,255.212326 
	C348.713776,254.268280 346.304413,254.489014 344.277649,254.558304 
	C343.228210,254.594177 341.855652,256.165466 341.226410,255.850342 
	C332.343781,251.401688 326.287506,259.957581 318.511780,260.546600 
	C310.181854,250.120712 309.166321,248.228653 297.919312,246.666138 
	C295.807861,241.540009 293.739441,236.511871 288.987000,232.937332 
	C287.798431,232.043350 288.280487,228.928192 287.987732,226.398254 
z"/>
<path fill="#5DAA5C" opacity="1.000000" stroke="none" 
	d="
M301.602234,304.002136 
	C300.025757,307.104004 298.050293,310.205566 296.043823,313.657227 
	C292.468048,318.490387 288.923248,322.973450 284.820679,327.731598 
	C280.157379,329.069427 277.402527,334.885529 271.816925,331.070648 
	C269.385712,329.410187 264.669067,329.716980 263.614380,327.734375 
	C261.914307,324.538605 259.836639,325.307922 257.542267,324.966919 
	C254.306534,324.486023 250.458771,324.688629 248.029495,322.966858 
	C243.646011,319.859985 240.013748,315.642914 236.299805,311.672394 
	C235.188995,310.484833 233.900925,308.231140 234.326111,307.056763 
	C235.973862,302.505676 238.279648,298.192810 240.430115,293.599701 
	C237.466507,287.479767 238.511490,278.112579 242.678207,272.482025 
	C243.555374,271.296692 243.554001,269.461273 243.991440,267.573395 
	C249.081314,258.723602 254.884537,250.862030 262.982422,244.953979 
	C262.272705,247.878784 261.440216,250.781601 260.911072,253.738724 
	C260.685944,254.996948 260.580566,256.919769 261.303864,257.595856 
	C264.902252,260.959412 264.890564,264.418243 261.704010,268.472900 
	C264.288971,269.990326 266.516235,271.297760 269.024323,272.770050 
	C267.634460,275.602814 264.729309,279.121124 271.014343,279.305786 
	C272.280579,283.590271 273.477509,287.897186 274.853088,292.146301 
	C275.295685,293.513458 276.122223,294.786041 276.929199,295.997925 
	C277.914246,297.477112 279.063751,298.846802 280.548248,300.797516 
	C280.240356,300.720490 280.759705,301.030914 281.175262,300.926910 
	C286.209808,299.666199 290.817078,299.180969 294.698242,304.054413 
	C295.531250,305.100372 298.966675,304.073730 301.602234,304.002136 
z"/>
<path fill="#379450" opacity="1.000000" stroke="none" 
	d="
M212.043411,273.950470 
	C205.704727,265.476685 199.389679,256.985016 193.004456,248.546463 
	C191.920898,247.114441 190.535812,245.910553 189.143555,244.302856 
	C188.832901,242.235626 188.668747,240.466812 188.603134,239.759857 
	C192.561722,237.169159 196.085815,234.862823 199.805786,232.277603 
	C204.021744,234.512527 208.041794,237.026306 210.954987,238.847961 
	C215.075089,236.397949 218.064316,234.684891 220.980545,232.855469 
	C222.195969,232.093002 223.827698,231.307617 224.285095,230.145096 
	C226.036835,225.692749 229.035553,224.037491 233.801041,223.743835 
	C242.331924,223.218185 250.861877,222.237213 259.305176,220.897873 
	C264.261383,220.111694 269.125488,218.485931 273.892731,216.837799 
	C278.984497,215.077499 282.101837,219.398422 286.287231,220.319107 
	C285.726257,221.534897 285.348236,222.887451 284.564117,223.936462 
	C283.172607,225.797989 281.534698,227.475327 279.991791,229.598160 
	C279.983673,229.966599 279.987335,229.991318 279.629395,229.995331 
	C278.511658,230.659927 277.751831,231.320480 276.992004,231.981049 
	C273.747894,235.098557 270.503784,238.216064 266.798920,241.675232 
	C265.554016,242.333572 264.769836,242.650269 263.994446,242.606461 
	C264.897644,240.770523 265.792023,239.295090 266.679291,237.831375 
	C264.591492,235.096085 255.904877,233.824936 251.423065,235.384750 
	C244.744202,237.709183 237.995972,239.834152 231.315430,242.153931 
	C230.289932,242.510025 229.034302,243.255783 228.621582,244.158173 
	C225.217422,251.600967 222.574265,259.311035 223.070267,267.633942 
	C223.469070,274.325989 224.256866,280.999969 225.073883,287.657227 
	C225.219055,288.840179 226.352737,289.901794 226.970856,291.359192 
	C225.852509,291.601105 224.293625,291.907013 223.827347,291.329987 
	C222.406830,289.572174 221.508881,287.404785 220.223404,285.522552 
	C217.559662,281.622223 214.777100,277.803040 212.043411,273.950470 
z"/>
<path fill="#2B8E51" opacity="1.000000" stroke="none" 
	d="
M227.029968,291.019440 
	C226.352737,289.901794 225.219055,288.840179 225.073883,287.657227 
	C224.256866,280.999969 223.469070,274.325989 223.070267,267.633942 
	C222.574265,259.311035 225.217422,251.600967 228.621582,244.158173 
	C229.034302,243.255783 230.289932,242.510025 231.315430,242.153931 
	C237.995972,239.834152 244.744202,237.709183 251.423065,235.384750 
	C255.904877,233.824936 264.591492,235.096085 266.679291,237.831375 
	C265.792023,239.295090 264.897644,240.770523 263.986633,242.859421 
	C263.963074,243.641220 263.956177,243.809555 263.949249,243.977890 
	C263.635406,244.077240 263.382751,244.260834 263.086853,244.741302 
	C254.884537,250.862030 249.081314,258.723602 243.634277,267.634521 
	C239.493179,273.694153 235.743225,279.340729 231.699371,285.138062 
	C229.946976,287.199036 228.488480,289.109253 227.029968,291.019440 
z"/>
<path fill="#5DAA5C" opacity="1.000000" stroke="none" 
	d="
M264.311554,243.981369 
	C263.956177,243.809555 263.963074,243.641220 263.977844,243.219925 
	C264.769836,242.650269 265.554016,242.333572 266.653870,241.977631 
	C266.204346,242.620544 265.439117,243.302689 264.311554,243.981369 
z"/>
<path fill="#469E51" opacity="1.000000" stroke="none" 
	d="
M277.314209,231.963226 
	C277.751831,231.320480 278.511658,230.659927 279.621521,229.991806 
	C279.193207,230.637970 278.414795,231.291687 277.314209,231.963226 
z"/>
<path fill="#65AC54" opacity="1.000000" stroke="none" 
	d="
M301.005737,217.632538 
	C299.226929,218.975021 297.444092,219.954193 295.313904,220.956543 
	C296.615540,219.209335 298.264526,217.438919 299.981903,215.327728 
	C300.050323,214.986954 300.498291,215.020401 300.719177,215.058472 
	C300.960632,215.820770 300.981201,216.544983 301.005737,217.632538 
z"/>
<path fill="#4BA161" opacity="1.000000" stroke="none" 
	d="
M198.989624,315.985077 
	C198.991745,315.544220 198.993866,315.103363 199.389008,314.332886 
	C200.438339,314.061493 201.261246,313.885010 201.725174,314.214264 
	C206.421173,317.547455 204.487732,324.485931 209.620407,328.148071 
	C211.699066,329.631134 211.282867,334.610809 212.041534,338.363068 
	C213.533264,341.759827 216.524124,344.549835 214.276077,348.296967 
	C212.014435,352.066742 213.344925,355.274750 215.293076,358.516998 
	C219.040390,364.753510 232.588135,370.063843 239.937744,367.317993 
	C242.818619,366.241669 246.400436,366.381470 249.545532,366.816681 
	C255.224319,367.602539 257.354553,365.351196 256.877625,359.516205 
	C256.688507,357.203003 257.846344,353.688904 259.586761,352.551819 
	C262.561493,350.608215 266.478668,350.107025 270.000000,349.000000 
	C269.996765,349.441437 269.993530,349.882843 269.983093,350.655029 
	C265.672638,357.089233 261.369385,363.192688 257.038696,369.649689 
	C255.849106,371.538696 254.686966,373.074158 253.254364,374.788788 
	C245.815720,375.007172 241.025772,379.233612 241.000168,385.541901 
	C240.969177,393.184967 238.898483,394.929138 231.135300,395.168793 
	C227.561447,395.279083 224.044235,396.686401 220.464966,397.289886 
	C215.472336,398.131714 213.802582,396.454712 214.318909,391.440948 
	C214.399704,390.656464 214.721970,389.513855 214.337128,389.122803 
	C209.737549,384.448700 211.606293,378.521149 210.910309,373.049988 
	C210.142670,367.015594 209.105484,360.939331 207.320282,355.148102 
	C206.607254,352.834991 203.580353,351.235107 201.606766,349.310577 
	C199.410599,351.593231 196.798996,353.612274 195.136200,356.233307 
	C193.503830,358.806396 192.835785,361.991180 191.370148,364.954987 
	C188.032272,360.892822 185.068787,356.783234 182.051117,352.336212 
	C181.996948,351.998779 182.012192,351.999573 182.411850,351.999390 
	C189.055222,352.872375 194.084671,349.675720 194.927841,344.105011 
	C195.343307,341.360138 195.195007,338.529327 195.619476,335.786560 
	C196.643326,329.170654 197.854187,322.583710 198.989624,315.985077 
z"/>
<path fill="#55A861" opacity="1.000000" stroke="none" 
	d="
M270.270569,348.807068 
	C266.478668,350.107025 262.561493,350.608215 259.586761,352.551819 
	C257.846344,353.688904 256.688507,357.203003 256.877625,359.516205 
	C257.354553,365.351196 255.224319,367.602539 249.545532,366.816681 
	C246.400436,366.381470 242.818619,366.241669 239.937744,367.317993 
	C232.588135,370.063843 219.040390,364.753510 215.293076,358.516998 
	C213.344925,355.274750 212.014435,352.066742 214.276077,348.296967 
	C216.524124,344.549835 213.533264,341.759827 212.341400,338.125336 
	C213.067810,335.303040 213.543365,333.084076 213.997604,330.860748 
	C214.522003,328.294037 214.835480,325.665894 215.583511,323.167114 
	C216.921448,318.697754 218.355927,314.242950 220.046478,309.897369 
	C221.943192,305.021881 221.197815,299.309448 226.403503,295.379425 
	C229.256104,293.225830 230.192688,288.534332 231.993256,284.987274 
	C235.743225,279.340729 239.493179,273.694153 243.600281,267.986511 
	C243.554001,269.461273 243.555374,271.296692 242.678207,272.482025 
	C238.511490,278.112579 237.466507,287.479767 240.430115,293.599701 
	C238.279648,298.192810 235.973862,302.505676 234.326111,307.056763 
	C233.900925,308.231140 235.188995,310.484833 236.299805,311.672394 
	C240.013748,315.642914 243.646011,319.859985 248.029495,322.966858 
	C250.458771,324.688629 254.306534,324.486023 257.542267,324.966919 
	C259.836639,325.307922 261.914307,324.538605 263.614380,327.734375 
	C264.669067,329.716980 269.385712,329.410187 271.816925,331.070648 
	C277.402527,334.885529 280.157379,329.069427 284.628418,328.002136 
	C284.994904,328.442566 284.995880,328.887543 284.998199,329.666260 
	C280.180054,336.204712 275.360596,342.409424 270.270569,348.807068 
z"/>
<path fill="#52A25D" opacity="1.000000" stroke="none" 
	d="
M198.636963,316.028931 
	C197.854187,322.583710 196.643326,329.170654 195.619476,335.786560 
	C195.195007,338.529327 195.343307,341.360138 194.927841,344.105011 
	C194.084671,349.675720 189.055222,352.872375 182.419342,351.997681 
	C178.108398,346.207214 174.189636,340.418304 170.129486,334.317200 
	C167.348984,330.566437 164.709854,327.127869 162.037689,323.341431 
	C164.309433,324.798401 166.674057,326.532867 168.902435,328.427521 
	C171.202393,330.383087 172.856445,330.709076 175.065521,327.920685 
	C176.415512,326.216644 179.105103,324.601349 181.178909,324.618896 
	C188.499435,324.680695 193.821823,321.394409 198.636963,316.028931 
z"/>
<path fill="#469E51" opacity="1.000000" stroke="none" 
	d="
M166.956818,205.678925 
	C166.359604,205.546997 165.721634,205.094604 165.042450,204.322021 
	C165.639511,204.454025 166.277786,204.906235 166.956818,205.678925 
z"/>
<path fill="#469E51" opacity="1.000000" stroke="none" 
	d="
M160.956757,200.677765 
	C160.359467,200.546341 159.721283,200.094528 159.041534,199.322571 
	C159.638611,199.454086 160.277237,199.905731 160.956757,200.677765 
z"/>
<path fill="#52A25D" opacity="1.000000" stroke="none" 
	d="
M159.031448,319.314026 
	C159.671097,319.757233 160.333450,320.522888 161.002197,321.641663 
	C160.357101,321.208649 159.705627,320.422546 159.031448,319.314026 
z"/>
<path fill="#52A25D" opacity="1.000000" stroke="none" 
	d="
M231.699371,285.138062 
	C230.192688,288.534332 229.256104,293.225830 226.403503,295.379425 
	C221.197815,299.309448 221.943192,305.021881 220.046478,309.897369 
	C218.355927,314.242950 216.921448,318.697754 215.583511,323.167114 
	C214.835480,325.665894 214.522003,328.294037 213.997604,330.860748 
	C213.543365,333.084076 213.067810,335.303040 212.301819,337.761658 
	C211.282867,334.610809 211.699066,329.631134 209.620407,328.148071 
	C204.487732,324.485931 206.421173,317.547455 201.725174,314.214264 
	C201.261246,313.885010 200.438339,314.061493 199.391937,314.002228 
	C201.787811,306.450623 204.733948,298.954041 207.305588,291.331116 
	C209.135712,285.906250 210.461548,280.311249 212.027924,274.371338 
	C214.777100,277.803040 217.559662,281.622223 220.223404,285.522552 
	C221.508881,287.404785 222.406830,289.572174 223.827347,291.329987 
	C224.293625,291.907013 225.852509,291.601105 226.970856,291.359192 
	C228.488480,289.109253 229.946976,287.199036 231.699371,285.138062 
z"/>
</svg>